<svg width="176" height="25" viewBox="0 0 176 25" fill="none" xmlns="http://www.w3.org/2000/svg">
<path d="M71.0962 4.13604H73.0459C73.1075 4.13604 73.1666 4.11157 73.2101 4.06802C73.2537 4.02448 73.2782 3.96542 73.2782 3.90383V0.227868C73.2782 0.197576 73.2721 0.167591 73.2604 0.13966C73.2487 0.111729 73.2315 0.0864125 73.2099 0.0651982C73.1883 0.0439839 73.1626 0.0273023 73.1345 0.0161139C73.1063 0.0049254 73.0762 -0.000540412 73.0459 4.21147e-05H70.3076C67.1399 4.21147e-05 65.4618 1.01214 64.5023 3.16338L58.5481 17.7489C58.4283 18.1509 58.1729 18.4989 57.8254 18.7337C57.4779 18.9686 57.0598 19.0758 56.6422 19.037V0.227868C56.6422 0.197576 56.6361 0.167591 56.6244 0.13966C56.6127 0.111729 56.5955 0.0864125 56.5739 0.0651982C56.5523 0.0439839 56.5266 0.0273023 56.4985 0.0161139C56.4703 0.0049254 56.4402 -0.000540412 56.41 4.21147e-05H52.0286C51.9983 -0.000540412 51.9682 0.0049254 51.9401 0.0161139C51.9119 0.0273023 51.8863 0.0439839 51.8647 0.0651982C51.843 0.0864125 51.8259 0.111729 51.8141 0.13966C51.8024 0.167591 51.7964 0.197576 51.7964 0.227868V22.7699C51.7975 22.8772 51.841 22.9798 51.9173 23.0552C51.9936 23.1307 52.0965 23.173 52.2039 23.173H57.1153C60.2787 23.173 61.7289 22.1609 62.6841 20.0097L68.5638 5.6038C69.037 4.58294 69.7161 4.13604 71.0962 4.13604Z" fill="#D7191F"/>
<path d="M17.6087 11.5887C19.3612 10.857 20.8159 9.21398 20.8159 6.49754C20.8159 2.45355 17.3458 0 13.1616 0H0.227874C0.16745 0 0.109499 0.0240073 0.0667726 0.0667338C0.0240461 0.10946 4.21372e-05 0.167401 4.21372e-05 0.227826V3.90379C-0.00054039 3.93407 0.00492208 3.96417 0.0161105 3.99232C0.027299 4.02046 0.0439906 4.0461 0.0652049 4.06773C0.0864192 4.08935 0.111733 4.10652 0.139664 4.11824C0.167595 4.12996 0.197583 4.136 0.227874 4.136H12.2678C14.2088 4.136 15.5232 5.32334 15.5232 6.76481C15.5232 8.20627 14.2088 9.41552 12.2678 9.41552H5.11308V6.69471C5.11368 6.66405 5.10808 6.63359 5.09662 6.60515C5.08516 6.57671 5.06808 6.55086 5.0464 6.52918C5.02471 6.50749 4.99888 6.49041 4.97043 6.47895C4.94199 6.4675 4.91153 6.4619 4.88087 6.4625H0.227874C0.197583 6.46249 0.167595 6.46853 0.139664 6.48025C0.111733 6.49197 0.0864192 6.50914 0.0652049 6.53077C0.0439906 6.55239 0.027299 6.57803 0.0161105 6.60618C0.00492208 6.63433 -0.00054039 6.66442 4.21372e-05 6.69471V22.9364C4.21372e-05 22.9968 0.0240461 23.0547 0.0667726 23.0975C0.109499 23.1402 0.16745 23.1642 0.227874 23.1642H12.9776C17.7445 23.1642 21.1576 20.9429 21.1576 16.4082C21.1673 15.329 20.8267 14.2757 20.1867 13.4067C19.5468 12.5376 18.6422 11.8997 17.6087 11.5887ZM12.5176 19.1377H5.11308V13.7049H12.5176C14.5067 13.7049 15.8562 14.9229 15.8562 16.4213C15.8562 17.9197 14.5067 19.1377 12.5176 19.1377Z" fill="#D7191F"/>
<path d="M75.6267 22.9057L68.1214 13.3106C68.1184 13.3051 68.1139 13.3005 68.1085 13.2973C68.1031 13.2942 68.097 13.2925 68.0907 13.2925C68.0845 13.2925 68.0783 13.2942 68.0729 13.2973C68.0675 13.3005 68.0631 13.3051 68.06 13.3106L66.0403 18.2527C66.0326 18.2669 66.0286 18.2827 66.0286 18.2987C66.0286 18.3148 66.0326 18.3306 66.0403 18.3447L69.3219 22.7261C69.4168 22.8695 69.5477 22.9854 69.7014 23.0623C69.8552 23.1392 70.0265 23.1744 70.1981 23.1642H75.4821C75.514 23.1693 75.5467 23.1645 75.5757 23.1504C75.6048 23.1363 75.6289 23.1137 75.6446 23.0855C75.6604 23.0573 75.6671 23.0249 75.6639 22.9928C75.6607 22.9606 75.6477 22.9302 75.6267 22.9057Z" fill="#D7191F"/>
<path d="M29.3726 6.47131H24.9912C24.9297 6.47131 24.8706 6.49578 24.827 6.53933C24.7835 6.58288 24.759 6.64194 24.759 6.70352V22.9452C24.759 22.9755 24.7651 23.0055 24.7768 23.0334C24.7885 23.0613 24.8057 23.0867 24.8273 23.1079C24.8489 23.1291 24.8746 23.1458 24.9027 23.157C24.9309 23.1682 24.961 23.1736 24.9912 23.173H29.3726C29.4334 23.173 29.4918 23.1492 29.5353 23.1066C29.5787 23.064 29.6037 23.006 29.6048 22.9452V6.69477C29.6025 6.63471 29.5771 6.57787 29.5338 6.5362C29.4905 6.49453 29.4327 6.47127 29.3726 6.47131Z" fill="#D7191F"/>
<path d="M47.4019 4.21147e-05H43.0205C42.9906 4.21147e-05 42.961 0.00593453 42.9333 0.0173841C42.9057 0.0288336 42.8806 0.0456199 42.8594 0.0667759C42.8383 0.0879319 42.8215 0.113048 42.81 0.14069C42.7986 0.168332 42.7927 0.197949 42.7927 0.227868V19.037C42.3751 19.0758 41.9569 18.9686 41.6094 18.7337C41.2619 18.4989 41.0066 18.1509 40.8868 17.7489L34.9238 3.16338C33.9687 1.01214 32.295 4.21147e-05 29.1229 4.21147e-05H24.9956C24.9654 -0.000540412 24.9353 0.0049254 24.9071 0.0161139C24.879 0.0273023 24.8533 0.0439839 24.8317 0.0651982C24.8101 0.0864125 24.7929 0.111729 24.7812 0.13966C24.7695 0.167591 24.7634 0.197576 24.7634 0.227868V3.90383C24.7634 3.96542 24.7879 4.02448 24.8314 4.06802C24.875 4.11157 24.9341 4.13604 24.9956 4.13604H28.3298C29.7144 4.13604 30.3891 4.57418 30.8623 5.6038L36.742 20.0097C37.7016 22.1609 39.1474 23.173 42.3151 23.173H47.2222C47.3296 23.173 47.4325 23.1307 47.5088 23.0552C47.5851 22.9798 47.6286 22.8772 47.6297 22.7699V0.227868C47.6297 0.167443 47.6057 0.109502 47.563 0.0667759C47.5202 0.0240494 47.4623 4.21147e-05 47.4019 4.21147e-05Z" fill="#D7191F"/>
<path d="M125.014 0.503872H121.57V12.9995H123.559C123.752 13.0115 123.946 12.9826 124.127 12.9145C124.308 12.8465 124.472 12.741 124.61 12.6049C124.747 12.4687 124.854 12.3051 124.924 12.1247C124.994 11.9443 125.024 11.7511 125.014 11.558V7.7331H128.217V4.66616H125.014V0.503872ZM129.632 15.4793H152.879V12.7804H129.632V15.4793ZM137.107 21.3503V17.3633H133.321V22.0908C133.321 23.4052 134.175 24.5049 136.344 24.5049H150.365V21.806H137.606C137.543 21.8095 137.48 21.8005 137.421 21.7794C137.362 21.7583 137.307 21.7256 137.261 21.6831C137.214 21.6407 137.176 21.5894 137.15 21.5323C137.124 21.4751 137.109 21.4133 137.107 21.3503ZM97.0697 3.2685H93.293V5.89732H97.0654V8.16685H93.293V10.7694H97.0654V13.3982H99.0589C99.2515 13.4109 99.4446 13.3826 99.6254 13.315C99.8063 13.2475 99.9707 13.1423 100.108 13.0064C100.245 12.8706 100.352 12.7071 100.421 12.5269C100.49 12.3467 100.52 12.1538 100.509 11.9611V0.503872H97.0654L97.0697 3.2685ZM92.9337 13.6961C89.065 13.6961 85.9236 16.211 85.9236 19.3481C85.9236 22.4851 89.0825 24.9912 92.9337 25C96.785 25.0088 99.9439 22.4851 99.9439 19.3481C99.9439 16.211 96.7981 13.6961 92.9337 13.6961ZM92.9337 22.2398C91.0366 22.2398 89.5163 20.9253 89.5163 19.3481C89.5163 17.7708 91.0366 16.452 92.9337 16.452C94.8309 16.452 96.3381 17.7664 96.3424 19.3481C96.3468 20.9297 94.8221 22.2266 92.9337 22.2266V22.2398ZM141.264 11.0673C145.208 11.0673 148.406 8.60936 148.41 5.52927C148.415 2.44918 145.19 0.00438719 141.264 5.83792e-06C137.339 -0.00437551 134.118 2.45794 134.11 5.52927C134.101 8.6006 137.33 11.0673 141.264 11.0673ZM141.264 2.6551C143.275 2.6551 144.879 3.96951 144.883 5.52927C144.888 7.08903 143.275 8.40345 141.264 8.40345C139.253 8.40345 137.641 7.08903 137.641 5.52927C137.641 3.96951 139.249 2.64634 141.264 2.64196V2.6551ZM92.8549 1.42833V1.30565H80.5871V3.96514H88.7978C88.088 7.29935 84.2674 10.0377 80.1183 11.1155L80 11.1462L80.6441 13.4245H80.7624C86.9663 12.1276 92.6139 8.53927 92.8549 1.42833ZM109.403 22.1083C109.403 23.4227 110.253 24.5224 112.431 24.5224H122.013C124.203 24.5224 125.032 23.4315 125.032 22.1083V14.8791H109.386L109.403 22.1083ZM113.075 17.5605H121.399V21.3679C121.39 21.4895 121.335 21.603 121.244 21.6846C121.154 21.7662 121.035 21.8097 120.913 21.806H113.544C113.422 21.8097 113.303 21.7662 113.212 21.6846C113.122 21.603 113.066 21.4895 113.057 21.3679L113.075 17.5605ZM119.406 10.949L119.463 10.9183V8.4385L119.27 8.55241C118.438 9.06503 117.211 9.24466 115.625 9.24466H110.074C110.011 9.24641 109.95 9.2359 109.892 9.21372C109.833 9.19155 109.78 9.15814 109.735 9.11542C109.69 9.0727 109.654 9.02149 109.628 8.96473C109.603 8.90797 109.589 8.84677 109.587 8.78463V1.28812H105.644V9.50755C105.644 10.822 106.52 11.9217 108.667 11.9217H115.095C116.86 11.9436 118.219 11.6369 119.388 10.9315L119.406 10.949ZM166.137 8.8372C166.142 8.09662 165.972 7.36543 165.641 6.70257C165.311 6.03972 164.83 5.46374 164.236 5.02105H166.387V2.60692H162.444V0.51263H158.764V2.60692H154.785V5.02105H156.976C156.381 5.46303 155.899 6.03876 155.568 6.70171C155.237 7.36465 155.066 8.09619 155.07 8.8372C155.07 11.5755 157.493 13.7838 160.604 13.7838C163.715 13.7838 166.12 11.558 166.12 8.81967L166.137 8.8372ZM160.608 11.4003C160.086 11.409 159.574 11.2622 159.136 10.9787C158.698 10.6952 158.354 10.2877 158.148 9.80822C157.943 9.3287 157.884 8.79881 157.981 8.28601C158.077 7.77322 158.324 7.30072 158.69 6.92867C159.056 6.55663 159.524 6.30188 160.035 6.19685C160.546 6.09181 161.077 6.14125 161.56 6.33886C162.043 6.53648 162.456 6.87333 162.747 7.30653C163.038 7.73974 163.193 8.2497 163.193 8.77148C163.205 9.11694 163.146 9.4612 163.02 9.78295C162.894 10.1047 162.703 10.3971 162.459 10.6419C162.215 10.8867 161.923 11.0788 161.601 11.2063C161.28 11.3337 160.936 11.3938 160.591 11.3828L160.608 11.4003ZM172.587 0.51263V5.08676H170.983V0.495101H167.719V12.7629H169.581C169.767 12.7757 169.954 12.7486 170.129 12.6835C170.304 12.6184 170.463 12.5168 170.596 12.3853C170.729 12.2539 170.832 12.0958 170.899 11.9214C170.965 11.747 170.994 11.5604 170.983 11.374V8.00036H172.587V12.7804H174.449C174.635 12.7932 174.822 12.7661 174.997 12.701C175.172 12.6359 175.331 12.5343 175.464 12.4029C175.596 12.2715 175.7 12.1133 175.766 11.9389C175.833 11.7645 175.862 11.5779 175.851 11.3915V0.495101L172.587 0.51263ZM168.49 13.81C164.63 13.81 161.48 16.303 161.48 19.4094C161.48 22.5158 164.639 24.9956 168.49 25.0044C172.341 25.0132 175.5 22.5158 175.5 19.4094C175.5 16.303 172.341 13.8013 168.473 13.7925L168.49 13.81ZM168.49 22.3099C166.576 22.3099 165.042 20.9955 165.038 19.4094C165.033 17.8234 166.576 16.5046 168.49 16.5046C170.405 16.5046 171.947 17.819 171.956 19.4094C171.965 20.9998 170.405 22.2923 168.473 22.2923L168.49 22.3099Z" fill="#655C4F"/>
</svg>
