<svg width="186" height="25" viewBox="0 0 186 25" fill="none" xmlns="http://www.w3.org/2000/svg">
<path d="M75.9499 5.38H78.0268C78.0582 5.3815 78.0895 5.37659 78.119 5.36561C78.1484 5.35462 78.1753 5.33778 78.198 5.31608C78.2208 5.29439 78.2388 5.26831 78.2512 5.23942C78.2635 5.21053 78.2699 5.17944 78.2698 5.14802V1.45823C78.2699 1.42681 78.2635 1.39569 78.2512 1.3668C78.2388 1.33791 78.2208 1.31183 78.198 1.29014C78.1753 1.26844 78.1484 1.2516 78.119 1.24061C78.0895 1.22962 78.0582 1.22472 78.0268 1.22621H75.0993C71.7188 1.22621 69.9292 2.24257 68.9018 4.40784L62.5385 19.0676C62.3943 19.4801 62.1152 19.8321 61.7464 20.0666C61.3777 20.3011 60.9406 20.4045 60.5058 20.3601V1.45823C60.5044 1.4263 60.4967 1.39497 60.4832 1.36603C60.4696 1.33708 60.4505 1.31108 60.4269 1.28953C60.4033 1.26798 60.3757 1.2513 60.3456 1.24044C60.3156 1.22958 60.2837 1.22473 60.2517 1.22621H55.6229C55.5915 1.22472 55.5602 1.22962 55.5308 1.24061C55.5013 1.2516 55.4744 1.26844 55.4517 1.29014C55.429 1.31183 55.4109 1.33791 55.3985 1.3668C55.3862 1.39569 55.3798 1.42681 55.3799 1.45823V24.1162C55.3856 24.2285 55.435 24.3342 55.5176 24.4105C55.6002 24.4869 55.7093 24.528 55.8218 24.525H61.0582C64.4387 24.525 65.9853 23.4976 67.0127 21.3433L73.2986 6.86033C73.5251 6.36325 73.9045 5.95154 74.3814 5.68525C74.8584 5.41895 75.4079 5.312 75.9499 5.38Z" fill="#D7191F"/>
<path d="M18.8246 12.8701C19.8624 12.4918 20.7533 11.7937 21.3688 10.8764C21.9843 9.95908 22.2926 8.87002 22.2492 7.76622C22.2492 3.68977 18.5373 1.22621 14.0632 1.22621H0.243042C0.211659 1.22472 0.180295 1.22962 0.15086 1.24061C0.121426 1.2516 0.0945282 1.26844 0.0718017 1.29014C0.0490753 1.31183 0.0309956 1.33791 0.0186522 1.3668C0.00630879 1.39569 -3.54932e-05 1.42681 1.49351e-07 1.45823V5.14802C-3.54932e-05 5.17944 0.00630879 5.21053 0.0186522 5.23942C0.0309956 5.26831 0.0490753 5.29439 0.0718017 5.31608C0.0945282 5.33778 0.121426 5.35462 0.15086 5.36561C0.180295 5.37659 0.211659 5.3815 0.243042 5.38H13.1131C15.19 5.38 16.582 6.57311 16.582 8.0424C16.582 9.51169 15.19 10.7048 13.1131 10.7048H5.4684V7.96506C5.46844 7.93364 5.46209 7.90256 5.44975 7.87366C5.4374 7.84477 5.41932 7.81869 5.3966 7.797C5.37387 7.77531 5.34697 7.75846 5.31754 7.74747C5.28811 7.73649 5.25674 7.73158 5.22536 7.73308H0.243042C0.211659 7.73158 0.180295 7.73649 0.15086 7.74747C0.121426 7.75846 0.0945282 7.77531 0.0718017 7.797C0.0490753 7.81869 0.0309956 7.84477 0.0186522 7.87366C0.00630879 7.90256 -3.54932e-05 7.93364 1.49351e-07 7.96506V24.304C0.00284508 24.3665 0.0296966 24.4255 0.0749708 24.4688C0.120245 24.512 0.180453 24.536 0.243042 24.536H13.8643C18.9571 24.536 22.6027 22.3265 22.6027 17.7419C22.5958 16.6275 22.222 15.5465 21.5391 14.6658C20.8562 13.7852 19.9022 13.1541 18.8246 12.8701ZM13.3783 20.4595H5.4684V15.0022H13.3783C15.4993 15.0022 16.9465 16.2284 16.9465 17.7309C16.9465 19.2333 15.4993 20.4595 13.3783 20.4595Z" fill="#D7191F"/>
<path d="M80.7883 24.304L72.768 14.6487C72.768 14.6487 72.7128 14.6487 72.7017 14.6487L70.4923 19.6089C70.4821 19.6413 70.4821 19.676 70.4923 19.7083L73.9942 24.1272C74.1038 24.2701 74.2466 24.3841 74.4103 24.4592C74.5739 24.5343 74.7535 24.5682 74.9332 24.5581H80.5895C80.6232 24.5845 80.6659 24.5963 80.7084 24.5912C80.7509 24.586 80.7896 24.5641 80.8159 24.5304C80.8423 24.4968 80.8542 24.454 80.849 24.4115C80.8438 24.369 80.822 24.3304 80.7883 24.304Z" fill="#D7191F"/>
<path d="M31.3844 7.73305H26.7003C26.6689 7.73155 26.6376 7.73646 26.6081 7.74745C26.5787 7.75843 26.5518 7.77528 26.5291 7.79697C26.5064 7.81867 26.4883 7.84474 26.4759 7.87364C26.4636 7.90253 26.4572 7.93362 26.4573 7.96503V24.304C26.4601 24.3665 26.487 24.4255 26.5323 24.4687C26.5775 24.5119 26.6377 24.536 26.7003 24.536H31.3844C31.447 24.536 31.5072 24.5119 31.5524 24.4687C31.5977 24.4255 31.6246 24.3665 31.6274 24.304V7.96503C31.6274 7.93362 31.6211 7.90253 31.6088 7.87364C31.5964 7.84474 31.5783 7.81867 31.5556 7.79697C31.5329 7.77528 31.506 7.75843 31.4765 7.74745C31.4471 7.73646 31.4157 7.73155 31.3844 7.73305Z" fill="#D7191F"/>
<path d="M50.629 1.22621H45.956C45.9241 1.22473 45.8922 1.22958 45.8621 1.24044C45.8321 1.2513 45.8045 1.26798 45.7809 1.28953C45.7573 1.31108 45.7381 1.33708 45.7246 1.36602C45.7111 1.39497 45.7034 1.4263 45.7019 1.45823V20.3601C45.2672 20.4045 44.8301 20.3011 44.4613 20.0666C44.0925 19.8321 43.8135 19.4801 43.6692 19.0676L37.306 4.41889C36.2786 2.20944 34.489 1.23727 31.1085 1.23727H26.6896C26.6582 1.23578 26.6268 1.24068 26.5974 1.25167C26.568 1.26265 26.5411 1.2795 26.5183 1.30119C26.4956 1.32289 26.4775 1.34897 26.4652 1.37786C26.4529 1.40675 26.4465 1.43784 26.4465 1.46925V5.15908C26.4465 5.19049 26.4529 5.22158 26.4652 5.25047C26.4775 5.27937 26.4956 5.30545 26.5183 5.32714C26.5411 5.34883 26.568 5.36568 26.5974 5.37666C26.6268 5.38765 26.6582 5.39256 26.6896 5.39106H30.2137C30.7645 5.30861 31.3273 5.40865 31.816 5.67594C32.3047 5.94323 32.6925 6.36307 32.9202 6.87139L39.2061 21.3544C40.2225 23.5086 41.7691 24.536 45.1496 24.536H50.397C50.4522 24.5375 50.5071 24.5281 50.5585 24.5083C50.61 24.4886 50.6572 24.4588 50.6972 24.4209C50.7372 24.3829 50.7693 24.3375 50.7917 24.2871C50.8142 24.2367 50.8265 24.1824 50.8279 24.1272V1.45823C50.8285 1.40204 50.8086 1.34754 50.772 1.30487C50.7355 1.2622 50.6846 1.23424 50.629 1.22621Z" fill="#D7191F"/>
<path d="M122.083 21.3765V16.1843H118.227V22.0946C118.227 23.4202 119.089 24.525 121.265 24.525H134.379V21.8184H122.569C122.447 21.8215 122.328 21.7773 122.237 21.695C122.147 21.6127 122.091 21.4986 122.083 21.3765ZM175.729 8.83782C175.732 8.09227 175.562 7.35617 175.23 6.68855C174.898 6.02093 174.414 5.44034 173.817 4.99336H176.027V2.58506H172.05V0.464001H168.305V2.58506H164.306V4.99336H166.515C165.916 5.43857 165.429 6.01853 165.095 6.68636C164.762 7.35418 164.589 8.09118 164.593 8.83782C164.754 10.2001 165.409 11.4559 166.434 12.3672C167.459 13.2784 168.783 13.7818 170.155 13.7818C171.527 13.7818 172.851 13.2784 173.876 12.3672C174.901 11.4559 175.557 10.2001 175.717 8.83782H175.729ZM170.205 11.4118C169.683 11.4336 169.167 11.2996 168.721 11.0267C168.276 10.7539 167.922 10.3546 167.705 9.87978C167.487 9.40497 167.416 8.87615 167.5 8.36074C167.584 7.84534 167.82 7.36668 168.178 6.98583C168.535 6.60498 168.998 6.33919 169.507 6.22232C170.016 6.10545 170.548 6.14281 171.036 6.32963C171.523 6.51646 171.944 6.84429 172.245 7.27132C172.546 7.69835 172.712 8.20522 172.724 8.72734C172.737 9.07065 172.681 9.41313 172.558 9.73386C172.434 10.0546 172.247 10.3469 172.007 10.5929C171.768 10.8389 171.48 11.0335 171.163 11.1648C170.845 11.2961 170.504 11.3614 170.161 11.3566L170.205 11.4118ZM146.63 21.4317V17.4215H142.819V22.0946C142.819 23.4202 143.68 24.525 145.868 24.525H159.909V21.8184H147.072C146.95 21.8215 146.831 21.7773 146.74 21.695C146.65 21.6127 146.594 21.4986 146.586 21.3765L146.63 21.4317ZM139.063 15.4662H162.428V12.7486H139.063V15.4662ZM150.751 11.0473C154.694 11.0473 157.92 8.57269 157.931 5.52364C157.942 2.47459 154.694 0 150.751 0C146.807 0 143.559 2.47459 143.559 5.52364C143.559 8.57269 146.796 11.0473 150.751 11.0473ZM150.751 2.59612C152.772 2.59612 154.374 3.91074 154.385 5.4905C154.396 7.07026 152.772 8.37382 150.751 8.37382C148.729 8.37382 147.105 7.05921 147.105 5.4905C147.105 3.92179 148.718 2.574 150.751 2.574V2.59612ZM182.213 0.386662V4.99336H180.6V0.386662H177.286V12.7154H179.142C179.33 12.7298 179.519 12.704 179.696 12.6396C179.873 12.5752 180.035 12.4737 180.17 12.342C180.305 12.2102 180.41 12.0513 180.478 11.8756C180.547 11.7 180.577 11.5117 180.567 11.3235V7.90986H182.18V12.7154H184.047C184.234 12.7282 184.422 12.7011 184.598 12.636C184.774 12.5708 184.934 12.4691 185.067 12.3376C185.201 12.206 185.305 12.0476 185.373 11.8728C185.441 11.698 185.471 11.5107 185.461 11.3235V0.386662H182.213ZM178.093 13.7539C174.215 13.7539 171.044 16.2616 171.033 19.3769C171.022 22.4923 174.215 25 178.093 25C181.97 25 185.141 22.5033 185.152 19.3769C185.163 16.2506 181.981 13.787 178.093 13.776V13.7539ZM178.093 22.3045C177.535 22.2077 177.016 21.9536 176.598 21.5722C176.18 21.1907 175.879 20.6978 175.732 20.1513C175.584 19.6049 175.596 19.0276 175.765 18.4875C175.935 17.9474 176.255 17.4669 176.688 17.1025C177.121 16.7381 177.649 16.505 178.21 16.4306C178.771 16.3562 179.342 16.4436 179.855 16.6825C180.368 16.9214 180.803 17.302 181.107 17.7793C181.411 18.2566 181.573 18.8109 181.573 19.3769C181.499 20.2284 181.092 21.0164 180.44 21.5689C179.789 22.1215 178.945 22.3939 178.093 22.3265V22.3045ZM133.826 0.397686H130.214V16.9023H132.357C132.551 16.915 132.746 16.8865 132.929 16.8186C133.111 16.7507 133.277 16.6449 133.416 16.5082C133.555 16.3715 133.663 16.207 133.734 16.0255C133.804 15.844 133.836 15.6497 133.826 15.4551V8.1971H137.14V5.14804H133.826V0.397686ZM94.056 11.2351H104.661C106.871 11.2351 107.688 10.1304 107.688 8.80468V0.386662H104.231V2.77288H94.5089V0.386662H91.0511V8.83782C91.0622 10.1525 91.9128 11.2461 94.0891 11.2572L94.056 11.2351ZM94.5089 5.42422H104.231V8.1087C104.229 8.17109 104.215 8.23259 104.19 8.28967C104.165 8.34676 104.129 8.39833 104.084 8.44142C104.038 8.48451 103.985 8.51828 103.927 8.54081C103.869 8.56333 103.807 8.57417 103.744 8.5727H95.0281C94.9658 8.57417 94.9037 8.56333 94.8455 8.54081C94.7873 8.51828 94.7341 8.48451 94.689 8.44142C94.6438 8.39833 94.6076 8.34676 94.5824 8.28967C94.5572 8.23259 94.5435 8.17109 94.5421 8.1087L94.5089 5.42422ZM86.5991 16.4715H97.326V24.304H99.6791C99.8976 24.3131 100.115 24.275 100.318 24.1925C100.52 24.1099 100.703 23.9847 100.853 23.8254C101.003 23.6661 101.116 23.4765 101.186 23.2693C101.256 23.0622 101.281 22.8424 101.259 22.6248V16.5046H111.201V13.6986H86.5659L86.5991 16.4715ZM126.325 13.787H126.413L128.026 11.6659L127.861 11.5554C124.856 9.54484 122.514 6.69466 122.514 3.21476V0.894827H118.592V3.31418C118.592 6.94874 115.742 10.3403 113.19 11.9532L113.079 12.0194L114.692 14.1516L114.792 14.0963C117.158 12.7191 119.14 10.7706 120.558 8.42908C121.989 10.6799 123.975 12.525 126.325 13.787Z" fill="#655C4F"/>
</svg>
