<svg width="343" height="145" viewBox="0 0 343 145" fill="none" xmlns="http://www.w3.org/2000/svg">
<rect width="343" height="145" rx="8" fill="#F3F4F8"/>
<path d="M43.528 47.968V54.464H42.464V47.968H43.528ZM33.784 51.356C33.77 49.676 35.114 48.542 36.976 48.556C38.81 48.542 40.14 49.676 40.14 51.356C40.14 52.994 38.81 54.142 36.976 54.128C35.114 54.142 33.77 52.994 33.784 51.356ZM34.82 51.356C34.82 52.448 35.716 53.232 36.976 53.232C38.208 53.232 39.104 52.448 39.104 51.356C39.104 50.236 38.208 49.452 36.976 49.452C35.716 49.452 34.82 50.236 34.82 51.356ZM35.66 59.952V55.08H36.724V56.564H42.464V55.08H43.528V59.952H35.66ZM36.724 59.056H42.464V57.432H36.724V59.056ZM51.2036 48.696V52.112H47.0316V53.988C49.3276 54.002 50.5036 53.946 51.9316 53.68L52.0436 54.576C50.5316 54.828 49.2856 54.87 46.8356 54.884H45.9676V51.272H50.1396V49.564H45.9396V48.696H51.2036ZM47.3396 56.956V56.088H55.5156V60.12H54.4516V56.956H47.3396ZM52.0156 53.176V52.28H54.4516V50.656H52.0156V49.788H54.4516V47.968H55.5156V55.444H54.4516V53.176H52.0156ZM66.8312 47.968V52.98H68.8472V53.876H66.8312V60.12H65.7672V47.968H66.8312ZM57.3392 50.796V49.9H60.4752V48.108H61.5392V49.9H64.5632V50.796H57.3392ZM58.0392 54.604C58.0252 52.952 59.2852 51.804 61.0072 51.804C62.7432 51.804 63.9892 52.952 64.0032 54.604C63.9892 56.242 62.7432 57.39 61.0072 57.376C59.2852 57.39 58.0252 56.242 58.0392 54.604ZM59.0752 54.604C59.0612 55.71 59.8872 56.48 61.0072 56.48C62.1412 56.48 62.9672 55.71 62.9672 54.604C62.9672 53.498 62.1412 52.7 61.0072 52.7C59.8872 52.7 59.0612 53.498 59.0752 54.604ZM79.4068 47.968V56.872H78.3428V47.968H79.4068ZM69.4948 54.268C71.3288 53.568 72.5888 51.79 72.5748 49.872V48.64H73.6668V49.872C73.6668 51.72 74.9268 53.386 76.7468 54.044L76.1868 54.912C74.7728 54.352 73.6668 53.26 73.1348 51.86C72.6028 53.358 71.5108 54.548 70.0828 55.136L69.4948 54.268ZM71.5668 59.84V56.06H72.6308V58.944H79.7988V59.84H71.5668ZM95.0904 47.968V60.12H94.0824V47.968H95.0904ZM84.6744 56.704C87.3204 55.136 88.6504 52.952 88.8464 50.404H85.2344V49.508H89.9104C89.9104 50.138 89.8544 50.754 89.7424 51.356H91.6184V48.276H92.6264V59.504H91.6184V55.276H89.3504V54.38H91.6184V52.224H89.5464C88.9584 54.282 87.6284 56.102 85.3184 57.488L84.6744 56.704ZM100.918 50.124C100.904 51.692 102.164 53.05 103.942 53.596L103.438 54.436C102.024 54.002 100.918 53.064 100.386 51.846C99.84 53.176 98.706 54.184 97.25 54.66L96.718 53.792C98.538 53.232 99.826 51.804 99.826 50.124V49.984H97.082V49.088H103.662V49.984H100.918V50.124ZM96.494 56.648C97.488 56.648 98.65 56.662 99.854 56.62V54.156H100.918V56.592C102.024 56.536 103.144 56.452 104.194 56.312L104.278 57.096C101.646 57.558 98.776 57.558 96.662 57.572L96.494 56.648ZM104.978 60.12V47.968H106.042V53.008H108.03V53.932H106.042V60.12H104.978ZM119.738 57.684V58.608H108.622V57.684H113.606V55.416H109.994V51.664H117.274V49.76H109.966V48.864H118.338V52.532H111.058V54.52H118.618V55.416H114.67V57.684H119.738ZM133.965 47.968V54.912H132.901V47.968H133.965ZM124.221 51.468C124.207 49.76 125.551 48.612 127.413 48.612C129.247 48.612 130.577 49.76 130.577 51.468C130.577 53.12 129.247 54.282 127.413 54.268C125.551 54.282 124.207 53.12 124.221 51.468ZM125.257 51.468C125.257 52.574 126.153 53.372 127.413 53.372C128.645 53.372 129.541 52.574 129.541 51.468C129.541 50.32 128.645 49.522 127.413 49.536C126.153 49.522 125.257 50.32 125.257 51.468ZM126.069 59.952V55.556H133.965V59.952H126.069ZM127.133 59.056H132.901V56.424H127.133V59.056ZM145.561 48.612V49.508C145.561 50.446 145.561 51.566 145.225 53.092H147.017V53.96H135.901V53.092H144.133C144.497 51.566 144.497 50.46 144.497 49.508H137.301V48.612H145.561ZM137.273 59.952V55.64H145.617V59.952H137.273ZM138.309 59.056H144.553V56.508H138.309V59.056ZM157.856 47.968V60.12H156.792V47.968H157.856ZM148.308 53.12C148.308 50.544 149.596 48.906 151.416 48.892C153.208 48.906 154.51 50.544 154.524 53.12C154.51 55.724 153.208 57.362 151.416 57.376C149.596 57.362 148.308 55.724 148.308 53.12ZM149.344 53.12C149.344 55.108 150.184 56.41 151.416 56.396C152.62 56.41 153.46 55.108 153.46 53.12C153.46 51.16 152.62 49.858 151.416 49.844C150.184 49.858 149.344 51.16 149.344 53.12ZM167.52 51.692C167.52 53.75 169.018 55.85 170.796 56.62L170.208 57.46C168.78 56.83 167.562 55.43 166.988 53.75C166.428 55.528 165.196 57.068 163.796 57.768L163.18 56.928C164.916 56.088 166.428 53.792 166.428 51.692V50.096H163.572V49.2H170.404V50.096H167.52V51.692ZM172.112 60.12V47.968H173.176V60.12H172.112ZM177.632 54.912V56.536H183.736V54.912H184.8V59.952H176.568V54.912H177.632ZM175.14 53.82V52.924H183.414C183.736 51.426 183.736 50.334 183.736 49.396H176.54V48.528H184.8V49.396C184.8 50.334 184.8 51.412 184.464 52.924H186.256V53.82H175.14ZM177.632 59.056H183.736V57.376H177.632V59.056ZM197.123 47.968V54.94H196.031V47.968H197.123ZM187.127 53.764C188.163 53.764 189.367 53.764 190.627 53.722V52.42H188.219V48.556H194.015V49.452H189.311V51.552H194.127V52.42H191.691V53.666C192.825 53.61 193.959 53.526 195.023 53.372L195.107 54.156C192.433 54.604 189.479 54.646 187.295 54.66L187.127 53.764ZM189.115 59.952V55.5H190.179V56.788H196.059V55.5H197.123V59.952H189.115ZM190.179 59.056H196.059V57.628H190.179V59.056ZM209.055 47.968V60.12H207.991V47.968H209.055ZM199.843 56.984V49.144H200.907V56.032C202.755 56.046 204.659 55.892 206.703 55.472L206.843 56.368C204.701 56.83 202.769 56.984 200.823 56.984H199.843ZM220.427 47.968V52.756H222.443V53.652H220.427V60.12H219.335V47.968H220.427ZM211.551 57.096V49.144H217.207V50.04H212.615V56.172C214.813 56.172 216.367 56.088 218.159 55.752L218.299 56.676C216.409 57.012 214.813 57.082 212.503 57.096H211.551ZM224.266 59.084C223.776 59.084 223.37 58.678 223.37 58.188C223.37 57.712 223.776 57.32 224.266 57.32C224.742 57.32 225.134 57.712 225.134 58.188C225.134 58.678 224.742 59.084 224.266 59.084Z" fill="#868793"/>
<path d="M43.92 71.312V72.18H34.064V71.312H38.488V69.884H39.552V71.312H43.92ZM33.504 78.62V77.724H44.62V78.62H41.68V82.12H40.616V78.62H37.48V82.12H36.388V78.62H33.504ZM35.072 74.896C35.044 73.594 36.542 72.88 39.02 72.88C41.498 72.88 42.982 73.594 42.996 74.896C42.982 76.17 41.498 76.898 39.02 76.912C36.542 76.898 35.044 76.17 35.072 74.896ZM36.164 74.896C36.164 75.638 37.214 76.072 39.02 76.072C40.826 76.072 41.876 75.638 41.876 74.896C41.876 74.14 40.826 73.706 39.02 73.692C37.214 73.706 36.164 74.14 36.164 74.896ZM55.8236 69.968V82.12H54.8156V75.736H53.0236V81.476H52.0436V70.22H53.0236V74.84H54.8156V69.968H55.8236ZM45.8836 79.096V71.452H50.4476V72.32H46.9756V78.2C48.6556 78.172 49.8036 78.116 51.1476 77.836L51.2316 78.732C49.7896 79.04 48.5436 79.096 46.6676 79.096H45.8836ZM67.4752 69.968V78.872H66.4112V74.224H63.9192V73.328H66.4112V69.968H67.4752ZM57.4512 76.436C59.2572 75.82 60.5592 74.21 60.5592 72.46V71.844H57.8152V70.948H64.3672V71.844H61.6512V72.46C61.6372 74.042 62.8552 75.568 64.6472 76.184L64.0872 77.024C62.7012 76.534 61.6372 75.526 61.1192 74.28C60.5872 75.68 59.4532 76.786 58.0112 77.332L57.4512 76.436ZM59.6912 81.84V78.088H60.7552V80.944H67.8392V81.84H59.6912ZM78.7908 69.968V75.12H80.7508V76.044H78.7908V82.12H77.7268V69.968H78.7908ZM69.2148 78.872C70.2088 78.872 71.3708 78.858 72.5748 78.83V77.5C71.1608 77.318 70.2368 76.506 70.2508 75.288C70.2368 73.916 71.3988 73.02 73.1068 73.02C74.8148 73.02 75.9908 73.916 75.9908 75.288C75.9908 76.506 75.0528 77.318 73.6388 77.5V78.788C74.7728 78.732 75.9068 78.634 76.9708 78.48L77.0548 79.292C74.3948 79.754 71.5248 79.782 69.4108 79.768L69.2148 78.872ZM69.4388 72.32V71.452H72.5748V69.968H73.6388V71.452H76.7748V72.32H69.4388ZM71.2588 75.288C71.2448 76.128 71.9868 76.674 73.1068 76.66C74.2268 76.674 74.9688 76.128 74.9828 75.288C74.9688 74.434 74.2268 73.86 73.1068 73.86C71.9868 73.86 71.2448 74.434 71.2588 75.288ZM87.2224 70.444V71.984H93.2424V70.444H94.3344V75.316H90.7504V76.604H95.7624V77.5H84.7024V76.604H89.6864V75.316H86.1584V70.444H87.2224ZM86.1304 81.84V78.452H87.1944V80.944H94.5304V81.84H86.1304ZM87.2224 74.448H93.2424V72.852H87.2224V74.448ZM106.686 69.968V78.844H105.622V69.968H106.686ZM96.942 73.804C96.928 72.04 98.3 70.822 100.134 70.808C101.94 70.822 103.298 72.04 103.298 73.804C103.298 75.568 101.94 76.8 100.134 76.772C98.3 76.8 96.928 75.568 96.942 73.804ZM97.978 73.804C97.978 75.008 98.888 75.848 100.134 75.848C101.324 75.848 102.262 75.008 102.262 73.804C102.262 72.614 101.324 71.76 100.134 71.76C98.888 71.76 97.978 72.614 97.978 73.804ZM98.846 81.84V77.948H99.91V80.944H107.078V81.84H98.846ZM118.646 69.968V78.844H117.582V69.968H118.646ZM108.902 73.804C108.888 72.04 110.26 70.822 112.094 70.808C113.9 70.822 115.258 72.04 115.258 73.804C115.258 75.568 113.9 76.8 112.094 76.772C110.26 76.8 108.888 75.568 108.902 73.804ZM109.938 73.804C109.938 75.008 110.848 75.848 112.094 75.848C113.284 75.848 114.222 75.008 114.222 73.804C114.222 72.614 113.284 71.76 112.094 71.76C110.848 71.76 109.938 72.614 109.938 73.804ZM110.806 81.84V77.948H111.87V80.944H119.038V81.84H110.806ZM131.641 75.736V76.632H120.581V75.736H131.641ZM121.197 74.168C123.311 73.902 125.355 72.852 125.425 71.48H121.589V70.584H130.661V71.48H126.797C126.853 72.852 128.869 73.902 131.025 74.168L130.633 75.008C128.645 74.756 126.783 73.874 126.111 72.53C125.439 73.874 123.577 74.756 121.589 75.008L121.197 74.168ZM121.897 79.908C121.911 78.494 123.479 77.696 126.097 77.696C128.715 77.696 130.283 78.494 130.297 79.908C130.283 81.294 128.715 82.078 126.097 82.092C123.479 82.078 121.911 81.294 121.897 79.908ZM122.989 79.908C122.989 80.734 124.151 81.224 126.097 81.224C128.029 81.224 129.205 80.734 129.205 79.908C129.205 79.04 128.029 78.55 126.097 78.536C124.151 78.55 122.989 79.04 122.989 79.908ZM138.057 70.164C140.773 70.178 142.355 70.92 142.341 72.264C142.355 73.636 140.773 74.392 138.057 74.392C135.355 74.392 133.759 73.636 133.745 72.264C133.759 70.92 135.355 70.178 138.057 70.164ZM132.541 76.1V75.232H143.601V76.1H132.541ZM133.885 77.976V77.136H142.173V79.852H134.949V81.112H142.537V81.98H133.913V79.068H141.137V77.976H133.885ZM134.893 72.264C134.865 73.104 136.055 73.58 138.057 73.58C140.087 73.58 141.263 73.104 141.249 72.264C141.263 71.466 140.087 70.99 138.057 70.976C136.055 70.99 134.865 71.466 134.893 72.264ZM158.92 76.408V77.276H147.832V76.408H152.844V75.204H149.316V70.304H157.548V71.172H150.38V72.32H157.212V73.132H150.38V74.336H157.604V75.204H153.908V76.408H158.92ZM149.176 80.132C149.19 78.872 150.688 78.186 153.376 78.2C156.05 78.186 157.562 78.872 157.576 80.132C157.562 81.42 156.05 82.078 153.376 82.092C150.688 82.078 149.19 81.42 149.176 80.132ZM150.268 80.132C150.254 80.874 151.374 81.266 153.376 81.252C155.378 81.266 156.484 80.874 156.484 80.132C156.484 79.418 155.378 79.012 153.376 79.012C151.374 79.012 150.254 79.418 150.268 80.132ZM165.868 72.068V72.936H159.792V72.068H162.312V70.332H163.376V72.068H165.868ZM160.212 76.52C160.212 74.896 161.318 73.762 162.844 73.748C164.356 73.762 165.462 74.896 165.476 76.52C165.462 78.144 164.356 79.292 162.844 79.292C161.318 79.292 160.212 78.144 160.212 76.52ZM161.164 76.52C161.178 77.598 161.864 78.368 162.844 78.368C163.796 78.368 164.51 77.598 164.496 76.52C164.51 75.456 163.796 74.672 162.844 74.644C161.864 74.672 161.178 75.456 161.164 76.52ZM166.512 81.504V70.248H167.52V75.092H169.144V69.968H170.152V82.12H169.144V75.96H167.52V81.504H166.512ZM184.604 69.968V73.636H186.424V74.532H184.604V78.116H183.54V69.968H184.604ZM175.084 76.884C176.05 76.884 177.17 76.87 178.36 76.828V75.932C176.946 75.806 176.036 75.148 176.036 74.168C176.036 73.048 177.184 72.362 178.892 72.376C180.614 72.362 181.734 73.048 181.748 74.168C181.734 75.148 180.852 75.806 179.452 75.932V76.786C180.586 76.73 181.72 76.646 182.784 76.492L182.868 77.276C180.25 77.738 177.338 77.752 175.196 77.752L175.084 76.884ZM175.392 71.9V71.06H178.36V69.856H179.452V71.06H182.42V71.9H175.392ZM176.568 79.572V78.732H184.604V82.12H183.54V79.572H176.568ZM177.072 74.168C177.058 74.784 177.772 75.218 178.892 75.204C180.012 75.218 180.712 74.784 180.712 74.168C180.712 73.51 180.012 73.104 178.892 73.132C177.772 73.104 177.058 73.51 177.072 74.168ZM197.123 69.968V78.844H196.059V69.968H197.123ZM187.379 73.804C187.365 72.04 188.737 70.822 190.571 70.808C192.377 70.822 193.735 72.04 193.735 73.804C193.735 75.568 192.377 76.8 190.571 76.772C188.737 76.8 187.365 75.568 187.379 73.804ZM188.415 73.804C188.415 75.008 189.325 75.848 190.571 75.848C191.761 75.848 192.699 75.008 192.699 73.804C192.699 72.614 191.761 71.76 190.571 71.76C189.325 71.76 188.415 72.614 188.415 73.804ZM189.283 81.84V77.948H190.347V80.944H197.515V81.84H189.283ZM208.551 69.968V73.972H210.371V74.868H208.551V79.068H207.487V69.968H208.551ZM199.087 72.348V71.452H202.167V69.968H203.231V71.452H206.311V72.348H199.087ZM199.787 75.288C199.759 73.888 200.949 73.006 202.699 72.992C204.435 73.006 205.611 73.888 205.611 75.288C205.611 76.646 204.435 77.514 202.699 77.528C200.949 77.514 199.759 76.646 199.787 75.288ZM200.795 75.288C200.795 76.128 201.551 76.674 202.699 76.66C203.833 76.674 204.603 76.128 204.603 75.288C204.603 74.406 203.833 73.846 202.699 73.832C201.551 73.846 200.795 74.406 200.795 75.288ZM200.935 81.84V78.34H201.999V80.944H209.111V81.84H200.935ZM224.375 69.968V76.268H223.339V69.968H224.375ZM214.463 75.288C216.283 74.644 217.585 73.02 217.571 71.256V70.304H218.663V71.256C218.663 72.95 219.979 74.476 221.771 75.064L221.239 75.904C219.825 75.414 218.691 74.392 218.131 73.09C217.599 74.504 216.465 75.61 215.023 76.128L214.463 75.288ZM216.507 77.724V76.884H224.403V79.768H217.571V81.084H224.851V81.98H216.535V78.956H223.339V77.724H216.507ZM236.39 69.968V77.164H235.326V75.232H232.47V76.268H226.898V70.892H232.47V71.928H235.326V69.968H236.39ZM227.962 75.4H231.434V71.76H227.962V75.4ZM228.298 79.824C228.284 78.354 229.838 77.514 232.358 77.5C234.892 77.514 236.446 78.354 236.446 79.824C236.446 81.266 234.892 82.078 232.358 82.092C229.838 82.078 228.284 81.266 228.298 79.824ZM229.362 79.824C229.348 80.692 230.51 81.238 232.358 81.224C234.22 81.238 235.382 80.692 235.382 79.824C235.382 78.886 234.22 78.354 232.358 78.34C230.51 78.354 229.348 78.886 229.362 79.824ZM232.47 74.336H235.326V72.824H232.47V74.336ZM245.018 71.312V71.928C245.018 72.894 245.018 74.504 244.682 76.744L243.59 76.66C243.926 74.63 243.954 73.16 243.954 72.18H238.858V71.312H245.018ZM238.158 78.536C238.956 78.536 239.852 78.522 240.79 78.494V74.784H241.854V78.466C243.198 78.41 244.57 78.326 245.83 78.172L245.886 78.984C243.338 79.39 240.468 79.446 238.298 79.432L238.158 78.536ZM246.586 82.12V69.968H247.678V75.036H249.638V75.96H247.678V82.12H246.586ZM264.033 69.968V82.12H262.997V69.968H264.033ZM253.757 75.204C253.757 72.614 254.779 70.99 256.361 70.976C257.397 70.99 258.209 71.69 258.643 72.908H260.589V70.22H261.597V81.504H260.589V77.5H258.643C258.209 78.718 257.397 79.432 256.361 79.432C254.779 79.432 253.757 77.794 253.757 75.204ZM254.765 75.204C254.751 77.178 255.367 78.424 256.361 78.396C257.355 78.424 257.999 77.178 257.985 75.204C257.999 73.23 257.355 71.984 256.361 71.984C255.367 71.984 254.751 73.23 254.765 75.204ZM258.867 76.604H260.589V73.804H258.867C258.951 74.224 258.993 74.7 258.993 75.204C258.993 75.708 258.951 76.17 258.867 76.604ZM275.237 70.612V71.508C275.237 72.446 275.237 73.566 274.901 75.092H276.693V75.96H265.577V75.092H273.809C274.173 73.566 274.173 72.46 274.173 71.508H266.977V70.612H275.237ZM266.949 81.952V77.64H275.293V81.952H266.949ZM267.985 81.056H274.229V78.508H267.985V81.056ZM283.669 71.676C283.655 73.3 285.825 74.686 287.953 75.008L287.533 75.848C285.643 75.526 283.809 74.518 283.067 73.062C282.311 74.518 280.477 75.526 278.601 75.848L278.181 75.008C280.295 74.686 282.451 73.3 282.465 71.676V71.592H278.573V70.724H287.533V71.592H283.669V71.676ZM277.537 77.78V76.884H288.597V77.78H283.557V82.092H282.521V77.78H277.537ZM293.472 70.836C295.376 70.85 296.72 72.012 296.748 73.692C296.72 75.386 295.376 76.548 293.472 76.548C291.54 76.548 290.168 75.386 290.168 73.692C290.168 72.012 291.54 70.85 293.472 70.836ZM289.552 78.536C291.792 78.55 294.886 78.522 297.588 78.116L297.672 78.928C294.886 79.446 291.89 79.46 289.692 79.46L289.552 78.536ZM291.232 73.692C291.232 74.826 292.17 75.61 293.472 75.624C294.746 75.61 295.684 74.826 295.684 73.692C295.684 72.572 294.746 71.788 293.472 71.788C292.17 71.788 291.232 72.572 291.232 73.692ZM298.372 82.12V69.968H299.464V82.12H298.372ZM43.5 87.968V100.12H42.436V87.968H43.5ZM33.952 93.12C33.952 90.544 35.24 88.906 37.06 88.892C38.852 88.906 40.154 90.544 40.168 93.12C40.154 95.724 38.852 97.362 37.06 97.376C35.24 97.362 33.952 95.724 33.952 93.12ZM34.988 93.12C34.988 95.108 35.828 96.41 37.06 96.396C38.264 96.41 39.104 95.108 39.104 93.12C39.104 91.16 38.264 89.858 37.06 89.844C35.828 89.858 34.988 91.16 34.988 93.12ZM56.5516 94.24V95.108H45.4356V94.24H56.5516ZM46.8356 89.116V88.248H55.1236V91.132H47.9556V92.336H55.4036V93.176H46.8916V90.32H54.0596V89.116H46.8356ZM46.9476 99.952V96.228H55.1236V99.952H46.9476ZM48.0116 99.056H54.0876V97.096H48.0116V99.056ZM67.4192 87.968V100.12H66.3552V87.968H67.4192ZM57.8712 93.12C57.8712 90.544 59.1592 88.906 60.9792 88.892C62.7712 88.906 64.0732 90.544 64.0872 93.12C64.0732 95.724 62.7712 97.362 60.9792 97.376C59.1592 97.362 57.8712 95.724 57.8712 93.12ZM58.9072 93.12C58.9072 95.108 59.7472 96.41 60.9792 96.396C62.1832 96.41 63.0232 95.108 63.0232 93.12C63.0232 91.16 62.1832 89.858 60.9792 89.844C59.7472 89.858 58.9072 91.16 58.9072 93.12ZM83.8308 93.96V94.828H72.7428V93.96H77.7548V92.532H74.1428V88.528H82.4308V89.396H75.2068V91.664H82.5148V92.532H78.7908V93.96H83.8308ZM74.0588 97.908C74.0728 96.522 75.6408 95.724 78.2588 95.724C80.8768 95.724 82.4448 96.522 82.4588 97.908C82.4448 99.308 80.8768 100.092 78.2588 100.092C75.6408 100.092 74.0728 99.308 74.0588 97.908ZM75.1508 97.908C75.1508 98.762 76.3128 99.252 78.2588 99.252C80.1908 99.252 81.3668 98.762 81.3668 97.908C81.3668 97.068 80.1908 96.564 78.2588 96.564C76.3128 96.564 75.1508 97.068 75.1508 97.908ZM88.1464 88.416C89.9524 88.416 91.2824 89.522 91.2824 91.104C91.2824 92.686 89.9524 93.778 88.1464 93.792C86.2984 93.778 84.9684 92.686 84.9824 91.104C84.9684 89.522 86.2984 88.416 88.1464 88.416ZM86.0184 91.104C86.0184 92.168 86.9144 92.896 88.1464 92.896C89.3364 92.896 90.2464 92.168 90.2464 91.104C90.2464 90.04 89.3364 89.298 88.1464 89.312C86.9144 89.298 86.0184 90.04 86.0184 91.104ZM86.8304 95.668V94.772H94.7264V97.712H87.8944V99.084H95.1744V99.952H86.8584V96.9H93.6624V95.668H86.8304ZM93.6624 94.184V87.968H94.7264V94.184H93.6624ZM102.71 90.068V90.936H96.634V90.068H99.154V88.332H100.218V90.068H102.71ZM97.054 94.52C97.054 92.896 98.16 91.762 99.686 91.748C101.198 91.762 102.304 92.896 102.318 94.52C102.304 96.144 101.198 97.292 99.686 97.292C98.16 97.292 97.054 96.144 97.054 94.52ZM98.006 94.52C98.02 95.598 98.706 96.368 99.686 96.368C100.638 96.368 101.352 95.598 101.338 94.52C101.352 93.456 100.638 92.672 99.686 92.644C98.706 92.672 98.02 93.456 98.006 94.52ZM103.354 99.504V88.248H104.362V93.092H105.986V87.968H106.994V100.12H105.986V93.96H104.362V99.504H103.354ZM111.87 88.892C113.662 88.906 114.922 90.544 114.922 93.12C114.922 95.724 113.662 97.362 111.87 97.376C110.064 97.362 108.79 95.724 108.818 93.12C108.79 90.544 110.064 88.906 111.87 88.892ZM109.826 93.12C109.826 95.108 110.666 96.41 111.87 96.396C113.074 96.41 113.9 95.108 113.886 93.12C113.9 91.16 113.074 89.858 111.87 89.844C110.666 89.858 109.826 91.16 109.826 93.12ZM116.938 100.12V87.968H118.03V91.02H119.99V91.944H118.03V94.632H119.99V95.528H118.03V100.12H116.938ZM133.433 87.968V91.076H135.253V91.972H133.433V95.024H132.369V87.968H133.433ZM123.969 90.096V89.228H127.049V87.856H128.113V89.228H131.193V90.096H123.969ZM124.669 92.784C124.641 91.496 125.817 90.67 127.581 90.656C129.331 90.67 130.493 91.496 130.493 92.784C130.493 94.086 129.331 94.926 127.581 94.912C125.817 94.926 124.641 94.086 124.669 92.784ZM125.677 92.784C125.677 93.582 126.433 94.114 127.581 94.1C128.715 94.114 129.485 93.582 129.485 92.784C129.485 92.014 128.715 91.482 127.581 91.496C126.433 91.482 125.677 92.014 125.677 92.784ZM125.761 99.952V95.556H126.825V96.844H132.369V95.556H133.433V99.952H125.761ZM126.825 99.084H132.369V97.712H126.825V99.084ZM145.897 87.968V100.12H144.833V87.968H145.897ZM136.685 96.984V89.144H137.749V96.032C139.597 96.046 141.501 95.892 143.545 95.472L143.685 96.368C141.543 96.83 139.611 96.984 137.665 96.984H136.685ZM157.268 87.968V92.756H159.284V93.652H157.268V100.12H156.176V87.968H157.268ZM148.392 97.096V89.144H154.048V90.04H149.456V96.172C151.654 96.172 153.208 96.088 155 95.752L155.14 96.676C153.25 97.012 151.654 97.082 149.344 97.096H148.392ZM161.108 99.084C160.618 99.084 160.212 98.678 160.212 98.188C160.212 97.712 160.618 97.32 161.108 97.32C161.584 97.32 161.976 97.712 161.976 98.188C161.976 98.678 161.584 99.084 161.108 99.084Z" fill="#868793"/>
<path d="M43.864 109.968V122.12H42.828V115.736H41.12V121.504H40.112V110.276H41.12V114.868H42.828V109.968H43.864ZM33.504 118.732C36.332 117.15 37.508 114.938 37.676 112.432H33.98V111.536H38.712C38.712 114.63 37.634 117.542 34.12 119.488L33.504 118.732ZM55.4876 109.968V118.844H54.4236V109.968H55.4876ZM45.7436 113.804C45.7296 112.04 47.1016 110.822 48.9356 110.808C50.7416 110.822 52.0996 112.04 52.0996 113.804C52.0996 115.568 50.7416 116.8 48.9356 116.772C47.1016 116.8 45.7296 115.568 45.7436 113.804ZM46.7796 113.804C46.7796 115.008 47.6896 115.848 48.9356 115.848C50.1256 115.848 51.0636 115.008 51.0636 113.804C51.0636 112.614 50.1256 111.76 48.9356 111.76C47.6896 111.76 46.7796 112.614 46.7796 113.804ZM47.6476 121.84V117.948H48.7116V120.944H55.8796V121.84H47.6476ZM61.4832 113.216C61.4832 115.358 62.8972 117.57 64.6472 118.424L63.9752 119.292C62.6312 118.578 61.5252 117.15 60.9792 115.456C60.4332 117.248 59.2852 118.774 57.9272 119.516L57.2272 118.648C59.0052 117.766 60.4192 115.442 60.4192 113.216V111.004H61.4832V113.216ZM65.7392 122.12V109.968H66.8312V114.896H68.8472V115.82H66.8312V122.12H65.7392ZM72.7148 110.528C74.3528 110.514 75.5988 111.466 75.8228 112.88H78.3708V109.968H79.4348V116.464H78.3708V113.748H75.8228C75.6128 115.19 74.3668 116.142 72.7148 116.156C70.8668 116.142 69.5508 114.994 69.5788 113.328C69.5508 111.676 70.8668 110.514 72.7148 110.528ZM70.5868 113.328C70.5868 114.434 71.4688 115.232 72.7148 115.232C73.9468 115.232 74.8288 114.434 74.8148 113.328C74.8288 112.208 73.9468 111.424 72.7148 111.424C71.4688 111.424 70.5868 112.208 70.5868 113.328ZM71.6228 121.952V117.08H72.6868V118.62H78.3708V117.08H79.4348V121.952H71.6228ZM72.6868 121.056H78.3708V119.488H72.6868V121.056ZM85.4304 113.692C85.4304 115.638 86.8444 117.78 88.5944 118.62L87.9784 119.46C86.6204 118.802 85.4584 117.36 84.9264 115.722C84.3664 117.5 83.1344 119.068 81.7624 119.768L81.1184 118.928C82.8824 118.074 84.3804 115.764 84.3944 113.692V112.096H81.5664V111.2H88.1744V112.096H85.4304V113.692ZM89.6584 122.12V109.968H90.7504V114.868H92.7664V115.792H90.7504V122.12H89.6584ZM107.722 116.408V117.276H96.634V116.408H101.646V115.204H98.118V110.304H106.35V111.172H99.182V112.32H106.014V113.132H99.182V114.336H106.406V115.204H102.71V116.408H107.722ZM97.978 120.132C97.992 118.872 99.49 118.186 102.178 118.2C104.852 118.186 106.364 118.872 106.378 120.132C106.364 121.42 104.852 122.078 102.178 122.092C99.49 122.078 97.992 121.42 97.978 120.132ZM99.07 120.132C99.056 120.874 100.176 121.266 102.178 121.252C104.18 121.266 105.286 120.874 105.286 120.132C105.286 119.418 104.18 119.012 102.178 119.012C100.176 119.012 99.056 119.418 99.07 120.132ZM112.738 112.264C112.724 113.86 113.914 115.274 115.706 115.876L115.202 116.716C113.802 116.24 112.752 115.274 112.22 114.07C111.702 115.456 110.568 116.534 109.126 117.052L108.566 116.212C110.386 115.582 111.66 114.014 111.674 112.264V111.76H108.902V110.864H115.454V111.76H112.738V112.264ZM110.19 119.852C110.19 118.438 111.716 117.626 114.222 117.612C116.714 117.626 118.226 118.438 118.226 119.852C118.226 121.266 116.714 122.078 114.222 122.092C111.716 122.078 110.19 121.266 110.19 119.852ZM111.254 119.852C111.254 120.706 112.388 121.224 114.222 121.224C116.056 121.224 117.176 120.706 117.19 119.852C117.176 118.984 116.056 118.48 114.222 118.48C112.388 118.48 111.254 118.984 111.254 119.852ZM117.05 117.304V109.968H118.114V113.076H119.934V113.972H118.114V117.304H117.05ZM131.641 116.38V117.248H120.581V116.38H131.641ZM121.785 112.796C121.799 111.27 123.465 110.374 126.097 110.388C128.715 110.374 130.395 111.27 130.381 112.796C130.395 114.308 128.715 115.218 126.097 115.232C123.465 115.218 121.799 114.308 121.785 112.796ZM122.009 121.84V118.312H123.073V120.944H130.409V121.84H122.009ZM122.905 112.796C122.905 113.762 124.151 114.336 126.097 114.336C128.057 114.336 129.303 113.762 129.289 112.796C129.303 111.844 128.057 111.256 126.097 111.256C124.151 111.256 122.905 111.844 122.905 112.796ZM139.961 113.216C139.961 115.358 141.375 117.57 143.125 118.424L142.453 119.292C141.109 118.578 140.003 117.15 139.457 115.456C138.911 117.248 137.763 118.774 136.405 119.516L135.705 118.648C137.483 117.766 138.897 115.442 138.897 113.216V111.004H139.961V113.216ZM144.217 122.12V109.968H145.309V114.896H147.325V115.82H145.309V122.12H144.217ZM158.92 115.96V116.856H147.86V115.96H150.604V114.252C149.624 113.874 149.078 113.258 149.064 112.432C149.078 111.018 150.716 110.192 153.376 110.192C156.022 110.192 157.674 111.018 157.66 112.432C157.674 113.244 157.128 113.86 156.176 114.238V115.96H158.92ZM149.176 119.936C149.19 118.55 150.744 117.78 153.376 117.78C155.994 117.78 157.562 118.55 157.576 119.936C157.562 121.322 155.994 122.078 153.376 122.092C150.744 122.078 149.19 121.322 149.176 119.936ZM150.184 112.432C150.184 113.328 151.402 113.846 153.376 113.832C155.35 113.846 156.582 113.328 156.568 112.432C156.582 111.564 155.35 111.032 153.376 111.032C151.402 111.032 150.184 111.564 150.184 112.432ZM150.268 119.936C150.268 120.762 151.43 121.252 153.376 121.252C155.308 121.252 156.484 120.762 156.484 119.936C156.484 119.11 155.308 118.62 153.376 118.62C151.43 118.62 150.268 119.11 150.268 119.936ZM151.668 115.96H155.112V114.532C154.594 114.63 154.02 114.672 153.376 114.672C152.746 114.672 152.172 114.63 151.668 114.532V115.96ZM169.312 109.912V112.88H171.16V113.748H169.312V116.632H168.248V109.912H169.312ZM159.848 111.928V111.06H162.928V109.828H163.992V111.06H167.072V111.928H159.848ZM160.548 114.476C160.52 113.23 161.682 112.474 163.46 112.46C165.224 112.474 166.372 113.23 166.372 114.476C166.372 115.708 165.224 116.45 163.46 116.464C161.682 116.45 160.52 115.708 160.548 114.476ZM161.556 118.088V117.276H169.312V119.964H162.648V121.14H169.76V121.98H161.584V119.18H168.248V118.088H161.556ZM161.556 114.476C161.556 115.204 162.298 115.652 163.46 115.652C164.608 115.652 165.364 115.204 165.364 114.476C165.364 113.734 164.608 113.272 163.46 113.272C162.298 113.272 161.556 113.734 161.556 114.476ZM181.216 111.088C181.23 112.796 183.47 114.28 185.668 114.588L185.22 115.456C183.33 115.148 181.468 114.098 180.684 112.614C179.9 114.112 178.038 115.148 176.148 115.456L175.7 114.588C177.898 114.28 180.124 112.824 180.124 111.088V110.388H181.216V111.088ZM175.14 117.696V116.8H186.2V117.696H181.16V122.12H180.124V117.696H175.14ZM192.867 117.08V118.592H195.079V117.08H196.087V121.952H191.859V117.08H192.867ZM190.655 113.3C190.627 111.634 191.943 110.5 193.791 110.5C195.415 110.5 196.661 111.424 196.885 112.824H199.447V109.968H200.511V116.408H199.447V113.72H196.899C196.689 115.148 195.443 116.086 193.791 116.1C191.943 116.086 190.627 114.952 190.655 113.3ZM191.663 113.3C191.663 114.406 192.545 115.204 193.791 115.204C195.023 115.204 195.905 114.406 195.891 113.3C195.905 112.18 195.023 111.396 193.791 111.396C192.545 111.396 191.663 112.18 191.663 113.3ZM192.867 121.084H195.079V119.432H192.867V121.084ZM196.227 121.224C197.711 120.608 198.481 119.278 198.495 118.032V116.996H199.559V118.032C199.531 119.334 200.315 120.678 201.799 121.224L201.239 122.036C200.119 121.588 199.377 120.734 199.013 119.726C198.621 120.72 197.879 121.574 196.787 122.036L196.227 121.224ZM204.883 117.248V118.676H210.959V117.248H212.051V121.952H203.819V117.248H204.883ZM202.419 116.408V115.512H213.479V116.408H202.419ZM203.035 113.776C205.205 113.482 207.403 112.208 207.403 110.668V110.08H208.495V110.668C208.495 112.166 210.707 113.51 212.863 113.776L212.443 114.644C210.581 114.35 208.733 113.398 207.949 112.054C207.179 113.412 205.331 114.35 203.455 114.644L203.035 113.776ZM204.883 121.084H210.959V119.516H204.883V121.084ZM224.375 109.968V122.12H223.311V109.968H224.375ZM215.163 118.984V111.144H216.227V118.032C218.075 118.046 219.979 117.892 222.023 117.472L222.163 118.368C220.021 118.83 218.089 118.984 216.143 118.984H215.163ZM235.746 109.968V114.756H237.762V115.652H235.746V122.12H234.654V109.968H235.746ZM226.87 119.096V111.144H232.526V112.04H227.934V118.172C230.132 118.172 231.686 118.088 233.478 117.752L233.618 118.676C231.728 119.012 230.132 119.082 227.822 119.096H226.87ZM239.586 121.084C239.096 121.084 238.69 120.678 238.69 120.188C238.69 119.712 239.096 119.32 239.586 119.32C240.062 119.32 240.454 119.712 240.454 120.188C240.454 120.678 240.062 121.084 239.586 121.084Z" fill="#868793"/>
<circle cx="22" cy="76" r="2" fill="#A7A9B4"/>
<circle cx="22" cy="116" r="2" fill="#A7A9B4"/>
<circle cx="22" cy="54" r="2" fill="#A7A9B4"/>
<path d="M50.7051 22.8574V29.4883H49.1738V22.8574H50.7051ZM40.6289 26.3027C40.6289 24.5869 42.0508 23.3975 43.9648 23.4043C45.8721 23.3975 47.2939 24.5869 47.2871 26.3027C47.2939 27.9912 45.8721 29.1807 43.9648 29.1738C42.0508 29.1807 40.6289 27.9912 40.6289 26.3027ZM42.1191 26.3027C42.1123 27.2939 42.8848 27.9229 43.9648 27.9297C45.0244 27.9229 45.7969 27.2939 45.7969 26.3027C45.7969 25.3115 45.0244 24.6689 43.9648 24.6758C42.8848 24.6689 42.1123 25.3115 42.1191 26.3027ZM42.5293 35.0664V30.0625H44.0332V31.334H49.1875V30.0625H50.7051V35.0664H42.5293ZM44.0332 33.8359H49.1875V32.5234H44.0332V33.8359ZM58.276 23.5957V27.3145H54.3795V28.832C56.3688 28.832 57.4967 28.7773 58.8092 28.5312L58.9596 29.7617C57.483 30.0146 56.2047 30.0488 53.778 30.0488H52.8756V26.1797H56.7584V24.7988H52.8483V23.5957H58.276ZM54.2702 32.2773V31.0605H62.7194V35.2168H61.2018V32.2773H54.2702ZM59.0143 28.4355V27.2188H61.2018V25.8379H59.0143V24.6211H61.2018V22.8711H62.7194V30.4727H61.2018V28.4355H59.0143ZM77.8612 22.8711V31.8945H76.3437V27.3691H74.1562V26.1387H76.3437V22.8711H77.8612ZM67.4843 29.2285C69.453 28.5791 70.5058 26.9658 70.5058 25.3184V24.9902H67.9355V23.7598H74.6073V24.9902H72.0507V25.332C72.0507 26.8154 73.0487 28.3535 74.9628 28.9824L74.1972 30.1992C72.8163 29.7275 71.8388 28.7842 71.2987 27.6152C70.7587 28.9141 69.7265 29.9531 68.2636 30.459L67.4843 29.2285ZM69.7538 34.9707V31.1016H71.2714V33.7402H78.1757V34.9707H69.7538ZM81.8775 33.0293L80.7291 36.8574H79.4302L80.1412 33.0293H81.8775ZM95.8709 22.8711V26.4668H97.5389V27.7246H95.8709V31.2246H94.3534V22.8711H95.8709ZM85.9725 29.748C86.9022 29.748 87.9754 29.7412 89.0897 29.7139V28.9551C87.7157 28.7842 86.8407 28.1211 86.8475 27.1504C86.8407 26.0088 88.037 25.3115 89.828 25.3184C91.6258 25.3115 92.8084 26.0088 92.8084 27.1504C92.8084 28.1143 91.9608 28.7705 90.6073 28.9482V29.6592C91.66 29.6045 92.7196 29.5225 93.7108 29.3926L93.8338 30.4453C91.202 30.9102 88.3104 30.9375 86.1366 30.9375L85.9725 29.748ZM86.287 24.9629V23.8418H89.0897V22.7617H90.6073V23.8418H93.3827V24.9629H86.287ZM87.5311 32.9473V31.7578H95.8709V35.2168H94.3534V32.9473H87.5311ZM88.3104 27.1504C88.2967 27.6631 88.8709 27.9844 89.828 27.9707C90.785 27.9844 91.3592 27.6631 91.3592 27.1504C91.3592 26.6104 90.785 26.3369 89.828 26.3438C88.8709 26.3369 88.2967 26.6104 88.3104 27.1504ZM108.336 22.8711V31.7988H106.805V22.8711H108.336ZM98.2602 26.7676C98.2602 24.9697 99.7163 23.6846 101.596 23.6777C103.476 23.6846 104.925 24.9697 104.918 26.7676C104.925 28.5928 103.476 29.8711 101.596 29.8711C99.7163 29.8711 98.2602 28.5928 98.2602 26.7676ZM99.7505 26.7676C99.7436 27.8613 100.537 28.5449 101.596 28.5449C102.628 28.5449 103.428 27.8613 103.428 26.7676C103.428 25.7012 102.628 25.0039 101.596 25.0039C100.537 25.0039 99.7436 25.7012 99.7505 26.7676ZM100.161 34.9707V30.8965H101.692V33.7402H108.678V34.9707H100.161ZM116.03 24.8262V26.043H109.974V24.8262H112.271V23.2129H113.775V24.8262H116.03ZM110.329 29.5703C110.316 27.8887 111.457 26.6924 113.023 26.6992C114.595 26.6924 115.716 27.8887 115.716 29.5703C115.716 31.2861 114.595 32.4824 113.023 32.4824C111.457 32.4824 110.316 31.2861 110.329 29.5703ZM111.669 29.5703C111.662 30.5684 112.223 31.1904 113.023 31.1836C113.816 31.1904 114.376 30.5684 114.376 29.5703C114.376 28.5996 113.816 27.957 113.023 27.957C112.223 27.957 111.662 28.5996 111.669 29.5703ZM116.55 34.6562V23.1172H117.972V27.9434H119.175V22.8574H120.624V35.2168H119.175V29.1738H117.972V34.6562H116.55ZM136.409 29.748V30.9785H131.5V35.2031H129.996V30.9785H125.143V29.748H136.409ZM125.731 27.7246C128.158 27.417 129.785 26.1113 129.894 24.7578H126.182V23.5547H135.37V24.7578H131.658C131.76 26.1113 133.373 27.417 135.821 27.7246L135.274 28.9141C133.168 28.6133 131.528 27.6494 130.776 26.3164C130.017 27.6494 128.39 28.6133 126.305 28.9141L125.731 27.7246ZM140.958 26.0977C140.965 28.0938 141.648 30.1719 143.323 31.2246L142.489 32.3867C141.375 31.7168 140.65 30.5684 140.24 29.2217C139.796 30.7051 139.003 31.9629 137.841 32.6738L136.897 31.5391C138.695 30.4521 139.488 28.2715 139.495 26.166V23.9512H140.958V26.0977ZM141.997 28.3672V27.1094H143.761V23.0762H145.196V34.6152H143.761V28.3672H141.997ZM146.304 35.2168V22.8574H147.767V35.2168H146.304ZM160.355 32.4688V33.7129H149.062V32.4688H151.674V29.3447C150.689 28.7773 150.094 27.8887 150.101 26.7949C150.094 24.8262 152.022 23.5273 154.681 23.5273C157.354 23.5273 159.296 24.8262 159.289 26.7949C159.296 27.875 158.715 28.7432 157.757 29.3105V32.4688H160.355ZM151.591 26.7949C151.585 28.0596 152.836 28.8662 154.681 28.8594C156.52 28.8662 157.799 28.0596 157.799 26.7949C157.799 25.5098 156.52 24.7236 154.681 24.7305C152.836 24.7236 151.585 25.5098 151.591 26.7949ZM153.177 32.4688H156.213V29.8916C155.741 29.9941 155.228 30.0488 154.681 30.0488C154.148 30.0488 153.642 29.9941 153.177 29.8984V32.4688ZM163.565 24.1016L163.414 31.0879H161.869L161.705 24.1016H163.565ZM161.582 33.043C161.576 32.4688 162.061 31.9971 162.649 31.9902C163.216 31.9971 163.701 32.4688 163.701 33.043C163.701 33.6309 163.216 34.1094 162.649 34.1094C162.061 34.1094 161.576 33.6309 161.582 33.043Z" fill="#3971FF"/>
<circle cx="28" cy="29" r="7" fill="#3971FF"/>
<path d="M28.791 24.5156L28.6621 30.5039H27.3379L27.1973 24.5156H28.791ZM27.0918 32.1797C27.0859 31.6875 27.502 31.2832 28.0059 31.2773C28.4922 31.2832 28.9082 31.6875 28.9082 32.1797C28.9082 32.6836 28.4922 33.0938 28.0059 33.0938C27.502 33.0938 27.0859 32.6836 27.0918 32.1797Z" fill="white"/>
</svg>
