<svg width="132" height="72" viewBox="0 0 132 72" fill="none" xmlns="http://www.w3.org/2000/svg">
<g filter="url(#filter0_d_3451_15447)">
<path d="M8.07503 38.7461H46.4367V38.7503H46.9367C55.5344 38.7503 62.5337 45.7426 62.5337 54.3397V62.4475C62.5337 62.7897 62.2568 63.0667 61.914 63.0667H52.8973C52.5545 63.0667 52.2776 62.7897 52.2776 62.4475V54.3397C52.2776 51.3958 49.8815 49.0011 46.9367 49.0011H8.07503C7.72375 49.0011 7.43848 48.7156 7.43848 48.3651V39.3821C7.43848 39.0316 7.72374 38.7461 8.07503 38.7461Z" fill="#17192E" stroke="black"/>
<path d="M7.5654 34.1403H7.35836L7.35415 34.1445H5.00607C4.72634 34.1445 4.5 33.9179 4.5 33.6389V23.9196C4.5 23.6408 4.72601 23.4143 5.00546 23.414C5.00566 23.414 5.00586 23.414 5.00607 23.414L7.56036 23.4182H7.56118C8.17189 23.4182 8.77251 23.379 9.35851 23.3095L9.35978 23.3094C15.8001 22.5298 20.9625 17.6136 22.1085 11.2981L22.2155 10.7088H21.6166H5.06498C4.75579 10.7088 4.50421 10.457 4.50421 10.1485V1.57786C4.50421 1.26937 4.75579 1.01758 5.06498 1.01758H44.5918C44.901 1.01758 45.1526 1.26939 45.1526 1.57786V10.1485C45.1526 10.457 44.901 10.7088 44.5918 10.7088H33.4536H33.0008L32.956 11.1594C32.5515 15.2317 31.1852 19.0234 29.0879 22.3083L28.5968 23.0774H29.5093H44.6676C44.9347 23.0774 45.1526 23.2956 45.1526 23.562V32.5702C45.1526 32.8366 44.9347 33.0547 44.6676 33.0547H28.6127C28.3456 33.0547 28.1277 32.8366 28.1277 32.5702V25.1734V23.7834L27.2422 24.8549C22.5594 30.5221 15.4749 34.1403 7.5654 34.1403Z" fill="#17192E" stroke="black"/>
<path d="M99.8967 24.4455V24.9455H100.397H126.466H126.47C126.889 24.9455 127.229 25.2856 127.229 25.7035V33.8828C127.229 34.3007 126.889 34.6409 126.47 34.6409H70.5853C70.1666 34.6409 69.8267 34.3007 69.8267 33.8828V25.7035C69.8267 25.2856 70.1666 24.9455 70.5853 24.9455H88.7449H89.2449V24.4455V16.1062C89.2449 15.7557 89.5301 15.4702 89.8814 15.4702H99.2601C99.6114 15.4702 99.8967 15.7557 99.8967 16.1062V24.4455Z" fill="#17192E" stroke="black"/>
<path d="M51.4993 0.5H60.617C60.9571 0.5 61.2325 0.775551 61.2325 1.11499V34.3162C61.2325 34.6557 60.9571 34.9312 60.617 34.9312H51.4993C51.1591 34.9312 50.8838 34.6557 50.8838 34.3162V1.11499C50.8838 0.775551 51.1591 0.5 51.4993 0.5Z" fill="#17192E" stroke="black"/>
<path d="M72.858 10.755H72.7792C72.4925 10.7204 72.272 10.4772 72.272 10.1863V1.07705C72.272 0.761439 72.5265 0.50415 72.8496 0.50415H107.514H107.515H107.515H107.515H107.515H107.515H107.515H107.515H107.515H107.515H107.515H107.515H107.515H107.515H107.515H107.515H107.515H107.515H107.515H107.515H107.515H107.515H107.516H107.516H107.516H107.516H107.516H107.516H107.516H107.516H107.516H107.516H107.516H107.516H107.516H107.516H107.516H107.516H107.516H107.516H107.516H107.516H107.517H107.517H107.517H107.517H107.517H107.517H107.517H107.517H107.517H107.517H107.517H107.517H107.517H107.517H107.517H107.517H107.517H107.517H107.517H107.517H107.517H107.518H107.518H107.518H107.518H107.518H107.518H107.518H107.518H107.518H107.518H107.518H107.518H107.518H107.518H107.518H107.518H107.518H107.518H107.518H107.518H107.518H107.518H107.519H107.519H107.519H107.519H107.519H107.519H107.519H107.519H107.519H107.519H107.519H107.519H107.519H107.519H107.519H107.519H107.519H107.519H107.519H107.519H107.519H107.519H107.519H107.519H107.52H107.52H107.52H107.52H107.52H107.52H107.52H107.52H107.52H107.52H107.52H107.52H107.52H107.52H107.52H107.52H107.52H107.52H107.52H107.52H107.52H107.52H107.52H107.52H107.52H107.52H107.521L107.715 0.508247V0.508274L107.72 0.508328C117.827 0.614844 126.017 8.83344 126.079 18.9438V18.9673V18.9674V18.9676V18.9678V18.968V18.9681V18.9683V18.9685V18.9686V18.9688V18.969V18.9692V18.9693V18.9695V18.9697V18.9699V18.97V18.9702V18.9704V18.9705V18.9707V18.9709V18.9711V18.9712V18.9714V18.9716V18.9718V18.9719V18.9721V18.9723V18.9724V18.9726V18.9728V18.973V18.9731V18.9733V18.9735V18.9737V18.9738V18.974V18.9742V18.9743V18.9745V18.9747V18.9749V18.975V18.9752V18.9754V18.9755V18.9757V18.9759V18.9761V18.9762V18.9764V18.9766V18.9768V18.9769V18.9771V18.9773V18.9774V18.9776V18.9778V18.978V18.9781V18.9783V18.9785V18.9787V18.9788V18.979V18.9792V18.9793V18.9795V18.9797V18.9799V18.98V18.9802V18.9804V18.9806V18.9807V18.9809V18.9811V18.9812V18.9814V18.9816V18.9818V18.9819V18.9821V18.9823V18.9825V18.9826V18.9828V18.983V18.9831V18.9833V18.9835V18.9837V18.9838V18.984V18.9842V18.9844V18.9845V18.9847V18.9849V18.985V18.9852V18.9854V18.9856V18.9857V18.9859V18.9861V18.9862V18.9864V18.9866V18.9868V18.9869V18.9871V18.9873V18.9875V18.9876V18.9878V18.988V18.9881V18.9883V18.9885V18.9887V18.9888V18.989V18.9892V18.9894V18.9895V18.9897V18.9899V18.99V18.9902V18.9904V18.9906V18.9907V18.9909V18.9911V18.9913V18.9914V18.9916V18.9918V18.9919V18.9921V18.9923V18.9925V18.9926V18.9928V18.993V18.9932V18.9933V18.9935V18.9937V18.9938V18.994V18.9942V18.9944V18.9945V18.9947V18.9949V18.9951V18.9952V18.9954V18.9956V18.9957V18.9959V18.9961V18.9963V18.9964V18.9966V18.9968V18.9969V18.9971V18.9973V18.9975V18.9976V18.9978V18.998V18.9982V18.9983V18.9985V18.9987V18.9988V18.999V18.9992V18.9994V18.9995V18.9997V18.9999V19.0001V19.0002V19.0004V19.0006V19.0007V19.0009V19.0011V19.0013V19.0014V19.0016V19.0018V19.002V19.0021V19.0023V19.0025V19.0026V19.0028V19.003V19.0032V19.0033V19.0035V19.0037V19.0039V19.004V19.0042V19.0044V19.0045V19.0047V19.0049V19.0051V19.0052V19.0054V19.0056V19.0058V19.0059V19.0061V19.0063V19.0064V19.0066V19.0068V19.007V19.0071V19.0073V19.0075V19.0076V19.0078V19.008V19.0082V19.0083V19.0085V19.0087V19.0089V19.009V19.0092V19.0094V19.0095V19.0097V19.0099V19.0101V19.0102V19.0104V19.0106V19.0108V19.0109V19.0111V19.0113V19.0114V19.0116V19.0118V19.012V19.0121V19.0123V19.0125V19.0127V19.0128V19.013V19.0132V19.0133V19.0135V19.0137V19.0139V19.014V19.0142V19.0144V19.0146V19.0147V19.0149V19.0151V19.0152V19.0154V19.0156V19.0158V19.0159V19.0161V19.0163V19.0165V19.0166V19.0168V19.017V19.0171V19.0173V19.0175V19.0177V19.0178V19.018V19.0182V19.0183V19.0185V19.0187V19.0189V19.019V19.0192V19.0194V19.0196V19.0197V19.0199V19.0201V19.0202V19.0204V19.0206V19.0208V19.0209V19.0211V19.0213V19.0215V19.0216V19.0218V19.022V19.0221V19.0223V19.0225V19.0227V19.0228V19.023V19.0232V19.0234V19.0235V19.0237V19.0239V19.024V19.0242V19.0244V19.0246V19.0247V19.0249V19.0251V19.0253V19.0254V19.0256V19.0258V19.0259V19.0261V19.0263V19.0265V19.0266V19.0268V19.027V19.0272V19.0273V19.0275V19.0277V19.0278V19.028V19.0282V19.0284V19.0285V19.0287V19.0289V19.029V19.0292V19.0294V19.0296V19.0297V19.0299V19.0301V19.0303V19.0304V19.0306V19.0308V19.0309V19.0311V19.0313V19.0315V19.0316V19.0318V19.032V19.0322V19.0323V19.0325V19.0327V19.0328V19.033V19.0332V19.0334V19.0335V19.0337V19.0339V19.0341V19.0342V19.0344V19.0346V19.0347V19.0349V19.0351V19.0353V19.0354V19.0356V19.0358V19.036V19.0361V19.0363V19.0365V19.0366V19.0368V19.037V19.0372V19.0373V19.0375V19.0377V19.0379V19.038V19.0382V19.0384V19.0385V19.0387V19.0389V19.0391V19.0392V19.0394V19.0396V19.0397V19.0399V19.0401V19.0403V19.0404V19.0406V19.0408V19.041V19.0411V19.0413V19.0415V19.0416V19.0418V19.042V19.0422V19.0423V19.0425V19.0427V19.0429V19.043V19.0432V19.0434V19.0435V19.0437V19.0439V19.0441V19.0442V19.0444V19.0446V19.0448V19.0449V19.0451V19.0453V19.0454V19.0456V19.0458V19.046V19.0461V19.0463V19.0465V19.0467V19.0468V19.047V19.0472V19.0473V19.0475V19.0477V19.0479V19.048V19.0482V19.0484V19.0485V19.0487V19.0489V19.0491V19.0492V19.0494V19.0496V19.0498V19.0499V19.0501V19.0503V19.0504V19.0506V19.0508V19.051V19.0511V19.0513V19.0515V19.0517V19.0518V19.052V19.0522V19.0523V19.0525V19.0527V19.0529V19.053V19.0532V19.0534V19.0536V19.0537V19.0539V19.0541V19.0542V19.0544V19.0546V19.0548V19.0549V19.0551V19.0553V19.0555V19.0556V20.7512C126.079 20.784 126.067 20.8071 126.054 20.8206C126.042 20.8337 126.031 20.8361 126.023 20.8361H115.883C115.875 20.8361 115.865 20.8337 115.852 20.8206C115.839 20.8071 115.827 20.784 115.827 20.7512V19.0556C115.827 14.4794 112.105 10.755 107.523 10.755H72.858Z" fill="#17192E" stroke="black"/>
<path d="M83.159 40.29H114.448C120.831 40.29 126.054 45.5149 126.054 51.895C126.054 55.0841 124.752 57.9838 122.644 60.0909C120.54 62.1941 117.638 63.4999 114.448 63.4999H83.159C76.7755 63.4999 71.5483 58.2748 71.5483 51.895C71.5483 48.7064 72.8545 45.8065 74.9588 43.699C77.0673 41.5957 79.9686 40.29 83.159 40.29ZM112.347 54.4398C113.05 54.4398 113.689 54.1511 114.149 53.6918C114.608 53.2333 114.897 52.599 114.897 51.895C114.897 50.4945 113.751 49.3501 112.347 49.3501H85.2553C84.5511 49.3501 83.9167 49.6397 83.4579 50.0982C82.9988 50.5571 82.7095 51.1957 82.7095 51.895C82.7095 53.2996 83.8561 54.4398 85.2553 54.4398H112.347Z" fill="#17192E" stroke="black"/>
</g>
<defs>
<filter id="filter0_d_3451_15447" x="0" y="0" width="131.729" height="72" filterUnits="userSpaceOnUse" color-interpolation-filters="sRGB">
<feFlood flood-opacity="0" result="BackgroundImageFix"/>
<feColorMatrix in="SourceAlpha" type="matrix" values="0 0 0 0 0 0 0 0 0 0 0 0 0 0 0 0 0 0 127 0" result="hardAlpha"/>
<feOffset dy="4"/>
<feGaussianBlur stdDeviation="2"/>
<feComposite in2="hardAlpha" operator="out"/>
<feColorMatrix type="matrix" values="0 0 0 0 0 0 0 0 0 0 0 0 0 0 0 0 0 0 0.25 0"/>
<feBlend mode="normal" in2="BackgroundImageFix" result="effect1_dropShadow_3451_15447"/>
<feBlend mode="normal" in="SourceGraphic" in2="effect1_dropShadow_3451_15447" result="shape"/>
</filter>
</defs>
</svg>
