<svg width="152" height="26" viewBox="0 0 152 26" fill="none" xmlns="http://www.w3.org/2000/svg">
<mask id="mask0_14_260" style="mask-type:luminance" maskUnits="userSpaceOnUse" x="8" y="0" width="26" height="25">
<path d="M8.76953 8.76952C12.9952 8.77382 17.0465 10.4544 20.0345 13.4423C23.0225 16.4303 24.703 20.4817 24.7073 24.7073H33.4769C33.4773 21.4629 32.8386 18.2501 31.5973 15.2525C30.356 12.2549 28.5364 9.53113 26.2424 7.2368C23.9483 4.94247 21.2248 3.1225 18.2274 1.8808C15.2299 0.639098 12.0172 -2.80414e-08 8.77278 0L8.76953 8.76952Z" fill="white"/>
</mask>
<g mask="url(#mask0_14_260)">
<path d="M33.4736 0.0032959H8.76953V24.7074H33.4736V0.0032959Z" fill="url(#paint0_linear_14_260)"/>
</g>
<path d="M101.061 1.06207H105.127V4.34251H108.784V1.06207H112.825V14.2099H101.061V1.06207ZM113.991 26C107.703 26 102.688 25.2432 102.688 20.8227C102.688 16.3243 107.703 15.5383 113.991 15.5383C120.279 15.5383 125.648 16.1879 125.648 20.8227C125.648 25.3699 120.305 26 113.991 26ZM105.127 10.9554H108.784V7.5775H105.127V10.9554ZM113.991 18.8999C109.356 18.8999 107.241 19.1435 107.241 20.7968C107.241 22.45 109.356 22.6384 113.991 22.6384C118.489 22.6384 121.065 22.3948 121.065 20.7968C121.065 19.1435 118.489 18.8999 113.991 18.8999ZM125.359 14.9666H121.136V9.12029H118.863V14.4112H114.64V0.909413H118.863V5.51828H121.136V0.776245H125.359V14.9666Z" fill="#666666"/>
<path d="M128.142 20.9168H151.778V24.6033H128.142V20.9168ZM129.389 1.18213H149.881V18.5036H145.382V13.3783H129.389V9.80549H145.382V4.75815H129.389V1.18213Z" fill="#666666"/>
<path d="M61.838 0C60.1004 0 58.7947 1.25046 58.7947 2.92317C58.7947 4.59587 60.0939 5.84634 61.838 5.84634C62.2433 5.88468 62.6521 5.83795 63.0383 5.70914C63.4245 5.58032 63.7795 5.37227 64.0806 5.0983C64.3817 4.82434 64.6223 4.4905 64.7869 4.11818C64.9515 3.74586 65.0365 3.34326 65.0365 2.93617C65.0365 2.52908 64.9515 2.12646 64.7869 1.75414C64.6223 1.38182 64.3817 1.048 64.0806 0.77403C63.7795 0.500065 63.4245 0.292006 63.0383 0.163192C62.6521 0.0343771 62.2433 -0.0123586 61.838 0.0259794" fill="#666666"/>
<path d="M64.313 7.68787H59.2949V24.7072H64.313V7.68787Z" fill="#666666"/>
<path d="M88.8061 1.02307L81.4884 14.814L74.2195 1.11402L74.1707 1.02307H68.5842V24.691H73.6024V10.0232L79.5689 21.2352L79.6143 21.3262H83.3625L89.342 10.0297V24.691H94.3569V1.02307H88.8061Z" fill="#666666"/>
<path d="M8.76628 8.76953H0V24.7073H8.76628V8.76953Z" fill="#00C7A9"/>
<path d="M49.4112 0V8.76952C45.1858 8.77467 41.135 10.4555 38.1472 13.4433C35.1594 16.4311 33.4785 20.4819 33.4734 24.7073H24.7039C24.7034 21.4629 25.3421 18.2501 26.5834 15.2525C27.8247 12.2549 29.6443 9.53113 31.9384 7.2368C34.2324 4.94247 36.9559 3.1225 39.9533 1.8808C42.9508 0.639098 46.1635 -2.80414e-08 49.4079 0" fill="#00C7A9"/>
<defs>
<linearGradient id="paint0_linear_14_260" x1="8.87087" y1="12.6241" x2="33.569" y2="12.6241" gradientUnits="userSpaceOnUse">
<stop stop-color="#00C7A9"/>
<stop offset="0.11" stop-color="#0FCAA4"/>
<stop offset="0.31" stop-color="#38D196"/>
<stop offset="0.59" stop-color="#79DD81"/>
<stop offset="0.94" stop-color="#D2EE63"/>
<stop offset="1" stop-color="#E2F15E"/>
</linearGradient>
</defs>
</svg>
