<svg width="122" height="30" viewBox="0 0 122 30" fill="none" xmlns="http://www.w3.org/2000/svg">
<rect width="30" height="30" rx="6.83824" fill="#140064"/>
<path d="M20.1594 9.04845L15.013 12.9803L9.86667 9.04845L6.39697 6.39709V10.6365V23.1618H9.86667V13.3261L15.013 17.317L20.1594 13.3261V23.1618H23.6273V10.6365V6.39709L20.1594 9.04845Z" fill="#BCF100"/>
<path d="M54.6616 4.63232H49.581L41.5568 13.9345V4.63232H37.5V24.9264H41.5568V15.6005L49.8459 24.9264H54.9265L45.9082 14.7794L54.6616 4.63232Z" fill="#140064"/>
<path d="M121.544 24.9264L115.49 17.9068L121.364 10.8872H117.016L111.896 16.9612V4.63232H107.868V24.9264H111.896V18.8376L117.113 24.9264H121.544Z" fill="#140064"/>
<path d="M64.5631 10.3913C62.8781 10.3913 61.4402 11.1227 60.258 12.1264V4.63232H56.25V17.9831C56.25 22.004 58.8965 25.3676 63.8603 25.3676C68.3271 25.3676 71.4706 22.2616 71.4706 17.9091C71.4706 13.7875 68.7652 10.3913 64.5631 10.3913ZM63.8603 21.7198C62.869 21.7164 61.9178 21.3255 61.2073 20.6294C60.4969 19.9334 60.0827 18.9867 60.0522 17.989C60.0522 17.9535 60.0522 17.918 60.0522 17.8824C60.0522 17.1211 60.2764 16.3769 60.6965 15.7439C61.1165 15.1109 61.7136 14.6176 62.4121 14.3262C63.1106 14.0349 63.8792 13.9587 64.6208 14.1072C65.3623 14.2557 66.0435 14.6223 66.5781 15.1606C67.1127 15.699 67.4768 16.3848 67.6243 17.1315C67.7718 17.8782 67.6961 18.6521 67.4068 19.3554C67.1175 20.0588 66.6275 20.66 65.9988 21.0829C65.3702 21.5059 64.6311 21.7316 63.875 21.7316L63.8603 21.7198Z" fill="#140064"/>
<path d="M100.057 10.3682C98.3266 10.3473 96.6536 10.9847 95.3775 12.1508V10.8109H91.3235V24.9265H95.3775V17.0145C95.3775 16.2226 95.6927 15.4631 96.2537 14.9031C96.8147 14.3431 97.5755 14.0286 98.3689 14.0286C99.1623 14.0286 99.9232 14.3431 100.484 14.9031C101.045 15.4631 101.36 16.2226 101.36 17.0145V24.9265H105.441V15.8855C105.441 15.829 105.441 15.7756 105.441 15.7221C105.43 14.3019 104.859 12.9433 103.851 11.9411C102.843 10.9388 101.479 10.3736 100.057 10.3682Z" fill="#140064"/>
<path d="M81.2852 10.3677C76.6881 10.3677 73.4558 13.4774 73.4558 17.838C73.4558 21.9615 76.2392 25.3677 80.5639 25.3677C81.5058 25.3512 82.4319 25.1253 83.2737 24.7066C84.1155 24.2879 84.8515 23.6871 85.4274 22.9487V24.8934H89.1176V17.8469H89.0847L89.1176 17.7669C89.1176 13.7442 86.4 10.3677 81.2852 10.3677ZM81.372 21.677C80.6025 21.677 79.8502 21.4509 79.2104 21.0275C78.5706 20.604 78.0719 20.0022 77.7774 19.298C77.4829 18.5938 77.4059 17.8189 77.556 17.0714C77.7061 16.3238 78.0767 15.6371 78.6208 15.0982C79.1649 14.5592 79.8582 14.1922 80.6129 14.0435C81.3677 13.8948 82.15 13.9711 82.8609 14.2628C83.5719 14.5545 84.1795 15.0484 84.607 15.6822C85.0346 16.3159 85.2627 17.061 85.2627 17.8232C85.2635 18.3293 85.1637 18.8306 84.9689 19.2984C84.7741 19.7663 84.4881 20.1916 84.1274 20.55C83.7667 20.9084 83.3382 21.1929 82.8664 21.3873C82.3947 21.5817 81.8889 21.6821 81.378 21.6829L81.372 21.677Z" fill="#140064"/>
</svg>
