<svg width="284" height="120" viewBox="0 0 284 120" fill="none" xmlns="http://www.w3.org/2000/svg">
<rect x="0.748702" y="0.748702" width="282.078" height="117.961" rx="23.2098" fill="white"/>
<rect x="0.748702" y="0.748702" width="282.078" height="117.961" rx="23.2098" stroke="#E4E9F1" stroke-width="1.4974"/>
<rect x="51.282" y="36.9695" width="44.9221" height="44.9221" rx="10.2396" fill="#140064"/>
<path d="M81.4687 50.5184L73.7625 56.406L66.0564 50.5184L60.8608 46.5483V52.8964V71.6518H66.0564V56.9237L73.7625 62.8998L81.4687 56.9237V71.6518H86.6616V52.8964V46.5483L81.4687 50.5184Z" fill="#BCF100"/>
<path d="M133.132 43.9059H125.525L113.509 57.835V43.9059H107.435V74.2944H113.509V60.3297L125.921 74.2944H133.529L120.025 59.1001L133.132 43.9059Z" fill="#140064"/>
<path d="M233.282 74.2945L224.216 63.7833L233.012 53.272H226.502L218.835 62.3673V43.906H212.803V74.2945H218.835V65.1771L226.648 74.2945H233.282Z" fill="#140064"/>
<path d="M147.959 52.5296C145.436 52.5296 143.283 53.6247 141.513 55.1277V43.906H135.511V63.8975C135.511 69.9185 139.474 74.9551 146.907 74.9551C153.595 74.9551 158.302 70.3042 158.302 63.7867C158.302 57.615 154.251 52.5296 147.959 52.5296ZM146.907 69.4928C145.422 69.4878 143.998 68.9024 142.934 67.8601C141.87 66.8179 141.25 65.4003 141.204 63.9064C141.204 63.8532 141.204 63.8 141.204 63.7468C141.204 62.6068 141.54 61.4924 142.169 60.5446C142.798 59.5967 143.692 58.858 144.738 58.4217C145.784 57.9855 146.935 57.8713 148.045 58.0937C149.156 58.3161 150.176 58.8651 150.976 59.6712C151.777 60.4772 152.322 61.5042 152.543 62.6223C152.764 63.7404 152.65 64.8993 152.217 65.9525C151.784 67.0057 151.05 67.9059 150.109 68.5392C149.167 69.1725 148.061 69.5106 146.929 69.5106L146.907 69.4928Z" fill="#140064"/>
<path d="M201.107 52.4949C198.517 52.4636 196.011 53.418 194.101 55.1642V53.1577H188.03V74.2945H194.101V62.4471C194.101 61.2613 194.572 60.124 195.413 59.2855C196.253 58.447 197.392 57.9759 198.58 57.9759C199.768 57.9759 200.907 58.447 201.747 59.2855C202.587 60.124 203.059 61.2613 203.059 62.4471V74.2945H209.17V60.7565C209.17 60.672 209.17 60.5919 209.17 60.5118C209.153 58.3853 208.298 56.3509 206.788 54.8501C205.279 53.3493 203.238 52.503 201.107 52.4949Z" fill="#140064"/>
<path d="M172.999 52.4941C166.115 52.4941 161.275 57.1506 161.275 63.6802C161.275 69.8548 165.443 74.9552 171.919 74.9552C173.329 74.9306 174.716 74.5923 175.976 73.9653C177.237 73.3383 178.339 72.4387 179.201 71.333V74.2449H184.727V63.6936H184.678L184.727 63.5737C184.727 57.5501 180.658 52.4941 172.999 52.4941ZM173.129 69.4287C171.976 69.4287 170.85 69.0902 169.892 68.4561C168.934 67.8221 168.187 66.9208 167.746 65.8664C167.305 64.8119 167.19 63.6516 167.415 62.5323C167.639 61.4129 168.194 60.3846 169.009 59.5776C169.824 58.7706 170.862 58.221 171.992 57.9983C173.122 57.7756 174.294 57.8899 175.358 58.3267C176.423 58.7635 177.333 59.5031 177.973 60.4521C178.613 61.401 178.955 62.5167 178.955 63.658C178.956 64.4159 178.806 65.1665 178.515 65.867C178.223 66.5676 177.795 67.2044 177.255 67.7411C176.714 68.2778 176.073 68.7038 175.366 68.9949C174.66 69.286 173.903 69.4364 173.138 69.4376L173.129 69.4287Z" fill="#140064"/>
</svg>
