<svg width="128" height="102" viewBox="0 0 128 102" fill="none" xmlns="http://www.w3.org/2000/svg">
<path d="M65.1967 40.3892H30.439V97.8342H65.1967V40.3892Z" fill="#DFDFE3"/>
<path d="M37.5955 57.1975H6V97.8341H37.5955V57.1975Z" fill="#DFDFE3"/>
<path d="M120.015 25.6775H50.7051V97.8343H120.015V25.6775Z" fill="#F1F1F4" stroke="#868793" stroke-width="0.75" stroke-miterlimit="10"/>
<path d="M123.834 92.1807H46.8853V97.8342H123.834V92.1807Z" fill="#F1F1F4" stroke="#868793" stroke-width="0.75" stroke-miterlimit="10"/>
<path d="M123.834 56.1001H46.8853V61.7537H123.834V56.1001Z" fill="#F1F1F4" stroke="#868793" stroke-width="0.75" stroke-miterlimit="10"/>
<path d="M123.834 20.0239H46.8853V25.6775H123.834V20.0239Z" fill="#F1F1F4" stroke="#868793" stroke-width="0.75" stroke-miterlimit="10"/>
<path d="M88 98V1L82 1V98H88Z" fill="#F1F1F4" stroke="#868793" stroke-width="0.75" stroke-miterlimit="10"/>
<path d="M75.2739 35.7527H58.5234V45.7696H75.2739V35.7527Z" fill="#3971FF"/>
<path d="M112.264 35.7527H95.5132V45.7696H112.264V35.7527Z" fill="#3971FF"/>
<path d="M75.2739 71.9587H58.5234V81.9757H75.2739V71.9587Z" fill="#3971FF"/>
<path d="M112.264 71.9587H95.5132V81.9757H112.264V71.9587Z" fill="#3971FF"/>
<path d="M28.9874 79C36.2532 79 41.443 100.978 43 102H2C2 102 6.15189 88.2 11.8607 90.7555C23.2784 95.8666 20.6029 79 28.9874 79Z" fill="#3971FF"/>
</svg>
