<svg width="131" height="111" viewBox="0 0 131 111" fill="none" xmlns="http://www.w3.org/2000/svg">
<g clip-path="url(#clip0_3477_15579)">
<path d="M35.8234 75.5915H0.438268C0.438268 75.5915 -0.471009 65.8962 8.6382 63.979C17.6159 62.0893 19.0237 63.3984 19.062 55.9708C15.9781 54.7055 13.5516 52.4378 12.3246 49.5182C11.0648 49.5949 9.66798 48.828 8.808 47.4532C7.65771 45.6127 7.9042 43.3833 9.35576 42.4741C10.0131 42.0578 10.8073 41.992 11.5851 42.2111C12.237 35.8133 15.3373 29.0266 24.9395 29.0266C25.8597 29.0266 26.7252 29.0923 27.5304 29.2183L23.7727 40.4912C23.7727 40.4912 25.531 58.7041 25.7337 61.3279C25.8761 63.1355 32.0274 70.9355 35.8234 75.5915Z" fill="#DFDFE3"/>
<path d="M95.8408 75.5915H131.226C131.226 75.5915 132.135 65.8962 123.026 63.979C114.048 62.0893 112.641 63.3984 112.602 55.9708C115.686 54.7055 118.113 52.4378 119.34 49.5182C120.599 49.5949 121.996 48.828 122.856 47.4532C124.007 45.6127 123.76 43.3833 122.308 42.4741C121.651 42.0578 120.857 41.992 120.079 42.2111C119.427 35.8133 116.327 29.0266 106.725 29.0266C105.805 29.0266 104.939 29.0923 104.134 29.2183L107.891 40.4912C107.891 40.4912 106.133 58.7041 105.931 61.3279C105.788 63.1355 99.6368 70.9355 95.8408 75.5915Z" fill="#DFDFE3"/>
<path d="M85.6112 51.1323C87.0427 48.8449 86.7377 46.0734 84.9298 44.9419C83.1219 43.8105 80.4958 44.7476 79.0642 47.035C77.6327 49.3224 77.9377 52.094 79.7456 53.2254C81.5535 54.3569 84.1796 53.4198 85.6112 51.1323Z" fill="#F1F1F4" stroke="#868793" stroke-width="0.75" stroke-miterlimit="10"/>
<path d="M51.3946 53.2368C53.2025 52.1053 53.5076 49.3338 52.076 47.0464C50.6445 44.7589 48.0184 43.8218 46.2105 44.9533C44.4026 46.0847 44.0975 48.8563 45.5291 51.1437C46.9607 53.4311 49.5867 54.3682 51.3946 53.2368Z" fill="#F1F1F4" stroke="#868793" stroke-width="0.75" stroke-miterlimit="10"/>
<path d="M76.1436 86.1084C76.1436 86.1084 99.8341 74.0632 88.5119 71.6805C77.1898 69.2978 72.868 71.0122 72.868 61.3279H58.2703C58.2703 71.0122 53.9484 69.2978 42.6263 71.6805C31.3041 74.0632 57.7061 86.1084 57.7061 86.1084H76.1381H76.1436Z" fill="#F1F1F4" stroke="#868793" stroke-width="0.75" stroke-miterlimit="10" stroke-linejoin="round"/>
<path d="M82.3443 48.1979C82.3443 56.951 74.8345 63.1188 65.5774 63.1188C56.3203 63.1188 48.8105 56.951 48.8105 48.1979C48.8105 39.4447 48.8105 31.4255 65.5774 31.4255C82.3443 31.4255 82.3443 39.4447 82.3443 48.1979Z" fill="#F1F1F4" stroke="#868793" stroke-width="0.75" stroke-miterlimit="10"/>
<path d="M84.2176 42.3757C84.2176 42.3757 75.8698 44.3696 65.5719 44.3696C55.2741 44.3696 46.9263 42.3757 46.9263 42.3757C46.9263 31.6013 55.2741 24.1025 65.5719 24.1025C75.8698 24.1025 84.2176 31.6013 84.2176 42.3757Z" fill="#F1F1F4" stroke="#868793" stroke-width="0.75" stroke-miterlimit="10"/>
<path d="M62.521 24.1953V37.2812C62.521 37.8227 62.96 38.2617 63.5015 38.2617H67.648C68.1895 38.2617 68.6285 37.8227 68.6285 37.2812V24.1953C68.6285 23.6538 68.1895 23.2148 67.648 23.2148H63.5015C62.96 23.2148 62.521 23.6538 62.521 24.1953Z" fill="#F1F1F4" stroke="#868793" stroke-width="0.75" stroke-miterlimit="10"/>
<path d="M83.8175 38.2617H46.9206C46.4032 38.2617 45.9839 38.6811 45.9839 39.1984V43.4326C45.9839 43.9499 46.4032 44.3692 46.9206 44.3692H83.8175C84.3348 44.3692 84.7542 43.9499 84.7542 43.4326V39.1984C84.7542 38.6811 84.3348 38.2617 83.8175 38.2617Z" fill="#F1F1F4" stroke="#868793" stroke-width="0.75" stroke-miterlimit="10"/>
<path d="M58.8668 52.3557C59.5082 52.3557 60.0281 51.8358 60.0281 51.1945C60.0281 50.5531 59.5082 50.0332 58.8668 50.0332C58.2255 50.0332 57.7056 50.5531 57.7056 51.1945C57.7056 51.8358 58.2255 52.3557 58.8668 52.3557Z" fill="#868793"/>
<path d="M72.715 52.3557C73.3563 52.3557 73.8762 51.8358 73.8762 51.1945C73.8762 50.5531 73.3563 50.0332 72.715 50.0332C72.0736 50.0332 71.5537 50.5531 71.5537 51.1945C71.5537 51.8358 72.0736 52.3557 72.715 52.3557Z" fill="#868793"/>
<path d="M65.5718 54.311C65.835 54.311 66.0483 54.0977 66.0483 53.8345C66.0483 53.5713 65.835 53.3579 65.5718 53.3579C65.3086 53.3579 65.0952 53.5713 65.0952 53.8345C65.0952 54.0977 65.3086 54.311 65.5718 54.311Z" fill="#868793"/>
<path d="M58.5605 48.0611C59.7101 48.0611 60.642 47.7423 60.642 47.349C60.642 46.9558 59.7101 46.637 58.5605 46.637C57.4109 46.637 56.479 46.9558 56.479 47.349C56.479 47.7423 57.4109 48.0611 58.5605 48.0611Z" fill="#868793"/>
<path d="M73.0268 48.0611C74.1764 48.0611 75.1083 47.7423 75.1083 47.349C75.1083 46.9558 74.1764 46.637 73.0268 46.637C71.8772 46.637 70.9453 46.9558 70.9453 47.349C70.9453 47.7423 71.8772 48.0611 73.0268 48.0611Z" fill="#868793"/>
<path d="M62.5264 57.3401C62.5264 57.3401 65.5719 59.0272 68.6174 57.3401" stroke="#868793" stroke-width="0.75" stroke-linecap="round" stroke-linejoin="round"/>
<path d="M60.3076 76.0076C60.3076 76.0076 65.5716 77.2729 70.8355 76.0076" stroke="#868793" stroke-width="0.75" stroke-linecap="round" stroke-linejoin="round"/>
<path d="M56.5722 68.2461L37.6417 72.1407C36.2777 72.42 35.3027 73.6196 35.3027 75.0109L56.479 86.4426H64.6461L56.5667 68.2461H56.5722Z" fill="#F1F1F4" stroke="#868793" stroke-width="0.75" stroke-miterlimit="10" stroke-linejoin="round"/>
<path d="M74.5711 68.2461L93.5016 72.1407C94.8655 72.42 95.8406 73.6196 95.8406 75.0109L76.1432 86.4426H66.4917L74.5711 68.2461Z" fill="#F1F1F4" stroke="#868793" stroke-width="0.75" stroke-miterlimit="10"/>
<path d="M65.6874 87.987C89.072 87.987 108.029 69.03 108.029 45.6454C108.029 22.2607 89.072 3.30371 65.6874 3.30371C42.3027 3.30371 23.3457 22.2607 23.3457 45.6454C23.3457 69.03 42.3027 87.987 65.6874 87.987Z" stroke="#3971FF" stroke-width="5.47758" stroke-miterlimit="10"/>
<path d="M71 86H60V110H71V86Z" fill="#3971FF"/>
<path d="M57.8504 95H73.1496C73.6207 95 74 95.4581 74 96.027V110H57V96.027C57 95.4581 57.3793 95 57.8504 95Z" fill="#3971FF"/>
</g>
<defs>
<clipPath id="clip0_3477_15579">
<rect width="131" height="111" fill="white"/>
</clipPath>
</defs>
</svg>
