<svg width="115" height="46" viewBox="0 0 115 46" fill="none" xmlns="http://www.w3.org/2000/svg">
<mask id="mask0_14_200" style="mask-type:luminance" maskUnits="userSpaceOnUse" x="40" y="4" width="72" height="38">
<path d="M40.7881 4.81226H111.792V41.4008H40.7881V4.81226Z" fill="white"/>
</mask>
<g mask="url(#mask0_14_200)">
<path d="M45.2968 27.0824C46.3045 27.0824 47.2439 26.8092 47.978 26.1774V27.5948C47.1585 28.1585 46.1847 28.3979 45.1601 28.3979C42.5812 28.3979 40.7878 26.6042 40.7878 24.0252C40.7878 21.463 42.6323 19.6696 45.1941 19.6696C46.2018 19.6696 47.1412 19.9601 47.8929 20.5236V22.0782C47.2267 21.3608 46.3045 20.9848 45.2796 20.9848C43.4862 20.9848 42.222 22.2319 42.222 24.0252C42.222 25.8185 43.5034 27.0824 45.2968 27.0824ZM50.8988 28.2437H49.5153V17.1542L50.8988 18.0094V21.258C51.5307 20.2846 52.5384 19.6695 53.8194 19.6695C55.9375 19.6695 57.0646 21.2241 57.0646 23.2907V28.2437H55.6643V23.5299C55.6643 21.8898 54.9468 21.0191 53.4779 21.0191C51.9237 21.0191 50.8988 22.3512 50.8988 24.0252V28.2437ZM65.6558 26.8093C64.9554 27.7998 63.8796 28.3977 62.5644 28.3977C60.1047 28.3977 58.3459 26.5701 58.3459 24.0765C58.3459 21.5314 60.1048 19.6698 62.5644 19.6698C63.8796 19.6698 64.9554 20.2848 65.6558 21.2925V19.8235H67.0565V28.2438H65.6558V26.8093ZM59.7805 24.0593C59.7805 25.8015 60.9929 27.0824 62.7014 27.0824C64.4264 27.0824 65.6558 25.8015 65.6558 24.0593C65.6558 22.2831 64.4264 20.985 62.7014 20.985C60.9929 20.985 59.7805 22.2831 59.7805 24.0593ZM70.5919 28.2437H69.2082V19.8234H70.5919V21.6168C71.2576 20.3697 72.334 19.6695 73.6659 19.6695V21.258C71.9926 21.0191 70.5919 22.1463 70.5919 24.2299V28.2437ZM87.8425 24.5716H81.1982C81.403 26.0916 82.5989 27.0993 84.2724 27.0993C85.3488 27.0993 86.3903 26.7923 87.2789 26.1599V27.4923C86.3734 28.107 85.349 28.3974 84.2724 28.3974C81.6251 28.3974 79.7296 26.6895 79.7296 24.1105C79.7296 21.5825 81.3351 19.6698 83.8799 19.6698C86.3052 19.6698 87.8936 21.4632 87.8936 23.8712C87.8936 24.1106 87.8764 24.3494 87.8425 24.5716ZM81.2153 23.4444H86.4249C86.2878 22.0098 85.3828 20.9509 83.8971 20.9509C82.3597 20.9509 81.4375 22.0268 81.2153 23.4444ZM90.7971 28.2437H89.4134V19.8234H90.7971V21.6168C91.4628 20.3697 92.5393 19.6695 93.8711 19.6695V21.258C92.1978 21.0191 90.7971 22.1463 90.7971 24.2299V28.2437ZM102.087 24.5716H95.4424C95.6475 26.0916 96.8433 27.0993 98.5169 27.0993C99.593 27.0993 100.635 26.7923 101.523 26.1599V27.4923C100.618 28.107 99.593 28.3974 98.5169 28.3974C95.8694 28.3974 93.9739 26.6895 93.9739 24.1105C93.9739 21.5825 95.5791 19.6698 98.1242 19.6698C100.549 19.6698 102.138 21.4632 102.138 23.8712C102.138 24.1106 102.121 24.3494 102.087 24.5716ZM95.4596 23.4444H100.669C100.532 22.0098 99.6271 20.9509 98.1414 20.9509C96.6039 20.9509 95.6818 22.0268 95.4596 23.4444ZM110.392 26.7977C109.709 27.8054 108.615 28.4206 107.3 28.4206C104.84 28.4206 103.082 26.5929 103.082 24.0993C103.082 21.5542 104.841 19.6926 107.3 19.6926C108.615 19.6926 109.709 20.3244 110.392 21.3493V17.1567L111.792 18.0118V28.2432H110.392V26.7977ZM104.516 24.0821C104.516 25.8243 105.729 27.1052 107.437 27.1052C109.162 27.1052 110.392 25.8243 110.392 24.0821C110.392 22.3059 109.162 21.0078 107.437 21.0078C105.729 21.0078 104.516 22.3059 104.516 24.0821ZM76.0837 25.4448C76.0837 26.6235 76.8011 27.0844 77.7066 27.0844C78.3896 27.0844 79.0727 26.8967 79.6705 26.4695V27.8189C79.0898 28.2459 78.2868 28.4168 77.5868 28.4168C75.7933 28.4168 74.7002 27.6139 74.7002 25.3421V17.1525L76.0837 18.0077V25.4448Z" fill="#525455"/>
</g>
<mask id="mask1_14_200" style="mask-type:luminance" maskUnits="userSpaceOnUse" x="40" y="4" width="72" height="38">
<path d="M40.7881 4.81226H111.792V41.4008H40.7881V4.81226Z" fill="white"/>
</mask>
<g mask="url(#mask1_14_200)">
<path d="M78.3199 19.7137C78.1479 19.6002 77.9467 19.5388 77.7407 19.5371C77.5346 19.5353 77.3324 19.5932 77.1585 19.7037C76.4985 20.1231 76.4977 21.086 77.1568 21.5063L77.1864 21.525C77.3584 21.6347 77.5582 21.6928 77.7622 21.6925C77.9661 21.6923 78.1658 21.6336 78.3375 21.5235L79.7135 20.641L78.3199 19.7137ZM43.6743 14.9398C44.6648 14.9398 45.3822 14.5129 45.3822 13.7444C45.3822 13.2831 45.1434 12.9244 44.511 12.668L42.5128 11.8655C41.4879 11.4213 40.9242 10.8406 40.9242 9.74743C40.9242 8.27878 42.1031 7.35625 43.8108 7.35625C44.8014 7.35625 45.7237 7.62978 46.3727 8.12502V9.57645C45.6042 8.89348 44.6648 8.50095 43.828 8.50095C42.9398 8.50095 42.3079 8.9107 42.3079 9.59367C42.3079 10.1061 42.5467 10.4136 43.2129 10.6698L45.2117 11.4725C46.2872 11.9338 46.7829 12.583 46.7829 13.4879C46.7829 15.0936 45.4847 16.0841 43.6571 16.0841C42.5466 16.0841 41.5389 15.7767 40.8049 15.2303V13.7272C41.6929 14.5642 42.6838 14.9398 43.6743 14.9398ZM49.4131 13.1125C49.4131 14.2912 50.1305 14.7521 51.0355 14.7521C51.719 14.7521 52.4019 14.5644 52.9999 14.1374V15.4866C52.4192 15.9136 51.6163 16.0845 50.9161 16.0845C49.1227 16.0845 48.0295 15.2816 48.0295 13.0098V5.66837L49.4131 4.81226V13.1125ZM60.7369 14.4961C60.0367 15.4866 58.9608 16.0845 57.6454 16.0845C55.1856 16.0845 53.4269 14.2569 53.4269 11.7633C53.4269 9.21821 55.1858 7.35656 57.6454 7.35656C58.9608 7.35656 60.0367 7.97111 60.7369 8.97928V7.51032H62.1376V15.9308H60.7369V14.4961ZM54.8615 11.7461C54.8615 13.4883 56.0742 14.7692 57.7824 14.7692C59.5075 14.7692 60.7369 13.4883 60.7369 11.7461C60.7369 9.96991 59.5075 8.67177 57.7824 8.67177C56.074 8.67177 54.8615 9.96976 54.8615 11.7461ZM65.6729 15.9305H64.2894V7.51016H65.6729V8.94484C66.3048 7.97142 67.3125 7.35625 68.5934 7.35625C70.7114 7.35625 71.8387 8.91086 71.8387 10.9775V15.9305H70.4383V11.2167C70.4383 9.57661 69.721 8.7059 68.2519 8.7059C66.6978 8.7059 65.6729 10.038 65.6729 11.7119V15.9305ZM80.4298 14.4615C79.7468 15.4694 78.6537 16.0844 77.3383 16.0844C74.8787 16.0844 73.1198 14.2567 73.1198 11.7631C73.1198 9.21806 74.8788 7.35641 77.3383 7.35641C78.6537 7.35641 79.7467 7.98818 80.4298 9.0131V5.66791L81.8304 4.81303V15.9308H80.4298V14.4615ZM74.5544 11.7461C74.5544 13.4883 75.7668 14.7692 77.4753 14.7692C79.2004 14.7692 80.4298 13.4883 80.4298 11.7461C80.4298 9.96991 79.2004 8.67177 77.4753 8.67177C75.7669 8.67177 74.5544 9.96976 74.5544 11.7461ZM106.05 14.4615C105.367 15.4694 104.274 16.0844 102.958 16.0844C100.499 16.0844 98.7397 14.2567 98.7397 11.7631C98.7397 9.21806 100.499 7.35641 102.958 7.35641C104.274 7.35641 105.367 7.98818 106.05 9.0131V5.66791L107.45 4.81303V15.9308H106.05V14.4615ZM100.175 11.7461C100.175 13.4883 101.387 14.7692 103.095 14.7692C104.82 14.7692 106.05 13.4883 106.05 11.7461C106.05 9.96991 104.82 8.67177 103.095 8.67177C101.387 8.67177 100.175 9.96976 100.175 11.7461ZM90.6435 14.4961C89.9433 15.4866 88.8673 16.0845 87.5521 16.0845C85.0924 16.0845 83.3336 14.2569 83.3336 11.7633C83.3336 9.21821 85.0925 7.35656 87.5521 7.35656C88.8673 7.35656 89.9433 7.97111 90.6435 8.97928V7.51032H92.0442V15.9308H90.6435V14.4961ZM84.7683 11.7461C84.7683 13.4883 85.9806 14.7692 87.6891 14.7692C89.4141 14.7692 90.6435 13.4883 90.6435 11.7461C90.6435 9.96991 89.4141 8.67177 87.6891 8.67177C85.9808 8.67177 84.7683 9.96976 84.7683 11.7461ZM95.5798 15.9305H94.1961V7.51016H95.5798V9.30339C96.2458 8.05691 97.3219 7.35625 98.6539 7.35625V8.94484C96.9803 8.7059 95.5798 9.83307 95.5798 11.9167V15.9305Z" fill="#525455"/>
</g>
<mask id="mask2_14_200" style="mask-type:luminance" maskUnits="userSpaceOnUse" x="40" y="4" width="72" height="38">
<path d="M40.7881 4.81226H111.792V41.4008H40.7881V4.81226Z" fill="white"/>
</mask>
<g mask="url(#mask2_14_200)">
<path d="M51.3636 9.30454C51.5359 9.41756 51.7371 9.4784 51.9432 9.47975C52.1492 9.4811 52.3513 9.4229 52.525 9.31214C53.1841 8.89091 53.1825 7.92805 52.5221 7.50945L52.4927 7.49068C52.3206 7.38133 52.1207 7.32361 51.9167 7.32435C51.7127 7.32509 51.5132 7.38427 51.3418 7.49487L49.9678 8.38062L51.3636 9.30454ZM45.199 36.6667L43.1986 35.863C42.5315 35.6065 42.2922 35.2989 42.2922 34.7861C42.2922 34.1019 42.9249 33.6917 43.8141 33.6917C44.6518 33.6917 45.592 34.0851 46.3614 34.7689V33.3153C45.7119 32.8197 44.7883 32.546 43.7969 32.546C42.0873 32.546 40.9074 33.4695 40.9074 34.9398C40.9074 36.034 41.4718 36.6155 42.4975 37.0597L44.4979 37.8633C45.1307 38.1198 45.37 38.479 45.37 38.9405C45.37 39.7099 44.6518 40.1372 43.6604 40.1372C42.6685 40.1372 41.6768 39.761 40.7876 38.9235V40.4281C41.523 40.9753 42.5315 41.2828 43.6431 41.2828C45.4725 41.2828 46.7719 40.291 46.7719 38.6842C46.7719 37.7778 46.2757 37.1282 45.199 36.6667ZM49.1777 36.9059C49.1777 35.111 50.4426 33.8628 52.2381 33.8628C53.2638 33.8628 54.1874 34.239 54.854 34.9568V33.4011C54.1018 32.8371 53.1611 32.5462 52.1527 32.5462C49.5879 32.5462 47.7417 34.3413 47.7417 36.9061C47.7417 39.4878 49.5367 41.2832 52.1182 41.2832C53.1444 41.2832 54.1187 41.0439 54.9395 40.4795V39.0603C54.2045 39.693 53.2638 39.9667 52.2552 39.9667C50.4598 39.9664 49.1777 38.701 49.1777 36.9059ZM78.9241 38.7373H77.6939V41.2996H84.5837V40.2589H78.9241V38.7373ZM76.8228 37.1608H85.2001V38.1954H76.8228V37.1608ZM93.5625 32.5519V34.6688H92.577V32.5519H91.4846V37.6705H92.577V35.6312H93.5625V37.8868H94.6235V32.5519H93.5625ZM90.8401 33.0155H89.2466V32.2336H88.0373V33.0155H86.4438V33.8895H90.8401V33.0155ZM68.1922 36.3398C68.7269 36.7532 69.3438 36.9633 70.025 36.9633C70.7137 36.9633 71.3323 36.7517 71.8637 36.3339C72.3987 35.9136 72.6699 35.3592 72.6699 34.6863C72.6699 34.0134 72.3987 33.4608 71.8637 33.0438C71.3323 32.6298 70.7134 32.4199 70.025 32.4199C69.3365 32.4199 68.718 32.63 68.1867 33.0438C67.6517 33.4608 67.3802 34.0134 67.3802 34.6863C67.3803 35.3664 67.6536 35.9229 68.1922 36.3398ZM68.9574 33.7612C69.2671 33.5089 69.6263 33.381 70.0252 33.381C70.4241 33.381 70.7836 33.5069 71.0932 33.7548C71.3997 34.0004 71.5551 34.3054 71.5551 34.6612C71.5551 35.0179 71.3992 35.33 71.0925 35.5881C70.7829 35.8489 70.4238 35.9807 70.0253 35.9807C69.6269 35.9807 69.2677 35.8487 68.9581 35.5881C68.6513 35.33 68.4959 35.0182 68.4959 34.6612C68.4957 34.3137 68.6507 34.0103 68.9574 33.7612ZM78.5226 35.9686C79.1292 36.3412 79.9666 36.5297 81.011 36.5297C82.0493 36.5297 82.887 36.3374 83.5004 35.9576C84.1213 35.5738 84.4365 35.0723 84.4365 34.4674C84.4365 33.8769 84.1213 33.3826 83.5004 32.9983C82.8865 32.6191 82.0493 32.4263 81.011 32.4263C79.9666 32.4263 79.1288 32.6224 78.5217 33.0092C77.9073 33.4004 77.596 33.8912 77.596 34.4673C77.5962 35.0866 77.9079 35.5919 78.5226 35.9686ZM79.4105 33.7165C79.8527 33.5044 80.3914 33.3967 81.012 33.3967C81.6472 33.3967 82.1858 33.5064 82.6128 33.7219C83.0269 33.9314 83.2371 34.1857 83.2371 34.479C83.2371 34.7565 83.039 35.0053 82.6485 35.2182C82.2467 35.4374 81.696 35.5488 81.0118 35.5488C80.3279 35.5488 79.7736 35.4354 79.3646 35.212C78.9676 34.9954 78.766 34.7444 78.766 34.4665C78.7662 34.174 78.9826 33.9217 79.4105 33.7165ZM88.6671 37.8027C89.3082 37.8027 89.8396 37.6354 90.2454 37.306C90.6549 36.9739 90.8623 36.5356 90.8623 36.0042C90.8623 35.4644 90.6578 35.0301 90.2547 34.7136C89.8555 34.4007 89.3246 34.2418 88.6767 34.2418C88.0491 34.2418 87.5249 34.4002 87.119 34.7133C86.7089 35.0297 86.5014 35.4557 86.5014 35.98C86.5014 36.5193 86.7105 36.9633 87.1227 37.2998C87.532 37.6337 88.0515 37.8027 88.6671 37.8027ZM87.8077 35.3892C88.0452 35.2261 88.3382 35.1436 88.6783 35.1436C89.0424 35.1436 89.339 35.2256 89.5595 35.3878C89.7769 35.5479 89.8825 35.7482 89.8825 35.9987C89.8825 36.2515 89.78 36.4597 89.5691 36.6353C89.358 36.8117 89.0579 36.9011 88.6783 36.9011C88.3306 36.9011 88.0362 36.8114 87.8034 36.6336C87.573 36.458 87.4606 36.2507 87.4606 35.9987C87.4608 35.7486 87.5742 35.5491 87.8077 35.3892ZM93.4983 38.5347C92.8786 38.2289 91.9574 38.0734 90.7594 38.0734C89.5693 38.0734 88.643 38.222 88.0057 38.5147C87.3562 38.8135 87.0268 39.2131 87.0268 39.703C87.0268 40.1918 87.352 40.6034 87.9939 40.9248C88.6241 41.2406 89.5473 41.4011 90.738 41.4011C91.9356 41.4011 92.8608 41.2456 93.4874 40.9397C94.1256 40.628 94.4495 40.225 94.4495 39.7422C94.4495 39.2529 94.1295 38.8468 93.4983 38.5347ZM92.4358 40.2928C92.0137 40.4443 91.4469 40.5209 90.7511 40.5209C90.0245 40.5209 89.4383 40.4443 89.0089 40.2928C88.599 40.1482 88.3909 39.9523 88.3909 39.7104C88.3909 39.4623 88.5984 39.2705 89.0078 39.1398C89.4373 39.0029 90.02 38.934 90.7397 38.934C91.4519 38.934 92.0249 39.0029 92.4431 39.1398C92.8413 39.2701 93.0431 39.4657 93.0431 39.7217C93.0428 39.956 92.8386 40.1482 92.4358 40.2928ZM73.8364 33.2639V36.7847H75.0452V32.5524H75.0354L73.8364 33.2639ZM67.9154 38.4116H73.9983V39.0237H67.9154V41.3027H75.0354V40.4401H68.9429V39.8311H75.0354V37.486H67.9154V38.4116ZM60.0123 36.143V33.8692H61.4263V32.7964H57.3967V33.8692H58.7929V36.143C58.7565 38.7283 56.9043 40.6629 56.8864 40.6792L56.8604 40.7026L57.7266 41.4011L57.7454 41.3806C58.4882 40.587 59.0502 39.5674 59.4155 38.3504H59.4236C59.789 39.5675 60.3509 40.587 61.0938 41.3806L61.1127 41.4011L61.9792 40.7026L61.9529 40.6792C61.9346 40.6627 60.0479 38.7283 60.0123 36.143ZM64.5403 41.3013H65.6965V33.2405L64.5403 32.5544V41.3013Z" fill="#525455"/>
</g>
<path d="M62.4977 35.7628H61.2517V36.9217H62.4977L62.5049 41.3013H63.6609V33.2478L62.5053 32.562L62.4977 35.7628Z" fill="#525455"/>
<path d="M23.9942 43.713L6.10728 32.0676C6.10728 32.0676 3.8635 30.778 3.35042 28.3758C2.62882 25.0015 5.00727 22.1096 5.00727 22.1096L28.2219 37.2285C30.0122 38.3956 30.5012 40.783 29.3502 42.584C28.1676 44.4346 25.7377 44.8422 23.9942 43.713Z" fill="#38D200"/>
<path d="M7.05132 19.6144C7.05132 19.6144 4.31152 17.9599 4.31152 14.1334C4.31152 10.3198 7.05039 8.68606 7.05039 8.68606L16.829 2.28612C18.6216 1.12063 21.0186 1.62937 22.1836 3.42135C23.3489 5.21349 22.8405 7.61103 21.0477 8.77605L12.8061 14.1425L26.8489 23.2885C26.8489 23.2885 29.3766 24.737 29.8745 27.1812C30.5698 30.5917 28.2223 33.4019 28.2223 33.4019L7.05132 19.6144Z" fill="#0473EA"/>
<path d="M25.4574 10.1328C24.5394 10.1328 23.8852 10.4223 23.2479 10.8373L18.4749 13.9464L23.248 17.0553C23.8919 17.4703 24.5673 17.7603 25.4575 17.7603C27.5637 17.7603 29.2711 16.0524 29.2711 13.9464C29.2711 11.8406 27.5635 10.1323 25.4574 10.1328Z" fill="#38D200"/>
<path d="M7.00085 44.33C7.91887 44.33 8.57283 44.0405 9.21018 43.6255L13.984 40.5164L9.21018 37.4075C8.56631 36.993 7.8911 36.7025 7.00085 36.7025C4.89468 36.7025 3.18726 38.4103 3.18726 40.5164C3.18726 42.6221 4.89468 44.3305 7.00085 44.33Z" fill="#0473EA"/>
</svg>
