<svg width="143" height="17" viewBox="0 0 143 17" fill="none" xmlns="http://www.w3.org/2000/svg">
<path d="M13.0629 0.744141V5.40234H15.3481V6.79102H13.0629V12.1875H11.3754V0.744141H13.0629ZM0.670349 9.12891C4.36176 8.02148 6.64691 5.9209 6.97211 3.32812H1.33832V1.93945H8.79144C8.79144 6.07031 5.97894 9.06738 1.37347 10.4648L0.670349 9.12891ZM3.06097 16.1602V11.0098H4.74847V14.8066H13.7133V16.1602H3.06097ZM28.4396 0.726562V5.29688H30.7423V6.68555H28.4396V12.1348H26.7696V0.726562H28.4396ZM16.7677 9.41016V2.08008H23.7989V3.43359H18.42V8.02148C21.4874 8.03027 23.2101 7.93359 25.1876 7.5293L25.381 8.88281C23.254 9.30469 21.3907 9.41016 18.0157 9.41016H16.7677ZM18.4552 16.1602V10.957H20.1251V14.8066H29.1075V16.1602H18.4552ZM43.8162 0.761719V5.82422H46.1014V7.21289H43.8162V12.5391H42.1463V0.761719H43.8162ZM31.4588 3.94336V2.58984H35.326V0.744141H36.9959V2.58984H40.8455V3.94336H31.4588ZM32.3201 7.66992C32.3113 5.86816 33.867 4.69043 36.1521 4.69922C38.4109 4.69043 39.9666 5.86816 39.9666 7.66992C39.9666 9.4541 38.4109 10.6143 36.1521 10.623C33.867 10.6143 32.3113 9.4541 32.3201 7.66992ZM33.8318 16.1602V11.6074H35.5018V14.8066H44.4842V16.1602H33.8318ZM33.9373 7.66992C33.9197 8.69824 34.8162 9.33105 36.1521 9.32227C37.4881 9.33105 38.3846 8.69824 38.4021 7.66992C38.3846 6.63281 37.4881 5.99121 36.1521 5.98242C34.8162 5.99121 33.9197 6.63281 33.9373 7.66992ZM55.3039 1.92188C57.4484 1.93066 59.0041 3.74121 59.2589 6.65039H62.5109V0.744141H64.1632V16.5293H62.5109V8.00391H59.2765C59.0919 11.0801 57.5011 12.9873 55.3039 12.9785C52.9572 12.9873 51.2961 10.8428 51.3136 7.44141C51.2961 4.0752 52.9572 1.93066 55.3039 1.92188ZM52.8957 7.44141C52.9044 9.94629 53.88 11.4844 55.3039 11.4844C56.7277 11.4844 57.7033 9.94629 57.7121 7.44141C57.7033 4.97168 56.7277 3.4248 55.3039 3.41602C53.88 3.4248 52.9044 4.97168 52.8957 7.44141ZM79.4168 1.21875V2.48438H77.1317V5.20898H79.3465V6.49219H67.7977V5.20898H70.0301V2.48438H67.7274V1.21875H79.4168ZM66.409 8.9707V7.65234H80.7703V8.9707H66.409ZM68.1317 11.4492V10.2012H78.9598V13.8047H69.784V15.0703H79.3993V16.3359H68.1493V12.627H77.3075V11.4492H68.1317ZM71.6825 5.20898H75.4618V2.48438H71.6825V5.20898ZM96.1997 13.1191V14.4902H81.7857V13.1191H88.0962V9.375H89.7486V13.1191H96.1997ZM82.2778 8.28516C85.3101 7.77539 88.0171 5.4375 88.0259 2.94141V1.74609H89.7837V2.94141C89.7837 5.4375 92.5259 7.77539 95.5669 8.28516L94.8462 9.65625C92.2886 9.15527 89.9507 7.57324 88.9136 5.41992C87.8765 7.56445 85.5562 9.15527 83.0161 9.65625L82.2778 8.28516ZM110.645 0.744141V16.4941H109.045V8.32031H107.094V15.7383H105.529V1.16602H107.094V6.9668H109.045V0.744141H110.645ZM97.1096 11.9941C100.608 10.0078 102.075 7.32715 102.339 4.11914H97.7775V2.74805H103.965C103.956 6.8877 102.585 10.6143 98.0764 13.1543L97.1096 11.9941ZM126.935 8.70703V10.0605H120.678V13.1191H119.025V10.0605H112.521V8.70703H126.935ZM114.314 16.1602V11.625H115.984V14.8066H125.336V16.1602H114.314ZM114.367 7.07227V1.48242H125.072V7.07227H114.367ZM116.002 5.75391H123.42V2.80078H116.002V5.75391ZM140.449 1.72852V3.11719C140.449 4.61133 140.449 6.2373 140.009 8.47852H142.277V9.84961H135.896V16.5117H134.209V9.84961H127.916V8.47852H138.322C138.788 6.22852 138.788 4.58496 138.796 3.11719V3.09961H129.673V1.72852H140.449Z" fill="white"/>
</svg>
