<svg width="139" height="26" viewBox="0 0 139 26" fill="none" xmlns="http://www.w3.org/2000/svg">
<path d="M26 0H0V26H26V0Z" fill="#0091D0"/>
<path d="M0 0L6.49812 6.50313L12.9987 0H0Z" fill="#0091D0"/>
<path d="M0 0V12.9987L6.49812 6.50313L0 0Z" fill="#009AD8"/>
<path d="M12.9987 12.9987L6.50062 6.49811L0 12.9987H12.9987Z" fill="#0091D0"/>
<path d="M12.9986 12.9987V0L6.50049 6.49812L12.9986 12.9987Z" fill="#0082C9"/>
<path d="M12.9985 0V12.9987L19.4967 6.50313L12.9985 0Z" fill="#0070BB"/>
<path d="M26 12.9987L19.5018 6.49811L13.0012 12.9987H26Z" fill="#004C98"/>
<path d="M0 12.9987L6.49812 19.5019L12.9987 12.9987H0Z" fill="#0082C9"/>
<path d="M0 12.9987V26L6.49812 19.5019L0 12.9987Z" fill="#0070BB"/>
<path d="M12.9987 26L6.50062 19.4969L0 26H12.9987Z" fill="#0066B3"/>
<path d="M12.9986 26V13.0013L6.50049 19.4969L12.9986 26Z" fill="#00529C"/>
<path d="M12.9985 12.9987L19.4967 19.5019L25.9998 12.9987H12.9985Z" fill="#193181"/>
<path d="M12.9985 12.9987V26L19.4967 19.5019L12.9985 12.9987Z" fill="#004C98"/>
<path d="M26 26L19.5018 19.4969L13.0012 26H26Z" fill="#193181"/>
<path d="M26.0001 26V13.0013L19.502 19.4969L26.0001 26Z" fill="#193181"/>
<path d="M12.9985 0L19.4967 6.50313L25.9998 0H12.9985Z" fill="#0066B3"/>
<path d="M26.0001 12.9987V0L19.502 6.49812L26.0001 12.9987Z" fill="#00529C"/>
<path d="M26.0001 16.2528L17.6769 8.32318L5.04419 20.9885L9.65204 25.5963L17.6769 17.6943L26.0001 25.9724V16.2528Z" fill="white"/>
<path d="M126.763 20.6927C126.763 19.1885 128.202 17.9551 130.002 17.9526C131.802 17.9501 133.236 19.191 133.241 20.6927C133.246 22.1944 131.8 23.4303 130.002 23.4303C128.205 23.4303 126.766 22.1919 126.763 20.6927ZM123.221 20.6927C123.221 23.6409 126.272 25.995 129.99 26C133.708 26.005 136.759 23.6409 136.759 20.6927C136.759 17.7445 133.708 15.3904 129.99 15.3829C126.272 15.3754 123.221 17.742 123.221 20.6927ZM118.232 10.6798C118.232 9.40623 119.455 8.35079 120.99 8.35079C122.524 8.35079 123.747 9.40623 123.747 10.6798C123.747 11.9533 122.527 13.0038 120.99 13.0063C119.453 13.0088 118.232 11.9533 118.232 10.6798ZM115.184 10.6798C115.184 13.2068 117.798 15.2199 120.987 15.225C124.176 15.23 126.788 13.2068 126.791 10.6798C126.793 8.15274 124.179 6.13712 120.987 6.1321C117.796 6.12709 115.186 8.13769 115.184 10.6798ZM91.5577 16.852V22.8086C91.5901 23.375 91.8316 23.9092 92.2356 24.3075C92.6395 24.7059 93.177 24.9401 93.7437 24.9646H109.633V22.6807H95.4961C95.4059 22.6807 95.3733 22.6331 95.3407 22.5554C95.3209 22.5024 95.3099 22.4465 95.3081 22.3899V16.852H91.5577ZM43.9248 20.6802C43.9248 19.191 45.3538 17.9626 47.1363 17.9626C48.9188 17.9626 50.3452 19.191 50.3477 20.6802C50.3503 22.1693 48.9213 23.3927 47.1363 23.3952C45.3513 23.3977 43.9299 22.1668 43.9248 20.6802ZM40.4151 20.6802C40.4151 23.6033 43.4385 25.9448 47.1363 25.9448C50.8341 25.9448 53.855 23.6058 53.86 20.6802C53.8651 17.7545 50.8341 15.4155 47.1363 15.4155C43.4385 15.4155 40.4176 17.7545 40.4151 20.6802ZM43.802 10.8352H47.5098V2.1485H34.2629L35.0852 4.41983H43.802V10.8352ZM33.22 14.2974H49.5605V12.0411H41.0092V7.73156H37.2989V12.0336H32.3977L33.22 14.2974ZM58.6885 8.4987C58.7433 8.44648 58.787 8.38367 58.8168 8.31407C58.8467 8.24448 58.8621 8.16954 58.8621 8.09382C58.8621 8.0181 58.8467 7.94317 58.8168 7.87357C58.787 7.80397 58.7433 7.74116 58.6885 7.68894L56.8709 5.86887C56.8185 5.81435 56.7557 5.77097 56.6861 5.74134C56.6165 5.71171 56.5417 5.69644 56.4661 5.69644C56.3904 5.69644 56.3156 5.71171 56.246 5.74134C56.1765 5.77097 56.1136 5.81435 56.0612 5.86887L54.5044 7.42571V1.61952H50.794V15.0294H54.5018V8.76193L56.0587 10.3213C56.1111 10.3758 56.1739 10.4192 56.2435 10.4488C56.3131 10.4784 56.3879 10.4937 56.4636 10.4937C56.5392 10.4937 56.614 10.4784 56.6836 10.4488C56.7532 10.4192 56.816 10.3758 56.8684 10.3213L58.6885 8.4987ZM82.0662 12.8057L83.0063 10.9104L82.901 10.8854C81.6518 10.5542 80.4454 10.0789 79.306 9.46891C77.4383 8.46611 75.3926 6.88169 74.5953 4.5176H81.8832V2.24627H63.5822L64.407 4.5176H70.9101C70.1104 6.88169 68.0671 8.47112 66.1994 9.46891C65.0595 10.0796 63.8522 10.5549 62.6019 10.8854L62.4991 10.9104L63.4392 12.8057H63.4944C68.5987 12.4648 72.0182 8.73185 72.7502 7.86192C73.4848 8.73185 76.8993 12.4648 82.0035 12.8057H82.0662ZM74.6204 17.5339H85.1849V15.0695H60.288L61.1128 17.5339H70.8474V25.1727H74.6079L74.6204 17.5339ZM103.358 6.2048C103.358 7.6388 101.984 8.8196 100.267 8.8196C98.5496 8.8196 97.1783 7.6388 97.1758 6.2048C97.1733 4.77081 98.5496 3.59252 100.267 3.59252C101.984 3.59252 103.356 4.77331 103.358 6.2048ZM106.75 6.2048C106.75 3.38444 103.832 1.13567 100.267 1.12815C96.702 1.12063 93.7864 3.38444 93.7839 6.2048C93.7814 9.02517 96.702 11.2764 100.267 11.2815C103.832 11.2865 106.745 9.02517 106.75 6.2048ZM88.2559 15.3578H112.448V13.0664H87.4286L88.2559 15.3578ZM114.702 5.31984H127.676V3.03095H123.055V0.536499H119.318V3.03095H113.802L114.629 5.31984H114.702ZM138.057 1.22843H134.319V6.88671H132.522V1.23094H128.786V14.3701H132.524V9.19063H134.322V15.5634H138.057V1.22843Z" fill="#002C6A"/>
</svg>
