<svg width="183" height="30" viewBox="0 0 183 30" fill="none" xmlns="http://www.w3.org/2000/svg">
<g clip-path="url(#clip0_14_961)">
<path d="M41.4333 15.395L41.0692 15.1603C39.8274 13.92 38.0978 13.3837 35.7849 13.5188C33.8604 13.6369 32.3327 14.4007 31.1664 15.1091V15.0565C31.1809 14.4238 31.2284 13.7924 31.3086 13.1647C31.3884 12.5264 31.4358 11.8846 31.4509 11.2416C31.4733 10.6453 31.3766 10.0505 31.1664 9.492C31.1396 9.42731 31.0936 9.37241 31.0345 9.33475C30.9755 9.2971 30.9063 9.2785 30.8364 9.28149C30.2134 9.29571 29 9.72101 28.7028 9.97989L28.5435 10.3298C28.5335 11.0182 28.3813 12.9413 28.2277 13.1746C28.2348 13.1661 28.1466 13.4065 28.1466 13.4065C27.865 16.156 27.865 18.5741 28.1025 20.6451C28.131 20.8528 28.5292 21.1629 28.8393 21.2767C29.1778 21.4018 30.2347 21.1173 30.8449 20.8898L31.0739 20.8499C31.1201 20.8433 31.1646 20.8276 31.2047 20.8036C31.2448 20.7797 31.2797 20.748 31.3073 20.7103C31.335 20.6727 31.3549 20.63 31.3659 20.5846C31.3769 20.5392 31.3787 20.4921 31.3712 20.446L31.3854 19.85C31.8264 18.0606 33.6072 15.9256 35.7152 15.6041C36.9072 15.4149 37.8488 15.7222 38.5928 16.5315C38.6923 16.6737 38.91 17.9653 38.1248 19.4446C37.5373 20.5427 36.3695 21.4658 34.8348 22.0433C33.3782 22.5966 31.7766 22.82 29.798 22.7545C29.7155 22.7019 27.9489 21.5028 27.9489 21.5028C26.3842 20.4004 24.4298 19.0292 22.6632 18.3607C22.3531 18.2398 21.797 17.779 21.4627 17.5073L21.2792 17.3565C20.2608 16.54 18.3206 15.2456 16.7631 14.2087C16.7631 14.2087 16.0604 13.7365 15.9239 13.6469C15.9239 13.5885 15.9239 13.4705 15.9239 13.4705C15.9694 13.4207 16.9494 12.8347 16.9494 12.8347C18.3192 12.0324 18.9536 11.6398 19.083 11.4364C19.056 11.4692 19.2637 11.3283 19.2637 11.3283L22.6618 9.40666C25.9234 7.61585 29.6159 5.58181 31.5561 3.57479L31.6514 3.26613L31.6941 2.99445C31.8205 2.62706 31.83 2.2295 31.7211 1.85652C31.7053 1.79341 31.6726 1.7358 31.6265 1.68992C31.5804 1.64405 31.5226 1.61165 31.4594 1.59622C29.9431 1.44544 27.9901 2.35294 26.2107 4.02285C25.8831 4.32398 25.5149 4.57774 25.1169 4.77672L24.8452 4.91896C22.8837 6.03271 18.4657 8.77654 16.1514 10.2544C16.3703 7.24278 16.7641 4.2464 17.3306 1.28045L17.2666 0.92911L17.0276 0.482474L16.8484 0.165278L16.7958 0.151053C16.6237 0.0664564 16.4366 0.0167461 16.2452 0.00478414C16.0538 -0.0071778 15.8619 0.0188464 15.6806 0.0813566L15.2198 0.252045L14.6024 0.475362C14.5445 0.485895 14.4905 0.511586 14.4458 0.549816C14.401 0.588046 14.3672 0.637448 14.3478 0.69299C13.2426 3.36143 12.3223 7.7524 12.1033 11.2657C10.41 10.2001 8.65758 9.23129 6.85458 8.36404L6.82756 8.34839L6.7095 8.32278C6.3482 8.27727 5.9101 8.0127 5.48907 7.75382C5.44355 7.7268 4.64843 7.20904 4.64843 7.20904L3.36826 6.38831C3.37822 6.38831 3.02973 6.31008 3.02973 6.31008C2.47925 6.40538 1.42241 7.11658 1.10805 7.60162C1.06948 7.66294 1.04924 7.73401 1.04974 7.80645C1.05666 7.91038 1.07625 8.01308 1.10805 8.11227L1.16495 8.37257L1.22469 8.52904C1.83917 9.15916 3.39102 10.2089 4.91157 11.0268L6.67536 11.9613L9.37793 13.4349C9.37793 13.4477 9.83737 13.8019 9.83737 13.8019L10.1546 13.984L10.2129 14.0195L5.29704 17.2939L2.7168 19.0008C2.23397 19.2653 1.73678 19.5028 1.22754 19.712C0.669953 19.9396 0.244653 20.2895 0.0696966 20.6693L0 20.8186L0.0696966 20.9168L0.268835 21.0676C0.258878 21.0676 0.531979 21.2397 0.531979 21.2397L0.816461 21.4345L1.0853 21.4786C1.53904 21.4943 2.21184 21.2368 3.46783 20.6849C4.62282 20.1757 7.75639 18.2825 9.09772 17.476L9.66668 17.1332C9.90422 17.1531 10.1631 16.9525 10.395 16.7776C10.7727 16.4936 11.1783 16.2486 11.6054 16.0465C11.6168 16.0465 11.8188 15.9298 12.0122 15.8231C12.0122 15.8829 12.0122 15.9753 12.0122 15.9753C12.072 20.0761 12.3067 23.0575 12.7562 25.3547V25.3945L12.8002 25.487C13.0207 25.8113 13.2725 26.7828 13.4944 27.6391L14.005 29.346C14.0164 29.3673 14.1473 29.5067 14.1473 29.5067C14.4389 29.7058 15.3279 30.0458 15.921 29.9747L16.0632 29.9576L16.1557 29.7499C16.2052 29.4912 16.2286 29.2282 16.2254 28.9648C16.2254 28.6518 16.2012 28.309 16.1742 27.8866L16.1344 27.2693C15.9466 24.4059 15.7574 20.2753 15.7574 17.5258V17.3081C16.2453 17.6125 18.3718 18.9524 18.3718 18.9524C21.9933 21.3008 27.461 24.8497 30.7667 25.7871C30.8491 25.8132 30.937 25.8168 31.0213 25.7976C31.1055 25.7783 31.1831 25.7369 31.246 25.6776C31.246 25.6705 31.7538 25.3518 31.7538 25.3518L31.8491 25.312C32.0383 25.2224 32.1649 24.9024 32.1877 24.5567C34.9727 24.4145 38.8573 23.3434 40.9369 20.729C41.6809 19.7834 42.0911 18.618 42.1033 17.4148C42.1033 16.5429 41.8615 15.7933 41.4219 15.3794" fill="#F8B500"/>
<path d="M109.099 13.0122V16.2155H116.613V24.5479H114.047V18.433H98.9683V16.2155H106.538V13.0122H97.3979V10.7975H113.926V6.36815H99.2499V4.16626H116.497V10.7819H118.333V13.0122H109.099Z" fill="#7C7266"/>
<path d="M130.515 12.4887H123.468V6.69526H130.515V12.4887ZM133.063 4.46777H120.912V14.7333H133.063V4.46777Z" fill="#7C7266"/>
<path d="M139.347 24.4654H123.227V16.9281H125.793V22.2465H139.347V24.4654Z" fill="#7C7266"/>
<path d="M139.15 3.97559H136.597V17.4444H139.15V3.97559Z" fill="#7C7266"/>
<path d="M162.354 16.9238V14.7119H141.43V16.9238H143.692V24.4639H160.43V22.2478H146.246V16.9238H162.354Z" fill="#7C7266"/>
<path d="M151.899 11.2356C149.252 11.2356 147.111 10.3181 147.111 8.27129C147.111 6.22445 149.252 5.31268 151.899 5.31268C154.546 5.31268 156.688 6.24151 156.688 8.27129C156.688 10.3011 154.54 11.2356 151.899 11.2356ZM151.899 2.97424C147.774 2.97424 144.416 4.72096 144.416 8.27271C144.416 11.8003 147.768 13.574 151.899 13.574C156.03 13.574 159.384 11.8003 159.384 8.27271C159.384 4.71669 156.034 2.97424 151.899 2.97424Z" fill="#7C7266"/>
<path d="M175.572 14.0733H178.06V10.0237H179.481V14.7261H181.973V3.97559H179.481V7.89005H178.06V3.97559H175.572V14.0733Z" fill="#7C7266"/>
<path d="M174.431 4.88162H169.904V3.078H167.343V4.88162H162.792V7.05221H164.615C163.709 7.74635 163.152 8.7591 163.152 10.0947C163.152 12.8798 165.595 14.288 168.614 14.288C171.632 14.288 174.076 12.8798 174.076 10.0947C174.076 8.75626 173.517 7.74635 172.608 7.05221H174.431V4.88162ZM168.614 11.9439C167.049 11.9439 165.787 11.2697 165.787 9.75194C165.787 8.23423 167.05 7.55005 168.614 7.55005C170.177 7.55005 171.434 8.24134 171.434 9.75194C171.434 11.2625 170.167 11.9439 168.614 11.9439Z" fill="#7C7266"/>
<path d="M174.657 23.0543C172.042 23.0543 169.924 22.1383 169.924 20.0786C169.924 18.019 172.042 17.1058 174.657 17.1058C177.273 17.1058 179.391 18.0346 179.391 20.0786C179.391 22.1226 177.272 23.0543 174.657 23.0543ZM174.667 14.8171C170.586 14.8171 167.288 16.5482 167.288 20.08C167.288 23.5792 170.586 25.343 174.667 25.343C178.748 25.343 182.042 23.5792 182.042 20.08C182.042 16.5439 178.738 14.8171 174.667 14.8171Z" fill="#7C7266"/>
<path d="M73.7773 4.20752H83.8039C88.5732 4.20752 91.0653 5.79066 91.0653 9.25564C91.0653 11.7178 89.347 13.4148 87.0584 13.8728V13.9595C90.3399 14.3493 91.8945 16.5014 91.8945 18.9294C91.8945 21.9777 89.6642 24.6077 84.1239 24.6077H73.7773V4.20752ZM77.0261 12.7989H83.6417C86.1011 12.7989 87.909 11.8672 87.909 9.69375C87.909 7.79483 87.0128 6.53031 83.262 6.53031H77.0261V12.7989ZM77.0261 22.2906H83.4383C87.4211 22.2906 88.4751 20.7373 88.4751 18.7587C88.4751 16.416 86.8535 15.1188 83.2676 15.1188H77.0261V22.2906Z" fill="#7C7266"/>
<path d="M51.7131 4.20032H54.969V13.3293L65.9344 4.20032H70.5444L58.9589 13.4133L71.5074 24.6005H66.9002L54.969 13.6679V24.6005H51.7131V4.20032Z" fill="#7C7266"/>
</g>
<defs>
<clipPath id="clip0_14_961">
<rect width="182.041" height="30" fill="white"/>
</clipPath>
</defs>
</svg>
