<svg width="187" height="27" viewBox="0 0 187 27" fill="none" xmlns="http://www.w3.org/2000/svg">
<g clip-path="url(#clip0_14_875)">
<path d="M16.9468 0L11.6204 2.67234L6.30273 0L11.6204 10.1184L16.9468 0Z" fill="#FABE00"/>
<path d="M18.806 7.82688L18.7281 7.78348L22.5241 6.19224V0.813062L15.9267 3.62364L12.2693 10.5423C15.1887 10.8858 17.3343 13.4463 17.1622 16.3813C16.9903 19.3167 14.5602 21.6088 11.6206 21.6088C8.681 21.6088 6.25092 19.3167 6.07907 16.3813C5.90691 13.4463 8.05249 10.8857 10.972 10.5423L7.32313 3.62364L0.699887 0.812988V6.15766L4.53035 7.7834L4.44384 7.86124C1.00851 10.8561 -0.208549 15.6687 1.39019 19.9371C2.98885 24.2053 7.06791 27.0337 11.625 27.0337C16.1822 27.0337 20.261 24.2053 21.8597 19.9372C23.4584 15.6687 22.2413 10.8561 18.806 7.86131V7.82688Z" fill="#FABE00"/>
<path d="M159.539 16.2502H136.452L135.475 14.7021H159.539C159.79 14.7021 159.842 15.0133 159.842 15.4803C159.842 15.9473 159.798 16.2502 159.539 16.2502ZM147.935 12.6438C141.951 12.6438 137.412 11.1216 137.412 7.93915C137.412 4.75639 141.951 3.23438 147.935 3.23438C153.919 3.23438 158.458 4.75639 158.458 7.93915C158.458 11.1216 153.919 12.6438 147.935 12.6438ZM158.709 24.2759H139.046C138.129 24.2759 137.386 23.5324 137.386 22.6155V17.6338H140.153C140.631 17.6338 141.018 18.021 141.018 18.4986V21.9578C141.017 22.4191 141.378 22.7998 141.839 22.8228H158.709C158.951 22.8228 159.011 23.1254 159.011 23.6011C159.011 24.0767 158.934 24.2758 158.709 24.2758V24.2759ZM147.935 4.78258C144.001 4.78258 141.122 5.75105 141.122 7.93915C141.122 10.1273 144.001 11.0957 147.935 11.0957C151.869 11.0957 154.749 10.1273 154.749 7.93915C154.749 5.75105 151.869 4.78258 147.935 4.78258ZM184.484 18.0317H180.248C180.703 18.245 181.089 18.5833 181.36 19.0075C181.631 19.4316 181.776 19.924 181.778 20.4273C181.778 22.7709 178.994 23.7828 175.207 23.7828C171.419 23.7828 168.635 22.7709 168.635 20.4273C168.635 18.0837 171.419 17.037 175.207 17.037H185.444V4.06469C185.444 3.58707 185.057 3.19995 184.58 3.19995H181.986V7.66238H180.049V4.06469C180.049 3.58707 179.662 3.19995 179.184 3.19995H176.59V14.5897H180.049V9.32284H181.986V15.6447H175.207C169.24 15.6447 164.761 17.2794 164.761 20.4704C164.761 23.6618 169.24 25.2964 175.207 25.2964C181.173 25.2964 185.652 23.6618 185.652 20.4704C185.649 20.003 185.543 19.5421 185.341 19.1205C185.139 18.699 184.847 18.3272 184.484 18.0317Z" fill="#005BAC"/>
<path d="M175.224 9.69476C175.215 8.77922 174.912 7.89086 174.359 7.16066H170.901C171.5 7.8548 171.81 8.75286 171.765 9.66894C171.765 11.3205 171.039 13.0761 168.998 13.0761C167.269 13.0761 166.188 11.4331 166.188 9.66894C166.188 7.90438 167.209 6.15769 168.972 6.15769H175.674C175.881 6.15769 175.924 5.75968 175.924 5.34475C175.924 4.92945 175.924 4.61818 175.674 4.61818H170.745V3.30371C170.75 3.11626 170.681 2.93437 170.553 2.79698C170.426 2.65959 170.249 2.57762 170.062 2.5686H167.053V4.61825H161.666L162.479 6.15769H164.519C163.972 6.56832 163.529 7.10308 163.229 7.718C162.928 8.33291 162.778 9.01041 162.79 9.69476C162.79 12.4275 165.237 14.6156 168.972 14.6156C172.708 14.6156 175.224 12.4275 175.224 9.69476ZM100.681 16.527C101.193 16.8206 101.618 17.2454 101.911 17.7577C102.204 18.2699 102.356 18.8511 102.35 19.4413C102.35 22.2522 99.3235 23.5408 95.5795 23.5408C91.8356 23.5408 88.8093 22.2522 88.8093 19.4413C88.8093 16.6307 91.7924 15.3507 95.5795 15.3507H106.82C106.9 15.3462 106.975 15.3114 107.029 15.2536C107.084 15.1957 107.114 15.1191 107.114 15.0395C107.16 14.724 107.16 14.4035 107.114 14.088C107.106 14.0153 107.072 13.9482 107.018 13.8989C106.964 13.8496 106.894 13.8216 106.82 13.8199H97.3347V10.8883H106.327C106.406 10.8859 106.481 10.853 106.536 10.7964C106.591 10.7399 106.621 10.6642 106.621 10.5854C106.667 10.2671 106.667 9.94386 106.621 9.62554C106.611 9.55297 106.574 9.48669 106.519 9.43898C106.463 9.39127 106.392 9.36536 106.319 9.36606H89.2674C88.7901 9.36606 88.4029 8.97893 88.4029 8.50132V4.3673C88.4029 3.88969 88.0155 3.50257 87.5382 3.50257H84.8578V9.28815C84.8813 10.1782 85.6194 10.8817 86.5091 10.8622H93.7896V13.8373H83.3445L84.356 15.368H87.4604C86.7932 15.781 86.2428 16.3578 85.8614 17.0436C85.48 17.7293 85.2804 18.5012 85.2814 19.2859C85.2814 23.2899 89.8902 25.1148 95.5794 25.1148C101.269 25.1148 105.878 23.2899 105.878 19.2859C105.908 18.303 105.603 17.3391 105.013 16.5528L100.681 16.527ZM120.223 7.16957C120.408 7.38227 120.57 7.61415 120.707 7.86127C121.03 8.42141 121.2 9.05675 121.2 9.70345C121.2 11.7429 119.546 13.3963 117.507 13.3963C115.469 13.3963 113.816 11.7429 113.816 9.70345C113.786 7.67366 115.401 6.00143 117.43 5.95854H125.376C125.455 5.9563 125.53 5.92343 125.584 5.86692C125.639 5.81042 125.67 5.73473 125.67 5.65595C125.72 5.32915 125.72 4.99669 125.67 4.67019C125.662 4.59604 125.626 4.52766 125.57 4.47817C125.514 4.42869 125.442 4.4016 125.367 4.4021H119.315V3.53707C119.315 3.05946 118.927 2.67234 118.45 2.67234H115.7V4.4021H108.783C108.921 4.60957 109.769 5.90682 109.812 5.95854H112.406C111.772 6.36395 111.245 6.91574 110.869 7.56745C110.492 8.21917 110.278 8.95172 110.244 9.70345C110.244 12.6091 113.176 14.9616 117.507 14.9616C120.422 14.9616 122.557 13.8978 123.802 12.3065H128.835V18.0144H115.484V16.4319C115.484 15.9542 115.097 15.5669 114.62 15.5669H111.879V22.6671C111.885 22.8867 111.935 23.1028 112.026 23.3028C112.117 23.5029 112.246 23.683 112.407 23.8326C112.568 23.9822 112.757 24.0985 112.963 24.1746C113.169 24.2507 113.388 24.2851 113.608 24.2759H132.561V3.99548C132.561 3.5178 132.174 3.13075 131.697 3.13075H128.938V7.16957H120.223ZM128.869 22.7364H115.977C115.913 22.7387 115.849 22.7281 115.79 22.7052C115.73 22.6824 115.675 22.6477 115.629 22.6033C115.584 22.5589 115.547 22.5057 115.522 22.4468C115.497 22.388 115.484 22.3247 115.484 22.2608V19.5712H128.835L128.869 22.7364ZM128.869 10.767H124.606C124.704 10.4267 124.753 10.0746 124.754 9.72066C124.752 9.39414 124.711 9.06899 124.632 8.75219H128.835L128.869 10.767ZM78.3556 3.667H75.1649V11.9002H62.091V3.667H58.935C58.1123 3.74454 57.5038 4.46846 57.5691 5.29266V22.7019C57.5088 23.5244 58.1145 24.2454 58.935 24.3277H62.091V15.4803H75.1649V24.3277H78.3556C79.1795 24.2498 79.7905 23.5276 79.7301 22.7019V5.29266C79.7468 5.09564 79.7244 4.89727 79.6643 4.7089C79.6042 4.52052 79.5076 4.34585 79.3799 4.19486C79.2523 4.04387 79.0961 3.91953 78.9203 3.82895C78.7446 3.73838 78.5527 3.68334 78.3556 3.667ZM52.2513 3.667H49.0606V19.4933L39.4716 6.84954C37.8806 5.00736 36.7823 3.66707 34.2317 3.66707H30.9631V22.6931C30.903 23.5191 31.5139 24.2412 32.3379 24.3191H35.5459V8.43202L45.1956 20.9894C46.821 22.8747 48.2737 24.3277 50.6343 24.3277H53.6173V5.30134C53.6874 4.47398 53.0779 3.74461 52.2513 3.667Z" fill="#005BAC"/>
</g>
<defs>
<clipPath id="clip0_14_875">
<rect width="186.352" height="27" fill="white"/>
</clipPath>
</defs>
</svg>
