<svg width="182" height="28" viewBox="0 0 182 28" fill="none" xmlns="http://www.w3.org/2000/svg">
<path d="M178.926 3.26778V7.34264H177.044V3.26778H174.935V14.4925H177.044V9.18581H178.926V14.9081H181.034V3.26778H178.926ZM173.583 15.6701C169.52 15.6701 166.217 17.6488 166.217 20.0792C166.217 22.5097 169.529 24.4884 173.583 24.4884C177.637 24.4884 180.953 22.5097 180.953 20.0792C180.953 17.6488 177.646 15.6731 173.583 15.6731V15.6701ZM173.583 22.6663C170.746 22.6663 168.442 21.5038 168.442 20.0792C168.442 18.6547 170.746 17.4861 173.583 17.4861C176.42 17.4861 178.733 18.6487 178.733 20.0792C178.733 21.5098 176.42 22.6693 173.58 22.6693L173.583 22.6663ZM134.431 17.9529H124.721V15.6158H122.462V22.8922C122.48 23.187 122.612 23.4632 122.83 23.6622C123.048 23.8613 123.336 23.9675 123.631 23.9583H136.675V15.6158H134.428L134.431 17.9529ZM134.407 22.1182H124.721V19.772H134.392L134.407 22.1182ZM134.431 7.36071H130.133C129.642 4.95133 127.383 3.2226 124.736 3.2226C121.7 3.2226 119.234 5.50549 119.234 8.3094C119.234 11.1133 121.7 13.3872 124.736 13.3872C127.413 13.3872 129.672 11.6313 130.139 9.20388H134.416V14.2064H136.662V3.26778H134.416L134.431 7.36071ZM124.751 11.5922C124.097 11.6108 123.453 11.4339 122.901 11.0842C122.348 10.7345 121.912 10.2279 121.649 9.62916C121.386 9.03046 121.308 8.3669 121.424 7.72341C121.541 7.07991 121.846 6.48575 122.302 6.01696C122.758 5.54816 123.343 5.22606 123.983 5.09186C124.623 4.95767 125.289 5.01748 125.895 5.26366C126.501 5.50984 127.019 5.93118 127.384 6.47376C127.749 7.01635 127.944 7.65548 127.944 8.3094C127.95 8.73662 127.873 9.16098 127.715 9.55808C127.557 9.95518 127.323 10.3172 127.025 10.6234C126.726 10.9295 126.371 11.1738 125.978 11.3421C125.585 11.5105 125.163 11.5995 124.736 11.6042L124.751 11.5922ZM146.104 17.3657H143.845V22.8831C143.863 23.179 143.996 23.4563 144.214 23.6564C144.433 23.8565 144.721 23.9637 145.017 23.9553H158.693V22.1121H146.089L146.104 17.3657ZM141.517 15.7634H160.353V13.9293H141.502L141.517 15.7634ZM150.935 12.1132C155.073 12.1132 158.44 10.005 158.44 7.41492C158.44 4.82484 155.073 2.72266 150.935 2.72266C146.797 2.72266 143.43 4.83086 143.43 7.41492C143.43 9.99898 146.782 12.1253 150.92 12.1253L150.935 12.1132ZM150.935 4.54174C153.847 4.54174 156.215 5.83075 156.215 7.41492C156.215 8.99909 153.847 10.2971 150.935 10.2971C148.023 10.2971 145.652 9.01716 145.652 7.42697C145.652 5.83678 148.008 4.55378 150.92 4.55378L150.935 4.54174Z" fill="#00367F"/>
<path d="M96.8955 14.4112C99.0832 13.3702 100.878 11.6534 102.015 9.51409C103.151 11.6549 104.946 13.3724 107.135 14.4112L108.189 12.9685C106.575 12.0598 105.225 10.7456 104.274 9.1557C103.247 7.24325 103.187 4.98446 103.187 4.4032V3.6593H100.889V4.40923C100.889 5.01157 100.817 7.25229 99.7717 9.1557C98.8208 10.7442 97.4711 12.0566 95.8564 12.9625L96.8955 14.4112Z" fill="#00367F"/>
<path d="M101.862 16.7994H99.6152V22.9072C99.6331 23.2039 99.7657 23.4819 99.9849 23.6826C100.204 23.8832 100.493 23.9908 100.79 23.9824H113.671V22.1362H101.862V16.7994Z" fill="#00367F"/>
<path d="M113.457 3.28882H111.207V18.3264H113.457V10.3603H116.544V8.51717H113.457V3.28882Z" fill="#00367F"/>
<path d="M53.1173 4.04773H49.6388L49.6177 4.06881L39.6639 13.2666V4.05074H37.3208L37.3238 23.9673H39.6639V14.5888L50.6718 23.9673H54.3913L42.254 13.887L53.1173 4.04773Z" fill="#00367F"/>
<path d="M88.3274 13.6552C89.8333 12.9444 91.318 11.5952 91.315 9.09847V9.04126C91.3246 8.4454 91.2149 7.85364 90.9925 7.30076C90.7701 6.74788 90.4395 6.24502 90.02 5.82172C88.8725 4.69835 87.0715 4.0448 84.8007 4.0448H76.3076V23.9643H85.1681C89.505 23.9643 92.4113 21.9344 92.4173 18.489V18.4348C92.4203 15.7664 90.5922 14.378 88.3274 13.6552ZM78.7501 14.9894H84.8157C88.2461 14.9894 89.9869 16.2122 89.9869 18.3023V18.3595C89.9869 20.5069 88.1798 21.8019 85.2073 21.811H78.6718V6.21324H84.6019C87.4058 6.21324 88.8906 7.45708 88.8936 9.35447V9.40567C88.8936 11.6705 87.0866 12.8481 84.4333 12.8571H80.0241L78.7501 14.9894Z" fill="#00367F"/>
<path d="M62.83 4.04773H55.9031V23.9673H62.83C65.9532 23.9673 68.5975 22.88 70.4617 21.0881C71.409 20.1719 72.1589 19.0717 72.6654 17.8551C73.1719 16.6385 73.4243 15.3312 73.4072 14.0135V13.9563C73.4256 12.6411 73.1737 11.3361 72.667 10.1223C72.1603 8.90848 71.4097 7.81165 70.4617 6.89983C68.6035 5.1199 65.9592 4.04773 62.83 4.04773ZM70.9376 14.0617C70.9376 18.3956 67.7904 21.7416 62.83 21.7446H58.2884V6.27942H62.83C67.7873 6.27942 70.9316 9.67965 70.9376 14.0135V14.0557V14.0617Z" fill="#00367F"/>
<path d="M5.5109 6.33362C4.90855 7.53831 5.5109 10.0682 6.29696 11.2789L16.9524 28H9.16713C8.59123 27.9951 8.02433 27.8565 7.51111 27.5952C6.99788 27.3339 6.55235 26.9569 6.20962 26.4941L0.400002 17.3626C0.137834 16.9012 0 16.3798 0 15.8492C0 15.3186 0.137834 14.7971 0.400002 14.3358L5.5109 6.33362Z" fill="url(#paint0_radial_14_298)"/>
<path d="M10.0074 14.5737C9.80792 14.9303 9.69402 15.3284 9.67469 15.7366C9.65535 16.1448 9.7311 16.5519 9.89596 16.9258L6.28189 11.2788C5.50787 10.0742 4.88143 7.55033 5.49583 6.33359L6.13431 5.33069C6.71256 4.42717 7.78775 3.82483 9.14603 3.82483H16.8018L10.0074 14.5737Z" fill="url(#paint1_radial_14_298)"/>
<path d="M25.8251 21.6663C26.4274 20.4617 25.8251 17.9318 25.039 16.7211L14.3835 0H22.1719C22.7478 0.00466638 23.3148 0.143131 23.828 0.404466C24.3413 0.665801 24.7868 1.04285 25.1294 1.50586L30.939 10.6374C31.199 11.0967 31.3356 11.6155 31.3356 12.1433C31.3356 12.6711 31.199 13.1898 30.939 13.6491L25.8251 21.6663Z" fill="url(#paint2_radial_14_298)"/>
<path d="M21.3316 13.4263C21.5306 13.0694 21.6439 12.6711 21.6627 12.2629C21.6816 11.8548 21.6053 11.4478 21.44 11.0741L25.0541 16.7211C25.8281 17.9258 26.4545 20.4466 25.8401 21.6663L25.1836 22.6692C24.6053 23.5728 23.5301 24.1751 22.1718 24.1751H14.519L21.3316 13.4263Z" fill="url(#paint3_radial_14_298)"/>
<path d="M173.339 4.86396H169.424V3.01477H167.165V4.86396H163.196V6.62884H165.171L165.048 6.74027C164.597 7.13296 164.236 7.61744 163.987 8.16127C163.739 8.7051 163.61 9.29572 163.608 9.89355C163.608 12.3029 165.717 14.2545 168.307 14.2545C170.897 14.2545 173.005 12.2999 173.005 9.89355C173.002 9.29849 172.872 8.71093 172.624 8.16987C172.377 7.6288 172.017 7.14661 171.568 6.75533L171.442 6.64389H173.339V4.86396ZM168.307 12.5168C167.759 12.5487 167.214 12.4154 166.742 12.1341C166.271 11.8527 165.895 11.4364 165.663 10.9389C165.431 10.4414 165.354 9.88569 165.441 9.34379C165.529 8.8019 165.777 8.29877 166.154 7.89958C166.531 7.50039 167.019 7.22353 167.555 7.10487C168.091 6.98621 168.65 7.03122 169.16 7.23406C169.67 7.4369 170.107 7.78823 170.415 8.24254C170.723 8.69685 170.888 9.2332 170.888 9.78211C170.906 10.4865 170.645 11.1697 170.162 11.6822C169.678 12.1946 169.011 12.4947 168.307 12.5168Z" fill="#00367F"/>
<defs>
<radialGradient id="paint0_radial_14_298" cx="0" cy="0" r="1" gradientUnits="userSpaceOnUse" gradientTransform="translate(0.248996 11.3148) rotate(-90) scale(20.6676 22.6359)">
<stop stop-color="#D3E6F6"/>
<stop offset="0.07" stop-color="#CBE2F5"/>
<stop offset="0.17" stop-color="#B5D6F1"/>
<stop offset="0.25" stop-color="#A1CBED"/>
<stop offset="0.34" stop-color="#8FBCE4"/>
<stop offset="0.53" stop-color="#5F95CB"/>
<stop offset="0.7" stop-color="#2F6EB3"/>
<stop offset="0.82" stop-color="#205CA2"/>
<stop offset="1" stop-color="#00367F"/>
</radialGradient>
<radialGradient id="paint1_radial_14_298" cx="0" cy="0" r="1" gradientUnits="userSpaceOnUse" gradientTransform="translate(18.2892 4.0864) scale(14.5353 14.5353)">
<stop stop-color="#D3E6F6"/>
<stop offset="0.07" stop-color="#CBE2F5"/>
<stop offset="0.17" stop-color="#B5D6F1"/>
<stop offset="0.25" stop-color="#A1CBED"/>
<stop offset="0.34" stop-color="#8FBCE4"/>
<stop offset="0.53" stop-color="#5F95CB"/>
<stop offset="0.7" stop-color="#2F6EB3"/>
<stop offset="0.82" stop-color="#205CA2"/>
<stop offset="1" stop-color="#00367F"/>
</radialGradient>
<radialGradient id="paint2_radial_14_298" cx="0" cy="0" r="1" gradientUnits="userSpaceOnUse" gradientTransform="translate(31.0872 16.6759) rotate(90) scale(20.6638 22.6318)">
<stop stop-color="#D3E6F6"/>
<stop offset="0.07" stop-color="#CBE2F5"/>
<stop offset="0.17" stop-color="#B5D6F1"/>
<stop offset="0.25" stop-color="#A1CBED"/>
<stop offset="0.34" stop-color="#8FBCE4"/>
<stop offset="0.53" stop-color="#5F95CB"/>
<stop offset="0.7" stop-color="#2F6EB3"/>
<stop offset="0.82" stop-color="#205CA2"/>
<stop offset="1" stop-color="#00367F"/>
</radialGradient>
<radialGradient id="paint3_radial_14_298" cx="0" cy="0" r="1" gradientUnits="userSpaceOnUse" gradientTransform="translate(13.3392 23.9135) rotate(180) scale(14.5367)">
<stop stop-color="#D3E6F6"/>
<stop offset="0.07" stop-color="#CBE2F5"/>
<stop offset="0.17" stop-color="#B5D6F1"/>
<stop offset="0.25" stop-color="#A1CBED"/>
<stop offset="0.34" stop-color="#8FBCE4"/>
<stop offset="0.53" stop-color="#5F95CB"/>
<stop offset="0.7" stop-color="#2F6EB3"/>
<stop offset="0.82" stop-color="#205CA2"/>
<stop offset="1" stop-color="#00367F"/>
</radialGradient>
</defs>
</svg>
