<svg width="180" height="40" viewBox="0 0 180 40" fill="none" xmlns="http://www.w3.org/2000/svg">
<path d="M104.596 19.5149H103.208V14.0085H100.715V31.0043H103.208V21.3447H104.596V31.0043H107.089V14.0085H104.596V19.5149Z" fill="#0B386A"/>
<path d="M96.6214 19.0298V14.5873H93.9916V19.0298C93.9916 22.1788 92.8682 23.8979 90.5703 24.7234V26.5617C92.715 26.0766 94.4682 25.0383 95.3022 23.3788C96.1363 25.0383 97.8895 26.0852 100.034 26.5617V24.7234C97.7363 23.8894 96.6129 22.1788 96.6129 19.0298H96.6214Z" fill="#0B386A"/>
<path d="M124.034 14.0085H121.43V31.0043H124.034V21.3447H126.74V19.5149H124.034V14.0085Z" fill="#0B386A"/>
<path d="M117.753 14.7831H109.549V24.8256C109.549 25.6767 110.247 26.3746 111.089 26.3746H118.621V15.6512C118.621 15.1661 118.238 14.7831 117.753 14.7831ZM116.017 24.6299H112.153V16.5193H116.017V24.6299Z" fill="#0B386A"/>
<path d="M129.396 17.1915C129.396 19.2426 131.847 20.6724 135.575 20.6724C139.302 20.6724 141.753 19.2426 141.753 17.1915C141.753 15.1405 139.302 13.7107 135.575 13.7107C131.847 13.7107 129.396 15.1405 129.396 17.1915ZM139.047 17.1915C139.047 18.1362 137.66 18.9277 135.566 18.9277C133.473 18.9277 132.094 18.1362 132.094 17.1915C132.094 16.2469 133.481 15.4554 135.566 15.4554C137.651 15.4554 139.047 16.2469 139.047 17.1915Z" fill="#0B386A"/>
<path d="M144.068 21.4469H127.073V23.1831H144.068V21.4469Z" fill="#0B386A"/>
<path d="M129.004 26.698V29.4639C129.004 30.315 129.702 31.0128 130.545 31.0128H142.323V29.3873H131.702V28.2639H142.128V24.9192C142.128 24.4341 141.745 24.0511 141.26 24.0511H128.996V25.6767H139.421V26.698H128.996H129.004Z" fill="#0B386A"/>
<path d="M160.247 18.2554V15.4554C160.247 14.9703 159.864 14.5873 159.379 14.5873H147.115V16.3234H157.643V18.2554C157.643 19.4128 157.447 20.2043 157.064 20.766H145.183V22.5022H162.179V20.766H159.575C159.958 20.2043 160.247 19.4128 160.247 18.2554Z" fill="#0B386A"/>
<path d="M160.247 31.0043V24.9192C160.247 24.4341 159.864 24.0511 159.379 24.0511H147.115V29.4639C147.115 30.315 147.813 31.0128 148.664 31.0128H160.255L160.247 31.0043ZM149.719 25.7873H157.634V29.2682H149.719V25.7873Z" fill="#0B386A"/>
<path d="M174.664 25.4043H177.175C177.634 24.4 177.949 23.0894 177.949 21.3447V15.8383C177.949 15.3532 177.566 14.9702 177.081 14.9702H164.817V16.7064H175.345V21.3447C175.345 23.0809 175.098 24.4 174.672 25.4043H174.664Z" fill="#0B386A"/>
<path d="M171.634 21.3447H169.004V27.3362H162.885V29.0724H179.881V27.3362H171.634V21.3447Z" fill="#0B386A"/>
<path d="M80.4682 24.4851H84.2724V26.6213C83.1235 27.6851 81.6086 28.1873 80.1022 28.1873C77.1745 28.1873 74.8937 26.3234 74.8937 22.4596C74.8937 19.4639 76.332 16.7405 80.1107 16.7405C82.0171 16.7405 83.6171 17.5064 84.1703 19.617H86.9533C86.6554 16.5192 84.1873 14.1277 80.2809 14.1277C75.2256 14.1277 71.8979 17.2596 71.8979 22.5873C71.8979 27.9149 75.6001 30.9022 80.2809 30.9022C82.4682 30.9022 85.1831 29.949 87.1065 27.7532V21.8809H80.4767V24.4851H80.4682Z" fill="#0B386A"/>
<path d="M62.0682 26.4681L57.6341 14.3915H53.9575V30.6213H56.7575V19.6085L60.7575 30.4255H63.3873L67.3873 19.6085V30.6213H70.1873V14.3915H66.5107L62.0682 26.4681Z" fill="#0B386A"/>
<path d="M15.4981 31.8298C11.9662 31.8298 9.09812 28.9617 9.09812 25.4298C9.09812 23.7532 9.74492 22.2213 10.8002 21.0809C9.69386 19.0554 9.07258 16.732 9.07258 14.2639C9.07258 13.8894 9.08961 13.5064 9.11514 13.132C3.8045 15.0639 0.000244141 20.1617 0.000244141 26.1532C0.000244141 33.7958 6.19599 40 13.8471 40C16.2981 40 18.596 39.3617 20.596 38.2469V29.3022C19.4215 30.8341 17.5832 31.8298 15.4981 31.8298Z" fill="url(#paint0_linear_14_881)"/>
<path d="M15.498 19.0213C16.2214 19.0213 16.9193 19.1404 17.5661 19.3617C16.8512 18.2723 16.4257 16.9617 16.4257 15.5574C16.4257 11.7447 19.515 8.65532 23.3278 8.65532C26.1108 8.65532 28.5023 10.2979 29.6001 12.6723C30.6299 12.4255 31.7023 12.2979 32.8086 12.2979C34.4767 12.2979 36.0682 12.5872 37.5406 13.1319C36.9618 5.78723 30.8172 0 23.3278 0C15.4469 0 9.06396 6.38298 9.06396 14.2553C9.06396 16.7234 9.68524 19.0468 10.7916 21.0723C11.9661 19.8043 13.6342 19.0128 15.4895 19.0128L15.498 19.0213Z" fill="url(#paint1_linear_14_881)"/>
<path d="M32.8085 12.2979C31.7022 12.2979 30.6298 12.4255 29.6 12.6723C30.0085 13.5489 30.2298 14.5276 30.2298 15.5574C30.2298 16.9617 29.8128 18.2638 29.0894 19.3532C29.7362 19.1319 30.4341 19.0127 31.1575 19.0127C34.6979 19.0127 37.5575 21.8808 37.5575 25.4213C37.5575 28.9617 34.6894 31.8213 31.1575 31.8213C29.0809 31.8213 27.2341 30.834 26.0681 29.3021V38.2383C28.0681 39.3532 30.366 39.9915 32.8171 39.9915C40.4681 39.9915 46.6639 33.7957 46.6639 26.1447C46.6639 18.4936 40.4596 12.2979 32.8171 12.2979H32.8085Z" fill="url(#paint2_linear_14_881)"/>
<defs>
<linearGradient id="paint0_linear_14_881" x1="12.3747" y1="40.1362" x2="7.60875" y2="13.1064" gradientUnits="userSpaceOnUse">
<stop offset="0.15" stop-color="#44C8F5"/>
<stop offset="0.31" stop-color="#3FC2F1"/>
<stop offset="0.52" stop-color="#32B1E6"/>
<stop offset="0.75" stop-color="#1D96D4"/>
<stop offset="1" stop-color="#0072BC"/>
</linearGradient>
<linearGradient id="paint1_linear_14_881" x1="8.12779" y1="14.2213" x2="34.9448" y2="4.46809" gradientUnits="userSpaceOnUse">
<stop offset="0.15" stop-color="#44C8F5"/>
<stop offset="0.31" stop-color="#3FC2F1"/>
<stop offset="0.52" stop-color="#32B1E6"/>
<stop offset="0.75" stop-color="#1D96D4"/>
<stop offset="1" stop-color="#0072BC"/>
</linearGradient>
<linearGradient id="paint2_linear_14_881" x1="38.9702" y1="13.5404" x2="34.2213" y2="40.4851" gradientUnits="userSpaceOnUse">
<stop offset="0.15" stop-color="#44C8F5"/>
<stop offset="0.31" stop-color="#3FC2F1"/>
<stop offset="0.52" stop-color="#32B1E6"/>
<stop offset="0.75" stop-color="#1D96D4"/>
<stop offset="1" stop-color="#0072BC"/>
</linearGradient>
</defs>
</svg>
