<svg width="123" height="32" viewBox="0 0 123 32" fill="none" xmlns="http://www.w3.org/2000/svg">
<g clip-path="url(#clip0_14_221)">
<path d="M31.9821 15.2877C31.9934 15.5219 32.0001 15.7545 32.0016 15.9864V15.9991C32.0016 23.4013 26.9759 29.63 20.1491 31.4573C19.0288 31.7549 17.8797 31.9312 16.7218 31.9831C16.3731 31.9989 16.0259 32.0034 15.6809 31.9974C7.58344 31.8388 0.96085 25.6648 0.0957863 17.7591C0.0589278 17.4167 0.0334915 17.0732 0.0195199 16.7291C0.00814253 16.4971 0.00163445 16.2649 0 16.0327L0 15.9991C0 7.16435 7.16286 0 16.0004 0C23.5374 0 29.8554 5.2099 31.5534 12.2224C31.7947 13.2279 31.9383 14.2545 31.9821 15.2877ZM24.4459 7.97C23.5097 7.71123 22.8175 7.48904 22.6133 7.05896C22.5167 6.85544 22.5758 6.65054 22.709 6.55475C22.8535 6.44926 23.048 6.48446 23.2748 6.59518C23.6101 6.75752 24.0201 6.99838 24.3352 7.0372C25.2525 7.14792 25.0849 5.74473 23.4364 4.93012C22.4666 4.44841 21.5177 4.25097 20.2321 4.29876C19.7562 4.31828 19.3072 4.301 18.9091 4.23817C18.3082 4.14548 17.5719 3.89033 17.0758 3.78719C16.6964 3.70708 16.4801 3.71764 16.3895 3.84404C16.3058 3.96372 16.3326 4.14025 16.5639 4.43273C17.0279 5.01758 17.759 5.66835 17.3848 7.19059C16.4591 10.9642 17.7268 12.6914 19.0184 12.9749C19.742 13.1357 20.4087 12.9659 20.8158 12.5433C21.2027 12.1386 21.3695 11.4541 20.9969 10.8745C20.4267 9.98663 20.2254 9.21469 20.735 8.89373C21.2005 8.59986 21.8619 8.87058 22.3648 9.99559C23.1692 11.7983 24.2161 12.2762 25.2631 10.9942C26.1206 9.94397 26.087 8.42333 24.4459 7.97ZM21.5327 17.8197C17.1932 15.2197 15.0411 14.1911 13.2848 12.9375C10.3746 10.8626 9.91442 9.31645 9.82535 8.24083C9.66674 6.31539 11.1237 4.58228 12.6068 3.76543C12.7213 3.69588 12.9174 3.53588 12.8321 3.31668C12.746 3.09524 12.4804 3.13791 12.3809 3.15956C9.06354 3.86345 5.83987 6.7844 6.34046 10.6838C6.54025 12.2283 7.52275 14.8366 12.6105 17.8325C14.3459 18.8535 15.844 19.6277 18.196 20.974C21.3808 22.7947 22.8468 25.1404 20.8742 27.6993C20.7245 27.8781 20.5958 28.0636 20.6496 28.2252C20.7103 28.4122 20.9565 28.4444 21.1863 28.3411C22.7001 27.644 23.9505 26.5976 24.5462 25.6274C25.5946 23.919 26.1168 20.5687 21.5327 17.8197ZM16.4569 28.202C16.0723 28.0913 15.4886 27.9103 15.0022 27.6978C14.3885 27.4301 13.8341 27.1361 13.5894 26.8938C13.4292 26.7329 13.4045 26.5512 13.5325 26.3642C14.2659 25.3102 14.4724 24.8928 14.6774 24.3969C15.1129 23.3467 14.6826 23.245 14.0069 23.4395C13.2721 23.6496 12.6906 23.8643 12.2402 24.0334C11.6086 24.269 11.218 24.4134 10.9882 24.3011C10.7488 24.1852 10.7046 23.7693 10.6185 23.0797C10.5579 22.589 10.4547 22.0295 10.323 21.4834C10.0514 20.3892 9.5829 20.5993 9.19602 21.0467C8.7141 21.6315 8.44851 22.3557 8.24861 22.7356C8.14163 22.939 8.01896 23.0064 7.86931 22.9742C7.53555 22.9032 7.0948 22.3863 6.61363 21.7722C5.91091 20.8739 5.59742 20.1834 5.23145 20.1407C4.45396 20.0503 4.79966 21.8889 5.52926 23.4043C6.24094 24.8876 7.34472 26.3478 9.19378 27.5161C11.3032 28.8513 14.4208 29.336 16.3356 29.0667C16.9403 28.9815 17.06 28.3756 16.4569 28.202Z" fill="#0046FF"/>
<path d="M37.8772 17.3302C38.1033 17.3073 38.3747 17.236 38.6962 17.1122C39.0165 16.9876 39.3547 16.8272 39.7115 16.632C40.0641 16.4365 40.4098 16.2288 40.748 16.0094C41.927 15.2232 42.9163 14.263 43.7156 13.1268C44.0514 13.5939 44.4627 14.0332 44.9521 14.4482C45.4358 14.8608 45.9493 15.237 46.4885 15.5739C47.437 16.155 48.1742 16.5044 48.7051 16.6203C49.2379 16.7367 49.5743 16.6637 49.7199 16.4009L50.6604 14.6341C50.0204 14.4154 49.3817 14.1477 48.7472 13.825C48.1154 13.5066 47.5492 13.1268 47.0449 12.6913C46.5449 12.2539 46.1335 11.7484 45.8138 11.1734C45.4917 10.5979 45.3319 9.95489 45.3319 9.24183V6.33805H41.5559C41.3955 6.33805 41.2858 6.40504 41.2281 6.53453C41.1694 6.66583 41.2065 6.81143 41.336 6.97005C41.5416 7.20482 41.668 7.43341 41.7188 7.6589C41.7708 7.88375 41.7951 8.17996 41.7951 8.54359V9.45857C41.7951 10.1574 41.6544 10.7986 41.3706 11.3822C41.0863 11.964 40.6972 12.4948 40.2022 12.975C39.706 13.4563 39.1361 13.8887 38.4881 14.2723C37.8413 14.6595 37.1524 14.9903 36.425 15.2672L37.4287 17.1661C37.5024 17.2974 37.6498 17.3519 37.8772 17.3302ZM43.8044 23.4432C43.585 23.2759 43.4754 22.9377 43.4754 22.4272V18.4542H39.7651C39.6029 18.4542 39.495 18.5192 39.4386 18.6505C39.3792 18.7818 39.4151 18.9256 39.5482 19.0848C39.7521 19.3369 39.8791 19.5637 39.9293 19.7744C39.9795 19.9875 40.0067 20.2805 40.0067 20.6596V22.7561C40.0067 23.4233 40.0934 23.9791 40.2676 24.4133C40.4429 24.8507 40.7105 25.1995 41.076 25.4621C41.4403 25.7249 41.8907 25.9058 42.4297 26.008C42.9674 26.1096 43.6 26.1616 44.3267 26.1616H56.1167V23.6947H44.8743C44.3774 23.6947 44.0225 23.6098 43.8044 23.4432ZM55.7898 19.5687V5.98637H52.0571C51.8967 5.98637 51.7839 6.05144 51.7182 6.17282C51.6526 6.29805 51.6854 6.44045 51.8161 6.60098C52.02 6.83394 52.1612 7.06434 52.2424 7.2973C52.3216 7.5309 52.3631 7.83692 52.3631 8.2142V19.5687H55.7898ZM61.6192 24.4136C61.7926 24.8528 62.0635 25.201 62.4252 25.463C62.7907 25.7244 63.2423 25.9042 63.7795 26.0088C64.3185 26.1116 64.9522 26.1637 65.6796 26.1637H77.2962V23.6949H66.2693C65.7595 23.6949 65.3915 23.6044 65.1672 23.4335C64.9411 23.2587 64.829 22.9081 64.829 22.3834V19.3261H61.1181C60.9557 19.3261 60.8473 19.3942 60.789 19.5255C60.7314 19.6544 60.7674 19.7993 60.8981 19.9605C61.0586 20.1507 61.1757 20.3321 61.2475 20.5075C61.3206 20.6809 61.3578 20.8779 61.3578 21.0961V22.734C61.3578 23.4167 61.4433 23.9762 61.6192 24.4136ZM63.2137 11.0643C63.6189 10.5618 64.2104 10.3091 64.9824 10.3091C65.7389 10.3091 66.3231 10.5618 66.7388 11.0643C67.1544 11.5674 67.3632 12.1887 67.3632 12.9315C67.3632 13.6291 67.1544 14.2301 66.7388 14.7306C66.3231 15.2355 65.7389 15.4846 64.9824 15.4846C64.2104 15.4846 63.6189 15.2355 63.2137 14.7306C62.8042 14.2301 62.6029 13.6291 62.6029 12.9315C62.6029 12.1887 62.8042 11.5674 63.2137 11.0643ZM59.6 11.4893C59.4191 11.9557 59.3262 12.4724 59.3262 13.0394C59.3262 13.7245 59.4532 14.362 59.7103 14.9499C59.9636 15.5397 60.3311 16.0545 60.8081 16.4907C61.2895 16.9262 61.8799 17.2688 62.5793 17.5166C63.2781 17.7644 64.0767 17.8883 64.9824 17.8883C65.8838 17.8883 66.6898 17.7644 67.3929 17.5166C68.0998 17.2688 68.6909 16.9262 69.1716 16.4907C69.6517 16.0545 70.0166 15.5397 70.2639 14.9499C70.511 14.362 70.6343 13.7245 70.6343 13.0394C70.6343 12.4867 70.5364 11.9738 70.3413 11.5004C70.1478 11.0331 69.8774 10.6016 69.5414 10.2236H71.8368V7.82231H66.8806V5.37709H63.1474C62.9851 5.37709 62.8736 5.43907 62.8073 5.56237C62.7428 5.68685 62.7825 5.82936 62.9275 5.9885C63.1325 6.2364 63.2602 6.47298 63.3116 6.69847C63.3623 6.92343 63.3877 7.22445 63.3877 7.60365V7.82231H58.0841V10.2236H60.3744C60.0411 10.6028 59.7809 11.024 59.6 11.4893ZM77.0322 5.98861H73.299C73.1385 5.98861 73.0258 6.04994 72.9601 6.17442C72.8938 6.29773 72.9334 6.43906 73.0827 6.60066C73.2853 6.84727 73.4216 7.08397 73.4966 7.30882C73.5659 7.53367 73.6069 7.8366 73.6069 8.21452V19.8721H77.0322V13.4996H79.519V11.0321H77.0322V5.98861ZM94.0829 11.9052C93.3828 12.2844 92.2045 12.4739 90.5472 12.4739C88.8851 12.4739 87.7086 12.2844 87.0086 11.9052C86.3098 11.5267 85.9597 10.9951 85.9597 10.3112C85.9597 9.64214 86.3098 9.10743 87.0086 8.70721C87.7086 8.30647 88.8851 8.10572 90.5472 8.10572C92.2045 8.10572 93.3828 8.30647 94.0829 8.70721C94.7805 9.10743 95.1293 9.64214 95.1293 10.3112C95.1293 10.9951 94.7805 11.5267 94.0829 11.9052ZM96.6037 7.0253C95.9402 6.62509 95.1075 6.31714 94.1058 6.0972C93.1016 5.87981 91.9152 5.77133 90.5472 5.77133C89.1757 5.77133 87.9923 5.87981 86.9856 6.0972C85.9839 6.31714 85.1537 6.62509 84.497 7.0253C83.8434 7.42669 83.3541 7.90679 83.0344 8.46562C82.7147 9.02753 82.5573 9.64214 82.5573 10.3112C82.5573 10.966 82.7147 11.57 83.0344 12.1245C83.3541 12.6765 83.8434 13.1523 84.497 13.5532C85.1537 13.9534 85.9839 14.2674 86.9856 14.4924C87.9923 14.7185 89.1757 14.83 90.5472 14.83C91.9152 14.83 93.1016 14.7185 94.1058 14.4924C95.1075 14.2674 95.9402 13.9534 96.6037 13.5532C97.2647 13.1523 97.7603 12.6765 98.0775 12.1245C98.3966 11.57 98.5576 10.966 98.5576 10.3112C98.5576 9.64214 98.3966 9.02753 98.0775 8.46562C97.7603 7.90679 97.2647 7.42669 96.6037 7.0253ZM98.8423 23.6949H87.2283C86.8652 23.6949 86.6062 23.6422 86.4533 23.5418C86.2995 23.4403 86.2234 23.1912 86.2234 22.8003V19.5677H82.5125C82.3527 19.5677 82.2436 19.6326 82.1853 19.7652C82.1265 19.8947 82.1619 20.0409 82.2932 20.2007C82.4549 20.3904 82.5707 20.5737 82.6438 20.7465C82.7169 20.9213 82.7516 21.1183 82.7516 21.3345V23.3882C82.7516 23.9414 82.8253 24.3974 82.9802 24.7524C83.1351 25.108 83.3668 25.3936 83.6802 25.6042C83.9919 25.8154 84.3946 25.9605 84.8815 26.0422C85.3685 26.1227 85.939 26.1611 86.5938 26.1611H98.8423V23.6949ZM100.938 15.8783H80.1323V18.2566H100.938V15.8783ZM105.958 11.6106C106.033 11.3256 106.15 11.0709 106.32 10.8454C106.487 10.6211 106.703 10.4381 106.952 10.3108C107.208 10.1795 107.507 10.1151 107.859 10.1151C108.207 10.1151 108.509 10.1795 108.764 10.3108C109.017 10.4421 109.229 10.6206 109.398 10.8454C109.567 11.0741 109.689 11.3342 109.757 11.6106C109.83 11.8997 109.867 12.1969 109.866 12.4953C109.866 12.7852 109.829 13.0702 109.757 13.3458C109.689 13.6148 109.567 13.8671 109.398 14.0875C109.229 14.3068 109.017 14.482 108.764 14.6122C108.509 14.7423 108.207 14.8092 107.859 14.8092C107.507 14.8092 107.208 14.7423 106.952 14.6122C106.698 14.482 106.488 14.3068 106.32 14.0875C106.15 13.8693 106.033 13.6215 105.958 13.3458C105.885 13.0682 105.848 12.7823 105.849 12.4953C105.849 12.1873 105.885 11.8943 105.958 11.6106ZM102.979 11.1633C102.842 11.5715 102.771 12.0059 102.771 12.473C102.771 13.1706 102.884 13.8104 103.11 14.3922C103.335 14.9758 103.663 15.4702 104.094 15.8784C104.521 16.2861 105.052 16.602 105.686 16.8275C106.32 17.053 107.045 17.1664 107.859 17.1664C108.673 17.1664 109.398 17.053 110.029 16.8275C110.663 16.602 111.196 16.2861 111.625 15.8784C112.052 15.4702 112.382 14.9758 112.608 14.3922C112.83 13.8104 112.945 13.1706 112.945 12.473C112.945 12.0059 112.873 11.5715 112.727 11.1633C112.579 10.755 112.385 10.3839 112.138 10.05H113.601V7.64748H109.715V5.31128H106.111C105.952 5.31128 105.835 5.37699 105.764 5.50712C105.688 5.64024 105.724 5.79202 105.872 5.96738C106.075 6.20088 106.199 6.42893 106.245 6.65442C106.289 6.87927 106.307 7.18903 106.307 7.58306V7.64748H101.834V10.05H103.558C103.31 10.3839 103.117 10.755 102.979 11.1633ZM114.189 6.11992C114.044 6.11992 113.944 6.17314 113.885 6.28344C113.826 6.39309 113.86 6.54242 113.994 6.73197C114.123 6.92034 114.228 7.10434 114.311 7.2877C114.39 7.46925 114.429 7.75788 114.429 8.14946V16.7726H117.552V12.7135H119.015V17.3641H122.138V5.9885H119.015V10.1356H117.552V6.11992H114.189ZM110.075 21.4128C110.227 21.144 110.477 20.9203 110.827 20.7469C111.176 20.5721 111.63 20.4395 112.192 20.3416C112.753 20.2463 113.439 20.2029 114.257 20.2029C115.069 20.2029 115.757 20.2463 116.32 20.3416C116.877 20.4395 117.329 20.5721 117.673 20.7469C118.015 20.9203 118.261 21.144 118.412 21.4128C118.568 21.6823 118.645 21.9902 118.645 22.3402C118.645 22.6747 118.568 22.9777 118.412 23.2466C118.261 23.516 118.015 23.7403 117.673 23.9219C117.329 24.104 116.877 24.2434 116.32 24.3394C115.757 24.4329 115.069 24.4801 114.257 24.4801C113.439 24.4801 112.753 24.4329 112.192 24.3394C111.63 24.2434 111.176 24.104 110.827 23.9219C110.477 23.7403 110.227 23.516 110.075 23.2466C109.921 22.9777 109.845 22.6747 109.845 22.3402C109.845 21.9902 109.921 21.6823 110.075 21.4128ZM106.374 22.3402C106.374 23.0255 106.54 23.6505 106.876 24.2173C107.211 24.783 107.713 25.2706 108.381 25.6689C109.054 26.0691 109.872 26.3788 110.847 26.5976C111.824 26.8156 112.961 26.9271 114.257 26.9271C115.521 26.9271 116.644 26.8156 117.627 26.5976C118.612 26.3788 119.431 26.0691 120.096 25.6689C120.757 25.2706 121.265 24.783 121.611 24.2173C121.962 23.6505 122.136 23.0255 122.136 22.3402C122.136 20.9302 121.458 19.8119 120.104 18.9874C118.752 18.1678 116.801 17.7564 114.257 17.7564C111.651 17.7564 109.683 18.1678 108.358 18.9874C107.038 19.8119 106.374 20.9302 106.374 22.3402Z" fill="#0046FF"/>
</g>
<defs>
<clipPath id="clip0_14_221">
<rect width="122.138" height="32" fill="white"/>
</clipPath>
</defs>
</svg>
