<svg width="113" height="30" viewBox="0 0 113 30" fill="none" xmlns="http://www.w3.org/2000/svg">
<g clip-path="url(#clip0_14_917)">
<path d="M88.2544 18.4021C88.3863 18.4674 88.5022 18.5613 88.5936 18.6768C88.7489 18.8897 88.8482 19.1384 88.8822 19.3999V26.927C88.8822 29.0022 89.9213 29.2697 91.1986 29.2697H109.903C111.476 29.2697 112.198 28.5105 112.198 26.927V1.88725C112.198 1.16418 111.685 0.824341 110.704 0.824341H107.255C107.346 0.960138 107.416 1.1088 107.464 1.26542C107.64 2.13578 107.708 3.0247 107.666 3.91182V5.72673H103.387V8.30084H107.666V10.969H103.387V13.5503H107.666V20.7159H93.4501V19.465C93.4501 18.7419 92.9377 18.4021 91.9635 18.4021H88.2544ZM107.659 26.7173H93.4356V23.2972H107.659V26.7173Z" fill="#0056A7"/>
<path d="M91.1048 0.289185C91.2402 0.352308 91.3588 0.446431 91.4512 0.563953C91.6737 0.899108 91.7825 1.29716 91.7615 1.69915V2.35714H84.6824V4.93849H88.8245C86.6596 6.08817 85.2164 7.96092 85.2164 10.1663C85.2164 13.8467 89.1492 16.2762 93.9985 16.2762C98.8478 16.2762 102.781 13.8467 102.781 10.1663C102.781 7.96092 101.373 6.08817 99.1725 4.93849H103.322V2.35714H96.3005V1.20747C96.3005 0.592864 95.8603 0.289185 95.0088 0.289185H91.1048ZM94.0274 13.9551C91.5017 13.9551 89.4595 12.4367 89.4595 10.2675C89.5509 9.11642 90.0718 8.04212 90.9183 7.25867C91.7649 6.47522 92.875 6.04015 94.0274 6.04015C95.1798 6.04015 96.2898 6.47522 97.1364 7.25867C97.983 8.04212 98.5039 9.11642 98.5952 10.2675C98.5952 12.4367 96.5531 13.9551 94.0274 13.9551Z" fill="#0056A7"/>
<path d="M47.6197 1.40279C47.7508 1.47263 47.8682 1.56573 47.9661 1.67756C48.1861 2.01358 48.2923 2.4116 48.2692 2.81278V5.11936C48.2692 9.34207 45.8445 12.35 40.0571 12.8056V15.6978C45.6281 15.6978 48.5795 13.76 50.5712 10.5351C53.6886 15.9509 59.8873 15.7051 63.6542 15.7051V26.6089H50.5784C50.416 26.6302 50.251 26.6181 50.0934 26.5733C49.9358 26.5286 49.789 26.4521 49.6619 26.3486C49.5015 26.124 49.4249 25.8502 49.4454 25.5749V19.2915C49.4626 19.0384 49.4022 18.7861 49.2722 18.5684C49.1859 18.4779 49.0794 18.4092 48.9616 18.3677C48.8437 18.3263 48.7177 18.3133 48.5939 18.3298H44.4735C44.6794 18.5192 44.8122 18.7751 44.8487 19.0528C44.8972 19.3298 44.9213 19.6104 44.9209 19.8916V27.2452C44.9143 27.4672 44.9531 27.6883 45.035 27.8947C45.1169 28.1012 45.2402 28.2886 45.3971 28.4455C45.72 28.7257 46.0962 28.9375 46.503 29.068C46.9098 29.1985 47.3388 29.245 47.764 29.2047H66.1871C67.3272 29.2047 68.2004 28.5973 68.2004 26.8547V1.82942C68.2004 1.10636 67.688 0.759277 66.7066 0.759277H63.2356C63.3269 0.897625 63.3975 1.04867 63.4449 1.20757C63.6251 2.0774 63.693 2.96683 63.647 3.854V12.8345C57.975 12.6754 52.8226 11.9451 53.4432 5.23506V2.34279C53.4432 1.72819 53.003 1.42451 52.1515 1.42451L47.6197 1.40279Z" fill="#0056A7"/>
<path d="M30.8061 17.6573C29.3052 21.4027 26.7795 22.4656 26.7795 22.4656C34.205 14.9313 29.666 6.24004 29.666 6.24004C28.5691 4.29499 29.9618 3.44902 29.9618 3.44902C26.7723 4.24439 27.797 6.89082 27.797 6.89082C29.0501 9.66897 29.305 12.796 28.5186 15.7411L27.4722 15.1555C27.4722 15.1555 29.9618 5.32898 19.8086 1.87995V0.0289067H17.6438V12.2126L27.6093 17.9031C27.4217 18.2719 27.2341 18.6262 27.032 18.9443L17.0232 13.1598L6.97817 18.9443C6.76839 18.6072 6.57572 18.2597 6.40088 17.9031L16.3665 12.2126V0H14.2016V1.85105C4.04839 5.30007 6.53798 15.1265 6.53798 15.1265L5.48441 15.7122C4.70217 12.7667 4.95702 9.64109 6.20604 6.86189C6.20604 6.86189 7.20188 4.21546 4.04117 3.42009C4.04117 3.42009 5.4339 4.26609 4.33704 6.21113C4.33704 6.21113 -0.194748 14.8879 7.22353 22.4367C7.22353 22.4367 4.70506 21.3738 3.19687 17.6283C2.89445 17.0603 2.41155 16.6097 1.82466 16.3478C1.23778 16.0858 0.58045 16.0276 -0.0432129 16.1822C0.321601 16.4145 0.636948 16.7168 0.884647 17.0717C1.13235 17.4266 1.3075 17.8271 1.40003 18.2502C1.40003 18.2502 3.5649 25.1193 11.8708 26.1677V29.9566H15.9624V24.3673C13.0362 24.1756 10.2976 22.8567 8.32038 20.6869L9.3451 20.0868C11.4527 21.9843 14.1436 23.1041 16.9726 23.261H17.052C19.8802 23.1001 22.5698 21.9808 24.6796 20.0868L25.7043 20.6869C23.727 22.8567 20.9884 24.1756 18.0623 24.3673V29.9566H22.1467V26.1677C30.467 25.1193 32.6246 18.2502 32.6246 18.2502C32.7172 17.8271 32.8923 17.4266 33.14 17.0717C33.3877 16.7168 33.7031 16.4145 34.0679 16.1822C33.438 16.0337 32.7767 16.0977 32.1869 16.3645C31.5971 16.6312 31.1117 17.0857 30.8061 17.6573ZM25.4878 14.0419L19.8591 10.9038V4.16484C19.8591 4.16484 26.6352 5.99421 25.4878 14.0275V14.0419ZM14.1655 4.14315V10.8821L8.5441 14.0419C7.41837 5.9942 14.1655 4.14315 14.1655 4.14315ZM17.052 15.6544L22.6518 18.9443H22.6013C21.0628 20.3041 19.0819 21.0545 17.0304 21.0545C14.9789 21.0545 12.9979 20.3041 11.4594 18.9443H11.4089L17.052 15.6544Z" fill="#0056A7"/>
</g>
<defs>
<clipPath id="clip0_14_917">
<rect width="112.198" height="30" fill="white"/>
</clipPath>
</defs>
</svg>
