<svg width="125" height="30" viewBox="0 0 125 30" fill="none" xmlns="http://www.w3.org/2000/svg">
<path d="M30 14.9988C30.0002 17.9656 29.1207 20.8659 27.4725 23.3328C25.8244 25.7997 23.4818 27.7225 20.7408 28.858C17.9999 29.9934 14.9838 30.2906 12.0739 29.7118C9.16412 29.1331 6.49127 27.7045 4.39341 25.6066C2.29555 23.5087 0.866907 20.8359 0.288167 17.9261C-0.290572 15.0162 0.00658421 12.0001 1.14205 9.25919C2.27751 6.51825 4.20028 4.17558 6.6672 2.52745C9.13412 0.879325 12.0344 -0.000237878 15.0012 4.82574e-08C18.9786 0.00159415 22.7927 1.58233 25.6052 4.39481C28.4177 7.20728 29.9984 11.0214 30 14.9988Z" fill="white"/>
<path d="M14.9929 29.2493C17.8216 29.2491 20.5867 28.4101 22.9385 26.8384C25.2903 25.2667 27.1233 23.0329 28.2056 20.4195C29.288 17.806 29.571 14.9304 29.019 12.1561C28.467 9.38179 27.1048 6.83348 25.1045 4.83339C23.1043 2.83331 20.5558 1.47127 17.7815 0.919508C15.0072 0.367749 12.1315 0.651052 9.51821 1.73359C6.90488 2.81613 4.67124 4.64929 3.09974 7.00126C1.52824 9.35323 0.689453 12.1184 0.689453 14.947C0.689137 16.8254 1.0589 18.6855 1.77762 20.4209C2.49634 22.1564 3.54993 23.7332 4.87821 25.0614C6.20649 26.3896 7.78343 27.443 9.51894 28.1616C11.2545 28.8802 13.1145 29.2498 14.9929 29.2493Z" fill="#007BC7"/>
<mask id="mask0_14_962" style="mask-type:luminance" maskUnits="userSpaceOnUse" x="0" y="0" width="30" height="30">
<path d="M15.001 29.2408C17.8268 29.2363 20.5879 28.3942 22.9353 26.821C25.2826 25.2478 27.111 23.0141 28.1893 20.4022C29.2676 17.7902 29.5475 14.9172 28.9935 12.1463C28.4395 9.37529 27.0766 6.83072 25.077 4.8341C23.0773 2.83747 20.5307 1.4784 17.7589 0.928632C14.9871 0.378861 12.1145 0.663064 9.5042 1.74532C6.89387 2.82758 4.66293 4.65933 3.0933 7.00909C1.52367 9.35884 0.685788 12.1212 0.685547 14.9469C0.686178 16.8257 1.05704 18.6859 1.77695 20.4212C2.49687 22.1566 3.5517 23.733 4.88118 25.0605C6.21065 26.3879 7.7887 27.4404 9.52512 28.1577C11.2615 28.875 13.1223 29.243 15.001 29.2408Z" fill="white"/>
</mask>
<g mask="url(#mask0_14_962)">
<path d="M15.048 21.8473C21.3372 21.8473 26.7278 23.5964 29.0327 26.0866C29.8235 24.259 30.2293 22.288 30.2249 20.2967C30.2249 12.0923 23.4292 5.44824 15.048 5.44824C6.66685 5.44824 -0.123986 12.0923 -0.123986 20.3015C-0.128506 22.2924 0.281166 24.2625 1.079 26.0866C3.3803 23.5964 8.77086 21.8473 15.0504 21.8473H15.048Z" fill="#007BC7"/>
<path d="M15.0481 5.57568C6.70179 5.57568 -0.0770283 12.1801 -0.0854492 20.3182L-0.0770275 20.8524C-0.0137299 22.6489 0.386592 24.4175 1.1031 26.0661C3.4032 23.6012 8.78054 21.8653 15.0481 21.8653C21.3156 21.8653 26.6893 23.6012 28.9894 26.0661C29.7124 24.4192 30.1157 22.6499 30.178 20.8524L30.1864 20.3134C30.178 12.1801 23.3992 5.57568 15.0481 5.57568Z" fill="#007DC8"/>
<path d="M15.0445 5.69971C6.72711 5.69971 -0.0348629 12.2704 -0.0480957 20.3304V20.8693C0.0118946 22.6582 0.414131 24.4191 1.13685 26.0566C3.42251 23.6049 8.79263 21.881 15.0397 21.881C21.2868 21.881 26.6497 23.6049 28.9462 26.0566C29.672 24.419 30.0759 22.6571 30.136 20.8669L30.1444 20.3304C30.1179 12.2704 23.3644 5.70332 15.0397 5.70332L15.0445 5.69971Z" fill="#007ECA"/>
<path d="M15.0444 5.82715C6.7522 5.82715 0.00707614 12.3509 -0.00976562 20.3435L-0.00134386 20.8729C0.0584685 22.6515 0.456105 24.4025 1.17036 26.0325C3.45603 23.6012 8.8057 21.8942 15.0444 21.8942C21.283 21.8942 26.6243 23.6012 28.9172 26.0325C29.6343 24.4032 30.0332 22.6519 30.0925 20.8729L30.1009 20.3375C30.0708 12.3461 23.3389 5.82715 15.0396 5.82715H15.0444Z" fill="#0080CB"/>
<path d="M15.0446 5.95459C6.78248 5.95459 0.0674242 12.4375 0.0205078 20.3567L0.0337462 20.8884C0.0891692 22.6571 0.48836 24.3982 1.20906 26.0143C3.49472 23.6084 8.82274 21.9134 15.0434 21.9134C21.264 21.9134 26.592 23.5975 28.8777 26.0143C29.6003 24.3973 30.0012 22.6551 30.0578 20.8848V20.3507C30.0253 12.4315 23.3103 5.95459 15.0446 5.95459Z" fill="#0082CC"/>
<path d="M15.0397 6.07861C6.80409 6.07861 0.109487 12.5206 0.0673828 20.3688V20.8958C0.121849 22.6559 0.518175 24.3887 1.23428 25.9976C3.51995 23.6073 8.83593 21.9243 15.0349 21.9243C21.2339 21.9243 26.5559 23.6085 28.8319 25.9976C29.5554 24.3896 29.9575 22.6557 30.0157 20.8934V20.3688C29.9639 12.5206 23.2789 6.07861 15.0301 6.07861H15.0397Z" fill="#0084CD"/>
<path d="M15.0397 6.2085C6.8257 6.2085 0.152749 12.6084 0.0974121 20.382V20.9102C0.151657 22.6629 0.55276 24.3875 1.27754 25.9843C3.54877 23.6133 8.85634 21.9519 15.0397 21.9519C21.223 21.9519 26.5354 23.6072 28.797 25.9843C29.5226 24.389 29.921 22.6645 29.9687 20.9126V20.3844C29.917 12.6096 23.232 6.21451 15.03 6.21451L15.0397 6.2085Z" fill="#0086CF"/>
<path d="M15.0397 6.33606C6.84623 6.33606 0.204556 12.6914 0.135986 20.3989V20.9186C0.189249 22.6598 0.587508 24.373 1.30769 25.9591C3.56689 23.6073 8.86603 21.9592 15.0361 21.9592C21.2062 21.9592 26.4982 23.6073 28.7598 25.9591C29.4857 24.3749 29.8846 22.6606 29.9327 20.9186V20.3929C29.8725 12.6938 23.2176 6.33486 15.0361 6.33606H15.0397Z" fill="#0088D0"/>
<path d="M15.0362 6.4624C6.87999 6.4624 0.250348 12.7793 0.174561 20.417V20.9355C0.221026 22.6667 0.618417 24.3704 1.34266 25.9435C3.59585 23.6109 8.87574 21.9797 15.0326 21.9797C21.1895 21.9797 26.4609 23.6109 28.7262 25.9435C29.4465 24.3681 29.8417 22.6636 29.8882 20.9319L29.8979 20.4122C29.8161 12.7769 23.1948 6.46721 15.0362 6.46721V6.4624Z" fill="#008AD1"/>
<path d="M15.036 6.58496C6.90988 6.58496 0.297082 12.8621 0.21167 20.4253V20.9402C0.254719 22.6633 0.65364 24.3589 1.38337 25.9205C3.61972 23.6132 8.89119 21.9904 15.0312 21.9904C21.1712 21.9904 26.4331 23.6132 28.6827 25.9205C29.4094 24.3579 29.8082 22.6629 29.8544 20.9402V20.4205C29.769 12.8621 23.1598 6.58616 15.0312 6.58616L15.036 6.58496Z" fill="#008CD3"/>
<path d="M15.0361 6.71741C6.93161 6.71741 0.340468 12.9477 0.250244 20.4374V20.9535C0.294142 22.6654 0.688411 24.3502 1.40872 25.9038C3.65469 23.6181 8.90811 22.0049 15.0313 22.0049C21.1545 22.0049 26.3983 23.6133 28.6479 25.9038C29.3678 24.3481 29.7636 22.6622 29.8111 20.9487V20.4338C29.7137 12.9477 23.1262 6.71981 15.0313 6.71981L15.0361 6.71741Z" fill="#008ED4"/>
<path d="M15.0313 6.84619C6.95692 6.84619 0.391036 13.0319 0.286377 20.4507V20.962C0.330555 22.6686 0.72658 24.3477 1.44966 25.8942C3.6824 23.6206 8.93102 22.0254 15.0325 22.0254C21.1341 22.0254 26.3755 23.6206 28.6154 25.8942C29.3397 24.3481 29.7358 22.6688 29.7787 20.962V20.4507C29.6728 13.0367 23.1022 6.85702 15.0325 6.85702L15.0313 6.84619Z" fill="#0090D5"/>
<path d="M15.023 6.97729C6.98229 6.97729 0.434458 13.1197 0.327393 20.4675V20.9704C0.362997 22.6656 0.756552 24.3341 1.48225 25.8665C3.71499 23.6158 8.94075 22.0398 15.023 22.0398C21.1053 22.0398 26.3443 23.6158 28.577 25.8665C29.2983 24.3326 29.6913 22.665 29.7307 20.9704V20.4591C29.6164 13.1125 23.0806 6.97729 15.023 6.97729Z" fill="#0092D7"/>
<path d="M15.0228 7.09753C7.00854 7.09753 0.476344 13.2051 0.362061 20.4819V20.9848C0.400004 22.6691 0.793127 24.3265 1.51572 25.8484C3.74003 23.6205 8.95136 22.0518 15.0228 22.0518C21.0943 22.0518 26.3092 23.6157 28.5335 25.8484C29.2599 24.3275 29.6551 22.6698 29.6932 20.9848V20.4759C29.5645 13.2003 23.0455 7.09753 15.0228 7.09753Z" fill="#0094D8"/>
<path d="M15.0229 7.21777C7.03868 7.21777 0.52693 13.2856 0.399414 20.4951V20.9919C0.43344 22.6703 0.825968 24.3221 1.55067 25.8363C3.77017 23.6229 8.97308 22.0722 15.0241 22.0722C21.0751 22.0722 26.2816 23.6229 28.4975 25.8363C29.2189 24.3207 29.6124 22.67 29.6524 20.9919V20.4879C29.5188 13.2856 23.0227 7.21777 15.0229 7.21777Z" fill="#0097D9"/>
<path d="M15.0229 7.34888C7.05916 7.34888 0.573872 13.3734 0.434326 20.5095V21.0039C0.472538 22.6718 0.866266 24.3123 1.58919 25.8159C3.79547 23.624 8.98513 22.0866 15.0229 22.0866C21.0607 22.0866 26.2419 23.6228 28.4614 25.8159C29.186 24.3131 29.5783 22.6719 29.6115 21.0039V20.5011C29.4623 13.371 22.9867 7.34888 15.0229 7.34888Z" fill="#0099DB"/>
<path d="M15.018 7.47656C7.08551 7.47656 0.625488 13.4602 0.476318 20.5229V21.0149C0.503193 22.6735 0.892859 24.3061 1.61795 25.798C3.82061 23.623 8.99344 22.1012 15.018 22.1012C21.0425 22.1012 26.2153 23.623 28.4228 25.798C29.1463 24.3031 29.5374 22.6693 29.5693 21.0089V20.5145C29.4153 13.4518 22.9613 7.47656 15.0132 7.47656H15.018Z" fill="#009BDC"/>
<path d="M15.0179 7.60877C7.11433 7.60877 0.66875 13.5431 0.506348 20.5348V21.016C0.537814 22.6665 0.929059 24.2902 1.65279 25.7738C3.85064 23.6217 9.01024 22.1119 15.0179 22.1119C21.0256 22.1119 26.1816 23.6217 28.3843 25.7738C29.1058 24.2894 29.4969 22.6662 29.5307 21.016V20.5228C29.3599 13.5407 22.9312 7.60396 15.0179 7.60877Z" fill="#009DDD"/>
<path d="M15.0181 7.72791C7.13131 7.72791 0.719408 13.6309 0.548584 20.5529V21.0341C0.574106 22.6734 0.96104 24.2869 1.68179 25.7594C3.88085 23.6265 9.01999 22.1336 15.0181 22.1336C21.0161 22.1336 26.1565 23.6265 28.3459 25.7594C29.0731 24.2887 29.4635 22.6745 29.4887 21.0341V20.5445C29.3095 13.6249 22.9024 7.72791 15.0181 7.72791Z" fill="#009FDF"/>
<path d="M15.0097 7.85547C7.16146 7.85547 0.767606 13.714 0.587158 20.5638V21.045C0.613274 22.6738 1.0016 24.2765 1.72398 25.7366C3.91461 23.6266 9.04894 22.1397 15.0133 22.1397C20.9777 22.1397 26.1265 23.6266 28.3111 25.7366C29.0354 24.2769 29.4258 22.6743 29.4539 21.045L29.4455 20.5542C29.2627 13.714 22.8712 7.85547 15.0097 7.85547Z" fill="#00A2E0"/>
<path d="M15.0095 7.9878C7.19012 7.9878 0.814303 13.7994 0.621826 20.5806V21.0618C0.644597 22.6818 1.03192 24.2759 1.75504 25.7258C3.93605 23.635 9.06677 22.1698 15.0143 22.1698C20.9799 22.1698 26.0926 23.635 28.2832 25.7258C29.0021 24.2712 29.3876 22.6746 29.4116 21.0522V20.571C29.2107 13.7994 22.8409 7.98058 15.0095 7.9878Z" fill="#00A4E1"/>
<path d="M15.0096 8.10681C7.21304 8.10681 0.863687 13.8871 0.65918 20.5914V21.0653C0.679329 22.6757 1.06561 24.2603 1.78878 25.6992C3.96137 23.6325 9.06683 22.1817 15.0096 22.1817C20.9523 22.1817 26.0578 23.6325 28.2352 25.6992C28.9622 24.2617 29.3487 22.6762 29.3648 21.0653V20.5842C29.1579 13.8799 22.8157 8.10681 15.0096 8.10681Z" fill="#00A6E3"/>
<path d="M15.0095 8.23914C7.2382 8.23914 0.902085 13.9738 0.693969 20.6058L0.685547 21.081C0.706318 22.6809 1.0927 24.2548 1.81515 25.6824C3.99255 23.6373 9.07996 22.1937 15.0059 22.1937C20.9318 22.1937 26.03 23.6325 28.1954 25.6824C28.9198 24.2538 29.3067 22.6779 29.3262 21.0762V20.595C29.1084 13.9677 22.7819 8.23433 15.0095 8.23914Z" fill="#00A9E4"/>
<path d="M15.0059 8.3667C7.26347 8.3667 0.945403 14.0592 0.736084 20.6167V21.087C0.748659 22.6805 1.13386 24.2488 1.86088 25.6668C4.01662 23.6374 9.09923 22.2118 15.0095 22.2118C20.9197 22.2118 26.0023 23.6374 28.1581 25.6668C28.8867 24.2497 29.2705 22.6805 29.2781 21.087V20.6058C29.0615 14.0544 22.7519 8.3667 15.0059 8.3667Z" fill="#00ABE5"/>
<path d="M15.0059 8.49048C7.28513 8.49048 1.00075 14.1445 0.769775 20.6334V21.1026C0.783544 22.6851 1.16882 24.2423 1.89456 25.6486C4.05031 23.6372 9.11246 22.231 15.0071 22.231C20.9017 22.231 25.9651 23.6372 28.1304 25.6486C28.8461 24.2391 29.2265 22.6833 29.242 21.1026V20.6214C29.0014 14.1409 22.7278 8.49168 15.0071 8.49168L15.0059 8.49048Z" fill="#00ADE7"/>
<path d="M15.0059 8.61816C7.31523 8.61816 1.03927 14.2277 0.804688 20.648V21.1172C0.815232 22.6915 1.19906 24.2408 1.92466 25.638C4.0768 23.6458 9.12572 22.2504 15.0059 22.2504C20.8861 22.2504 25.9302 23.6458 28.0823 25.638C28.8101 24.2416 29.1941 22.6918 29.2023 21.1172V20.6444C28.9545 14.2313 22.6954 8.62418 15.0071 8.62418L15.0059 8.61816Z" fill="#00B0E8"/>
<path d="M15.0062 8.74313C7.34074 8.74313 1.09486 14.3153 0.851854 20.6587L0.838623 21.1206C0.85338 22.684 1.23581 24.2219 1.95499 25.6102C4.10231 23.6397 9.13439 22.2611 15.0062 22.2611C20.8599 22.2611 25.8919 23.6397 28.0525 25.6102C28.7718 24.2222 29.1527 22.6838 29.1641 21.1206L29.158 20.6503C28.9174 14.3105 22.674 8.74072 15.0086 8.74072L15.0062 8.74313Z" fill="#00B2EA"/>
<path d="M15.0012 8.86951C7.37073 8.86951 1.14168 14.4032 0.881836 20.6732V21.1327C0.888776 22.6879 1.27179 24.2183 1.9982 25.5934C4.14192 23.6409 9.16076 22.278 15.0061 22.278C20.8514 22.278 25.8678 23.6409 28.0103 25.5934C28.7359 24.2178 29.1201 22.6879 29.1303 21.1327L29.1183 20.6672C28.862 14.3972 22.6366 8.86951 15.0012 8.86951Z" fill="#0FB5EB"/>
<path d="M15.0011 8.99707C7.38385 8.99707 1.18367 14.4827 0.919017 20.6913L0.906982 21.146C0.918807 22.6933 1.30296 24.2151 2.02696 25.5826C4.15744 23.647 9.17268 22.2997 15.0011 22.2997C20.8296 22.2997 25.8364 23.647 27.9669 25.5826C28.6955 24.217 29.0788 22.6938 29.0833 21.146V20.6841C28.8102 14.4827 22.6148 9.00309 15.0084 9.00309L15.0011 8.99707Z" fill="#1DB7EC"/>
<path d="M15.0012 9.12329C7.4128 9.12329 1.23067 14.568 0.957591 20.702L0.945557 21.1531C0.95231 22.6896 1.33562 24.2009 2.06193 25.5548C4.19241 23.6409 9.18118 22.3068 15.0012 22.3068C20.8212 22.3068 25.8064 23.6397 27.9369 25.5548C28.6541 24.1981 29.0318 22.6877 29.0376 21.1531V20.6912C28.7549 14.5644 22.5776 9.12329 15.0012 9.12329Z" fill="#27BAEE"/>
<path d="M14.9929 9.24854C7.44661 9.24854 1.27891 14.6559 1.00102 20.7106L0.987793 21.1617C0.994966 22.6895 1.37355 24.1927 2.09093 25.5417C4.2178 23.6458 9.19815 22.3226 14.9929 22.3226C20.7877 22.3226 25.7729 23.6458 27.8949 25.5417C28.6155 24.1937 28.9958 22.6901 29.0029 21.1617L28.9896 20.7045C28.6997 14.6511 22.5513 9.24854 14.9929 9.24854Z" fill="#2FBCEF"/>
<path d="M14.9845 22.3381C20.7757 22.3381 25.7476 23.6457 27.8564 25.5248C28.5773 24.1871 28.9562 22.692 28.9596 21.1724C28.9596 15.0095 22.7137 9.38318 14.9845 9.38318C7.28542 9.38318 1.02148 15.0119 1.02148 21.1724C1.02473 22.6929 1.40412 24.1889 2.12582 25.5272C4.25149 23.6482 9.20297 22.3405 14.9845 22.3405V22.3381Z" fill="#37BEF0"/>
<path d="M14.9843 22.3755C20.7586 22.3755 25.7305 23.6675 27.8346 25.5333C28.562 24.2108 28.9447 22.7264 28.9473 21.217C28.9473 15.0938 22.7002 9.49634 14.9843 9.49634C7.29361 9.49634 1.03931 15.0938 1.03931 21.2218C1.04237 22.7299 1.42153 24.2135 2.14244 25.5381C4.25608 23.6723 9.2232 22.3755 14.9843 22.3755Z" fill="#45C0F0"/>
<path d="M14.9843 22.414C20.7587 22.414 25.7089 23.7036 27.8226 25.555C28.5428 24.2383 28.922 22.7623 28.9257 21.2615C28.9257 15.178 22.6882 9.61304 14.9843 9.61304C7.30209 9.61304 1.05981 15.178 1.05981 21.2615C1.064 22.7618 1.44189 24.2374 2.15934 25.555C4.2778 23.7036 9.22807 22.414 14.9843 22.414Z" fill="#50C2F1"/>
<path d="M14.9844 22.4489C20.7491 22.4489 25.691 23.7313 27.8058 25.5682C28.5281 24.2642 28.9104 22.7992 28.9174 21.3084C28.9174 15.2611 22.6883 9.72974 14.9892 9.72974C7.32021 9.72974 1.08154 15.2635 1.08154 21.3084C1.0885 22.7994 1.46813 24.265 2.18588 25.5718C4.29471 23.7313 9.24138 22.4441 14.9892 22.4441L14.9844 22.4489Z" fill="#5BC4F1"/>
<path d="M14.9844 22.4825C20.7455 22.4825 25.6789 23.7589 27.7841 25.585C28.5027 24.2894 28.8822 22.8332 28.8872 21.3517C28.8872 15.3476 22.6714 9.84277 14.9844 9.84277C7.31896 9.84277 1.09473 15.3476 1.09473 21.3517C1.10139 22.8324 1.479 24.2878 2.19305 25.585C4.29827 23.7589 9.24133 22.4825 14.9844 22.4825Z" fill="#64C7F2"/>
<path d="M14.9843 22.5234C20.7285 22.5234 25.6704 23.789 27.7708 25.5995C28.4849 24.3134 28.8615 22.8673 28.8655 21.3963C28.8655 15.427 22.6617 9.96069 14.9843 9.96069C7.33689 9.96069 1.11988 15.427 1.11988 21.3963C1.11849 22.8688 1.49102 24.3175 2.20256 25.6067C4.3162 23.7938 9.24603 22.5283 14.9807 22.5283L14.9843 22.5234Z" fill="#6DC9F3"/>
<path d="M14.9844 22.5546C20.7286 22.5546 25.6572 23.8142 27.754 25.6162C28.4696 24.3397 28.848 22.9017 28.8536 21.4383C28.8536 15.5124 22.645 10.0797 14.9844 10.0797C7.32378 10.0797 1.12842 15.5184 1.12842 21.4383C1.13667 22.9002 1.5114 24.3366 2.21832 25.6162C4.32715 23.8118 9.25698 22.5546 14.9796 22.5546H14.9844Z" fill="#75CBF3"/>
<path d="M14.9844 22.5896C20.7191 22.5896 25.6405 23.8443 27.7361 25.632C28.447 24.3639 28.8226 22.9354 28.8272 21.4817C28.8272 15.5991 22.6354 10.1941 14.9832 10.1941C7.33106 10.1941 1.14893 15.5991 1.14893 21.4817C1.15407 22.9358 1.53091 24.3645 2.24364 25.632C4.34044 23.8443 9.26185 22.5956 14.9796 22.5896H14.9844Z" fill="#7DCDF4"/>
<path d="M14.9843 22.6317C20.7153 22.6317 25.6235 23.8719 27.7154 25.6391C28.429 24.383 28.8049 22.9635 28.8065 21.5189C28.8065 15.676 22.6196 10.3047 14.9843 10.3047C7.34893 10.3047 1.17041 15.6808 1.17041 21.5237C1.17497 22.9695 1.55066 24.3898 2.26152 25.6487C4.35832 23.8719 9.2701 22.6317 14.9843 22.6317Z" fill="#84D0F4"/>
<path d="M14.9844 22.6654C20.7022 22.6654 25.6116 23.8997 27.6987 25.6633C28.4093 24.4167 28.7863 23.0079 28.7934 21.5731C28.7934 15.7675 22.6161 10.4263 14.9844 10.4263C7.37434 10.4263 1.19702 15.7675 1.19702 21.5683C1.19921 23.0022 1.57217 24.4112 2.27971 25.6584C4.36809 23.8949 9.28107 22.6606 14.9856 22.6606L14.9844 22.6654Z" fill="#8BD2F5"/>
<path d="M14.9843 22.7014C20.6985 22.7014 25.5983 23.9272 27.677 25.6776C28.3925 24.4435 28.7732 23.0439 28.7814 21.6175C28.7814 15.8528 22.6064 10.5501 14.9843 10.5501C7.3839 10.544 1.20898 15.8528 1.20898 21.6175C1.21465 23.0425 1.59065 24.4417 2.30009 25.6776C4.39208 23.9272 9.29183 22.7086 14.9843 22.7014Z" fill="#92D4F5"/>
<path d="M14.9845 22.7363C20.6939 22.7363 25.5708 23.9573 27.6688 25.6908C28.3721 24.4641 28.7452 23.076 28.7515 21.662C28.7515 15.9334 22.5862 10.6655 14.9809 10.6655C7.40214 10.6655 1.22241 15.9334 1.22241 21.662C1.23004 23.0792 1.60604 24.47 2.31351 25.698C4.4055 23.9573 9.30886 22.7423 14.9845 22.7363Z" fill="#99D6F6"/>
<path d="M14.9844 22.7773C20.6817 22.7773 25.5634 23.9803 27.647 25.7126C28.3515 24.4934 28.7247 23.1111 28.7297 21.703C28.7297 16.0237 22.586 10.7739 14.9844 10.7739C7.40557 10.7739 1.2439 16.0237 1.2439 21.703C1.24823 23.1118 1.62329 24.4947 2.33139 25.7126C4.41977 23.9851 9.30869 22.7773 14.982 22.7773H14.9844Z" fill="#9FD9F7"/>
<path d="M14.9844 22.8109C20.6734 22.8109 25.5466 24.0139 27.6302 25.7293C28.3366 24.5201 28.7101 23.1454 28.7129 21.7451C28.7129 16.1043 22.5681 10.8929 14.9796 10.8929C7.39122 10.8929 1.26562 16.1043 1.26562 21.7451C1.26885 23.1454 1.64237 24.52 2.34831 25.7293C4.42827 24.0127 9.30155 22.8133 14.9796 22.8109H14.9844Z" fill="#A5DBF7"/>
<path d="M14.9843 22.8493C20.6599 22.8493 25.5344 24.0403 27.6156 25.7425C28.3184 24.5437 28.6919 23.1804 28.6983 21.7907C28.6983 16.1896 22.5631 11.012 14.9843 11.012C7.42591 11.012 1.28589 16.1848 1.28589 21.7907C1.29532 23.1799 1.66861 24.5424 2.36857 25.7425C4.45695 24.0403 9.32181 22.8493 14.9891 22.8493H14.9843Z" fill="#ABDDF8"/>
<path d="M14.9845 22.8831C20.6553 22.8831 25.5166 24.068 27.6014 25.7594C28.3008 24.5684 28.6742 23.2141 28.684 21.8329C28.684 16.2751 22.5488 11.1263 14.9857 11.1263C7.42252 11.1263 1.30054 16.2775 1.30054 21.8329C1.30822 23.2144 1.68179 24.5692 2.38322 25.7594C4.46198 24.068 9.32804 22.8831 14.9821 22.8831H14.9845Z" fill="#B1DFF8"/>
<path d="M14.9844 22.9215C20.6468 22.9215 25.4997 24.098 27.5832 25.7726C28.2821 24.5931 28.653 23.2483 28.6575 21.8773C28.6575 16.3604 22.5415 11.2454 14.9844 11.2454C7.44652 11.2454 1.32935 16.358 1.32935 21.8773C1.33717 23.2477 1.70739 24.5916 2.40241 25.7726C4.47756 24.098 9.33881 22.9215 14.9844 22.9215Z" fill="#B7E1F9"/>
<path d="M14.9928 22.96C20.6468 22.96 25.4912 24.1233 27.5579 25.7894C28.2596 24.6218 28.6337 23.2865 28.6406 21.9243C28.6406 16.4411 22.5307 11.3621 14.9928 11.3621C7.45487 11.3621 1.34131 16.4411 1.34131 21.9243C1.35132 23.2861 1.72511 24.6205 2.42399 25.7894C4.49433 24.1233 9.34836 22.96 14.9976 22.96H14.9928Z" fill="#BCE4F9"/>
<path d="M14.9929 22.9937C20.6349 22.9937 25.4829 24.1485 27.5461 25.8063C28.2438 24.647 28.6177 23.3217 28.6287 21.9687C28.6287 16.524 22.5188 11.4763 14.9977 11.4763C7.47668 11.4763 1.36914 16.524 1.36914 21.9651C1.37306 23.318 1.74123 24.6448 2.43498 25.8063C4.51374 24.1485 9.35455 22.9985 14.9953 22.9937H14.9929Z" fill="#C1E6FA"/>
<path d="M14.9927 23.0322C20.6215 23.0322 25.4587 24.1787 27.5278 25.8183C28.2228 24.6707 28.594 23.3562 28.6021 22.0145C28.6021 16.6119 22.509 11.5967 14.9927 11.5967C7.47648 11.5967 1.38818 16.6071 1.38818 22.0145C1.3944 23.355 1.76176 24.669 2.45162 25.8183C4.52677 24.1787 9.36637 23.0322 14.9951 23.0322H14.9927Z" fill="#C7E8FA"/>
<path d="M14.9929 23.0682C20.6168 23.0682 25.4444 24.2075 27.5111 25.8351C28.2058 24.6952 28.5771 23.3878 28.5854 22.0529C28.5854 16.6888 22.5055 11.7073 14.9917 11.7073C7.47783 11.7073 1.39795 16.6888 1.39795 22.0529C1.41065 23.3883 1.78479 24.6953 2.48063 25.8351C4.54255 24.2039 9.37854 23.0682 15.0025 23.0682H14.9929Z" fill="#CCEAFB"/>
<path d="M14.9928 23.0972C20.6168 23.0972 25.4287 24.2388 27.4858 25.8532C28.1842 24.7256 28.5588 23.4275 28.5685 22.1011C28.5685 16.7779 22.4922 11.8264 14.9977 11.8264C7.50307 11.8264 1.41357 16.7779 1.41357 22.1011C1.42224 23.4258 1.79199 24.723 2.48303 25.8532C4.54975 24.2388 9.37732 23.0996 14.9941 23.0996L14.9928 23.0972Z" fill="#D1ECFB"/>
<path d="M14.9927 23.1416C20.6047 23.1416 25.419 24.264 27.4725 25.8664C28.1624 24.7465 28.5339 23.4596 28.5468 22.1444C28.5468 16.8597 22.4753 11.9395 14.9927 11.9395C7.51019 11.9395 1.43994 16.8621 1.43994 22.1444C1.44826 23.4576 1.8147 24.7436 2.49977 25.864C4.55807 24.2616 9.38564 23.1392 14.9927 23.1392V23.1416Z" fill="#D6EEFB"/>
<path d="M14.9928 23.1777C20.5914 23.1777 25.4058 24.2929 27.4557 25.8832C28.147 24.7742 28.5188 23.4958 28.5299 22.1889C28.5299 16.9463 22.4669 12.0562 14.9928 12.0562C7.51862 12.0562 1.45679 16.9463 1.45679 22.1889C1.46687 23.4953 1.83511 24.774 2.52143 25.8856C4.57974 24.2929 9.39407 23.1777 14.9928 23.1777Z" fill="#DBF0FC"/>
<path d="M14.9928 23.2175C20.5831 23.2175 25.389 24.3255 27.4353 25.9062C28.1302 24.8081 28.5021 23.5366 28.5083 22.2371C28.5083 17.0354 22.4537 12.1802 14.9928 12.1802C7.53191 12.1802 1.47729 17.033 1.47729 22.2311C1.48612 23.5297 1.85328 24.8006 2.53832 25.9038C4.58339 24.3195 9.40254 23.2115 14.9928 23.2115V23.2175Z" fill="#E0F2FC"/>
<path d="M14.9928 23.25C20.5795 23.25 25.3686 24.3447 27.4257 25.917C28.1084 24.8251 28.4756 23.5657 28.4867 22.278C28.4867 17.1136 22.4453 12.2932 14.9928 12.2932C7.54035 12.2932 1.49536 17.1136 1.49536 22.278C1.50412 23.5668 1.86971 24.8281 2.55158 25.9218C4.60508 24.3495 9.40257 23.2548 14.9928 23.2548V23.25Z" fill="#E5F4FD"/>
<path d="M14.9927 23.2861C20.571 23.2861 25.3504 24.3748 27.4087 25.9326C28.0894 24.8509 28.4567 23.6016 28.4698 22.3237C28.4698 17.2038 22.4368 12.4087 14.9964 12.4087C7.55591 12.4087 1.52295 17.2038 1.52295 22.3213C1.53076 23.5988 1.89534 24.8488 2.57556 25.9302C4.62905 24.3748 9.41812 23.2837 15 23.2837L14.9927 23.2861Z" fill="#E9F6FD"/>
<path d="M14.9929 23.3221C20.5663 23.3221 25.347 24.4048 27.3836 25.9446C28.0699 24.8746 28.4394 23.6321 28.4495 22.3609C28.4495 17.2807 22.4165 12.5229 14.9893 12.5229C7.56206 12.5229 1.53271 17.2868 1.53271 22.3609C1.53801 23.6324 1.90475 24.8761 2.59014 25.947C4.64363 24.4024 9.42429 23.3221 14.9929 23.3221Z" fill="#EEF8FE"/>
<path d="M14.9927 23.3607C20.5529 23.3607 25.3251 24.4326 27.3702 25.964C28.0552 24.9022 28.4248 23.6678 28.436 22.4043C28.436 17.3674 22.4211 12.6445 14.9975 12.6445C7.57387 12.6445 1.55054 17.3698 1.55054 22.4043C1.56059 23.6666 1.92669 24.9005 2.60675 25.964C4.65182 24.4326 9.43248 23.3607 14.9975 23.3607H14.9927Z" fill="#F2FAFE"/>
<path d="M14.9928 23.3944C20.553 23.3944 25.3132 24.4602 27.3499 25.9784C28.033 24.9292 28.4023 23.7068 28.4145 22.4549C28.4145 17.4553 22.3996 12.76 14.9928 12.76C7.58608 12.76 1.56274 17.4516 1.56274 22.4549C1.57446 23.7082 1.94246 24.9324 2.62378 25.9844C4.66885 24.4638 9.44589 23.398 14.9928 23.398V23.3944Z" fill="#F7FCFE"/>
<path d="M14.9927 23.4304C20.5493 23.4304 25.2999 24.4855 27.3366 25.9976C28.0102 24.9149 28.3976 23.7372 28.3976 22.4981C28.3976 17.5334 22.3899 12.8743 14.9927 12.8743C7.5956 12.8743 1.58911 17.5334 1.58911 22.4957C1.60153 23.7389 1.96609 24.9532 2.64052 25.9976C4.67717 24.4855 9.44579 23.4353 14.9927 23.4304Z" fill="#FBFDFF"/>
<path d="M14.9928 23.4654C20.5265 23.4654 25.2831 24.5144 27.3198 26.0109C27.9969 24.9792 28.3623 23.7743 28.3724 22.5403C28.3724 17.6165 22.3815 12.9922 14.9928 12.9922C7.60408 12.9922 1.60962 17.6213 1.60962 22.5403C1.61958 23.7736 1.98324 24.9781 2.65742 26.0109C4.69527 24.5144 9.45788 23.469 14.9928 23.4654Z" fill="white"/>
</g>
<path d="M14.9843 18.5548C10.1447 18.5548 5.64912 19.374 1.93311 20.7659C3.05747 23.2915 4.88985 25.4371 7.20841 26.9428C9.52697 28.4486 12.2323 29.25 14.9969 29.25C17.7615 29.25 20.4668 28.4486 22.7854 26.9428C25.104 25.4371 26.9363 23.2915 28.0607 20.7659C24.3459 19.374 19.8371 18.5548 14.9843 18.5548Z" fill="#007BC7"/>
<path d="M80.6675 19.0577H83.7615C83.902 19.0613 84.039 19.1019 84.1588 19.1754C84.2786 19.2489 84.3768 19.3527 84.4436 19.4763C84.5964 19.7169 84.5712 20.5229 84.5712 20.5229V26.0915C84.6133 26.6184 84.8695 27.5279 86.7871 27.6049H100.976V25.6356H88.8742C88.1163 25.6873 88.0321 25.3084 88.0093 24.8476V20.1861C88.0093 19.7217 87.9491 19.3043 87.5534 19.0577H102.526V17.1052H80.6675V19.0577Z" fill="#0067AC"/>
<path d="M92.1207 15.071C96.4237 15.071 99.9184 12.7192 99.9184 9.23651C99.9184 5.75388 96.4298 3.39844 92.1207 3.39844C87.8116 3.39844 84.3193 5.74907 84.3193 9.23651C84.3193 12.724 87.808 15.071 92.1207 15.071ZM92.1207 5.39058C94.4725 5.39058 96.3949 6.88348 96.3949 9.24012C96.3949 11.5968 94.4701 13.0897 92.1207 13.0897C89.7713 13.0897 87.8429 11.5944 87.8429 9.24012C87.8429 6.88589 89.7556 5.39058 92.1207 5.39058Z" fill="#0067AC"/>
<path d="M34.0613 19.8492H43.3664V28.2424H46.9452V19.8492H56.2515V17.8125H34.0613V19.8492Z" fill="#0067AC"/>
<path d="M45.1577 15.6256C49.6785 15.6256 53.3464 13.1559 53.3464 9.50001C53.3464 5.84415 49.6761 3.36841 45.1577 3.36841C40.6393 3.36841 36.9534 5.83573 36.9534 9.50362C36.9534 13.1715 40.6261 15.6256 45.1577 15.6256ZM45.1577 5.47002C47.6335 5.47002 49.64 7.0339 49.64 9.50242C49.64 11.9709 47.631 13.5408 45.1577 13.5408C42.6844 13.5408 40.6598 11.9758 40.6598 9.50362C40.6598 7.03149 42.676 5.47002 45.1577 5.47002Z" fill="#0067AC"/>
<path d="M108.725 4.58944V5.2992H103.818V7.24201H106.156C104.924 8.14906 104.15 9.48919 104.15 11.1216C104.15 14.17 106.867 16.2259 110.216 16.2259C113.565 16.2259 116.281 14.17 116.281 11.1216C116.281 9.48919 115.505 8.14906 114.269 7.24201H116.447V5.2992H111.793V4.20208C111.793 3.66314 111.623 3.36841 110.877 3.36841H108.449C108.449 3.36841 108.725 3.53322 108.725 4.58944ZM107.281 11.1216C107.281 9.16799 108.593 7.93253 110.208 7.93253C111.822 7.93253 113.153 9.16799 113.153 11.1216C113.153 13.0753 111.836 14.3156 110.208 14.3156C108.58 14.3156 107.281 13.0801 107.281 11.1264V11.1216Z" fill="#0067AC"/>
<path d="M116.906 16.9849C112.756 16.9849 109.39 19.2296 109.39 22.5547C109.39 25.8797 112.758 28.1281 116.906 28.1281C121.054 28.1281 124.427 25.8833 124.427 22.5547C124.427 19.226 121.059 16.9849 116.906 16.9849ZM116.906 26.1937C114.678 26.1937 112.876 24.785 112.876 22.5619C112.876 20.3388 114.68 18.9289 116.906 18.9289C119.131 18.9289 120.946 20.3304 120.946 22.5619C120.946 24.7934 119.141 26.1937 116.911 26.1937H116.906Z" fill="#0067AC"/>
<path d="M121.667 5.73339V8.54116H120.368V4.58334C120.368 4.05523 120.194 3.77734 119.422 3.77734H117.257C117.257 3.77734 117.547 4.03598 117.547 5.73339V15.9082H120.372V10.5525H121.667V15.9082H124.488V4.58334C124.488 4.05523 124.314 3.77734 123.543 3.77734H121.377C121.377 3.77734 121.671 4.06125 121.671 5.73339H121.667Z" fill="#0067AC"/>
<path d="M73.9317 27.5917H77.2772V4.59183C77.2772 4.06733 76.9271 3.78223 76.1344 3.78223H73.6382C73.6382 3.78223 73.9281 4.012 73.9281 5.76113L73.9365 27.5917H73.9317Z" fill="#0067AC"/>
<path d="M73.9355 17.4914C73.9355 19.3295 71.1073 19.2958 71.1073 19.2958H62.9005C62.1306 19.3476 62.0585 18.9686 62.0404 18.5031V13.548H69.126C69.9055 13.548 70.0884 13.2605 70.0884 12.7336V5.32678C70.0884 4.79386 69.9055 4.51477 69.126 4.51477H58.1716V6.48526H66.5925V11.5727H58.2426C58.2426 11.5727 58.5409 11.9516 58.5409 12.9814V19.7469C58.5794 20.2775 58.8309 21.1905 60.7532 21.2615H70.3639C70.3639 21.2615 74.1172 21.3746 74.1172 20.186" fill="#0067AC"/>
</svg>
