<svg width="145" height="30" viewBox="0 0 145 30" fill="none" xmlns="http://www.w3.org/2000/svg">
<path d="M103.736 10.359H106.895V3.12631C106.895 3.09035 106.91 3.05587 106.935 3.03044C106.96 3.00501 106.995 2.99072 107.031 2.99072H110.275C110.311 2.99072 110.345 3.00501 110.371 3.03044C110.396 3.05587 110.41 3.09035 110.41 3.12631V26.8737C110.41 26.9097 110.396 26.9442 110.371 26.9696C110.345 26.995 110.311 27.0093 110.275 27.0093H107.031C107.013 27.0099 106.995 27.0067 106.978 27.0001C106.962 26.9935 106.946 26.9835 106.934 26.9708C106.921 26.9581 106.911 26.9429 106.904 26.9262C106.898 26.9095 106.895 26.8917 106.895 26.8737V12.3425H103.736C103.719 12.343 103.701 12.34 103.685 12.3335C103.669 12.3271 103.654 12.3174 103.642 12.3051C103.63 12.2928 103.62 12.278 103.613 12.2618C103.607 12.2456 103.604 12.2282 103.605 12.2108V10.4907C103.604 10.4733 103.607 10.4559 103.613 10.4397C103.62 10.4235 103.63 10.4087 103.642 10.3964C103.654 10.3841 103.669 10.3744 103.685 10.3679C103.701 10.3615 103.719 10.3585 103.736 10.359Z" fill="#E72410"/>
<path d="M111.785 3.12237C111.784 3.10457 111.787 3.08683 111.794 3.07018C111.8 3.05353 111.809 3.0383 111.822 3.02535C111.834 3.01239 111.849 3.00198 111.865 2.9947C111.881 2.98742 111.899 2.98341 111.916 2.98291H115.168C115.186 2.98341 115.204 2.98742 115.22 2.9947C115.236 3.00198 115.251 3.01239 115.263 3.02535C115.275 3.0383 115.285 3.05353 115.291 3.07018C115.297 3.08683 115.3 3.10457 115.3 3.12237V26.8698C115.3 26.9047 115.286 26.9382 115.261 26.9629C115.237 26.9876 115.203 27.0015 115.168 27.0015H111.916C111.881 27.0015 111.848 26.9876 111.823 26.9629C111.799 26.9382 111.785 26.9047 111.785 26.8698V3.12237Z" fill="#E72410"/>
<path d="M106.477 17.6613C106.029 17.513 105.604 17.3017 105.215 17.0338C104.345 16.4322 103.626 15.6365 103.117 14.7094C102.125 12.9075 101.632 10.8734 101.688 8.81709V7.85635H104.754C104.769 7.85689 104.783 7.85445 104.796 7.84919C104.81 7.84393 104.822 7.83597 104.832 7.82578C104.842 7.8156 104.85 7.80342 104.855 7.79002C104.861 7.77661 104.863 7.76227 104.863 7.74788V5.89999C104.863 5.88542 104.861 5.8709 104.855 5.85729C104.85 5.84368 104.842 5.83126 104.832 5.82078C104.822 5.81029 104.81 5.80195 104.797 5.79626C104.783 5.79056 104.769 5.78763 104.754 5.78764H101.688V3.12236C101.688 3.09256 101.676 3.06399 101.655 3.04292C101.634 3.02185 101.606 3.01001 101.576 3.01001H98.0915C98.062 3.01098 98.0339 3.02312 98.0131 3.04399C97.9923 3.06485 97.9801 3.09287 97.9792 3.12236V5.78764H94.6536C94.6391 5.78763 94.6247 5.79056 94.6112 5.79626C94.5978 5.80195 94.5857 5.81029 94.5756 5.82078C94.5654 5.83126 94.5575 5.84368 94.5523 5.85729C94.5471 5.8709 94.5447 5.88542 94.5452 5.89999V7.74788C94.5452 7.77664 94.5567 7.80423 94.577 7.82457C94.5973 7.84492 94.6249 7.85635 94.6536 7.85635H97.9792V8.81709C98.0351 10.8729 97.5433 12.9065 96.5545 14.7094C96.0436 15.6346 95.327 16.4298 94.4601 17.0338C94.0685 17.3018 93.6409 17.5131 93.1902 17.6613C93.1322 17.6613 93.1128 17.7892 93.1902 17.855L94.4639 18.9591C94.5631 19.0095 94.6748 19.0297 94.7853 19.0172C95.7082 18.8473 96.5736 18.4477 97.3017 17.855C97.4565 17.7388 97.6075 17.611 97.7585 17.4677C98.6458 16.6191 99.3494 15.5972 99.8258 14.4653C100.303 15.5987 101.01 16.6209 101.901 17.4677C102.044 17.5955 102.199 17.7233 102.354 17.855C103.081 18.4468 103.945 18.8464 104.866 19.0172C104.978 19.03 105.091 19.0098 105.192 18.9591C105.296 18.8662 106.353 17.9635 106.461 17.855C106.57 17.7466 106.543 17.6768 106.477 17.6613Z" fill="#E72410"/>
<path d="M87.8788 18.6725C87.8964 18.6725 87.9139 18.669 87.9301 18.6621C87.9463 18.6553 87.961 18.6452 87.9733 18.6326C87.9856 18.6199 87.9952 18.6049 88.0016 18.5885C88.0079 18.5721 88.011 18.5545 88.0104 18.5369V16.8169C88.011 16.7992 88.0079 16.7817 88.0016 16.7653C87.9952 16.7488 87.9856 16.7339 87.9733 16.7212C87.961 16.7086 87.9463 16.6985 87.9301 16.6917C87.9139 16.6848 87.8964 16.6813 87.8788 16.6813H65.7266C65.7088 16.6813 65.6912 16.6848 65.6747 16.6916C65.6583 16.6984 65.6433 16.7084 65.6308 16.721C65.6182 16.7336 65.6082 16.7485 65.6014 16.765C65.5946 16.7814 65.5911 16.7991 65.5911 16.8169V18.5369C65.5911 18.5729 65.6054 18.6074 65.6308 18.6328C65.6562 18.6582 65.6906 18.6725 65.7266 18.6725H74.9599V26.8853C74.9594 26.9031 74.9624 26.9208 74.9687 26.9375C74.975 26.9541 74.9846 26.9694 74.9968 26.9823C75.009 26.9953 75.0237 27.0057 75.04 27.013C75.0562 27.0203 75.0737 27.0243 75.0915 27.0248H78.541C78.5773 27.0238 78.6117 27.0086 78.637 26.9826C78.6623 26.9565 78.6765 26.9216 78.6765 26.8853V18.6725H87.8788Z" fill="#E72410"/>
<path d="M71.58 13.1637C73.0784 14.3173 74.9159 14.9427 76.8064 14.9427C78.6969 14.9427 80.5344 14.3173 82.0328 13.1637C83.4691 11.9822 84.1931 10.5372 84.1931 8.86364C84.1931 7.19008 83.4691 5.73734 82.0328 4.54804C80.5382 3.38573 78.6993 2.75476 76.8064 2.75476C74.9135 2.75476 73.0746 3.38573 71.58 4.54804C70.9116 5.04962 70.3692 5.70002 69.9956 6.44773C69.622 7.19544 69.4275 8.01993 69.4275 8.85589C69.4275 9.69186 69.622 10.5163 69.9956 11.264C70.3692 12.0118 70.9116 12.6622 71.58 13.1637ZM74.1816 5.95816C74.5014 5.57539 74.9027 5.26918 75.3563 5.06203C75.8099 4.85488 76.3041 4.75205 76.8026 4.76111C77.3031 4.75303 77.7992 4.85622 78.2551 5.06322C78.711 5.27022 79.1154 5.57588 79.439 5.95816C80.1265 6.76994 80.5039 7.79952 80.5039 8.86364C80.5039 9.92775 80.1265 10.9573 79.439 11.7691C79.1174 12.1551 78.714 12.4646 78.2579 12.675C77.8019 12.8854 77.3047 12.9915 76.8026 12.9855C76.3015 12.9929 75.8052 12.887 75.3507 12.6757C74.8962 12.4644 74.4953 12.1532 74.1777 11.7652C73.5083 10.9496 73.1424 9.92684 73.1424 8.87138C73.1424 7.81593 73.5083 6.79317 74.1777 5.97753L74.1816 5.95816Z" fill="#E72410"/>
<path d="M144.607 12.3192H140.84L140.956 12.1759C141.288 11.6715 141.515 11.1047 141.622 10.5101C141.797 9.81063 141.89 9.09283 141.897 8.37167V3.13794C141.897 3.10506 141.884 3.07353 141.86 3.05028C141.837 3.02703 141.806 3.01398 141.773 3.01398H125.385C125.369 3.01346 125.352 3.01628 125.337 3.02228C125.321 3.02827 125.307 3.03732 125.295 3.04888C125.283 3.06045 125.274 3.07429 125.267 3.08959C125.261 3.10489 125.257 3.12133 125.257 3.13794V4.92771C125.258 4.94399 125.262 4.96002 125.268 4.97487C125.275 4.98972 125.285 5.0031 125.296 5.01426C125.308 5.02541 125.322 5.03411 125.337 5.03987C125.353 5.04563 125.369 5.04833 125.385 5.04781H138.138V8.4569L138.049 10.4791C138.013 11.117 137.854 11.7419 137.58 12.3192H122.698C122.682 12.3187 122.665 12.3215 122.65 12.3275C122.634 12.3335 122.62 12.3426 122.608 12.3542C122.596 12.3657 122.587 12.3796 122.58 12.3949C122.574 12.4102 122.571 12.4266 122.571 12.4432V14.233C122.57 14.2498 122.573 14.2665 122.579 14.282C122.585 14.2976 122.595 14.3116 122.607 14.3233C122.619 14.335 122.633 14.344 122.649 14.3498C122.665 14.3556 122.682 14.358 122.698 14.3569H131.68V18.4169H125.292C125.259 18.4169 125.228 18.4299 125.205 18.4532C125.181 18.4764 125.168 18.508 125.168 18.5408V20.3539C125.168 20.3871 125.181 20.419 125.204 20.4429C125.228 20.4668 125.259 20.4807 125.292 20.4817H138.068V26.9009C138.068 26.9348 138.081 26.9673 138.105 26.9912C138.129 27.0152 138.162 27.0287 138.196 27.0287H141.703C141.72 27.0287 141.736 27.0254 141.751 27.0189C141.767 27.0124 141.781 27.0029 141.792 26.991C141.804 26.9791 141.813 26.965 141.819 26.9495C141.825 26.934 141.828 26.9175 141.827 26.9009V18.5525C141.827 18.5196 141.814 18.488 141.791 18.4648C141.768 18.4415 141.736 18.4285 141.703 18.4285H135.431V14.3569H144.595C144.612 14.3575 144.628 14.3546 144.643 14.3486C144.658 14.3426 144.672 14.3335 144.684 14.3218C144.696 14.3102 144.705 14.2963 144.711 14.2811C144.717 14.2658 144.72 14.2494 144.719 14.233V12.4432C144.719 12.4122 144.708 12.3824 144.687 12.3594C144.666 12.3365 144.637 12.3221 144.607 12.3192Z" fill="#E72410"/>
<path d="M0.0789689 14.8954C0.0555962 14.9051 0.0356094 14.9215 0.0215499 14.9425C0.00749032 14.9635 0 14.9883 0 15.0136C0 15.0389 0.00749032 15.0636 0.0215499 15.0846C0.0356094 15.1057 0.0555962 15.1221 0.0789689 15.1317L9.69167 21.516L12.452 8.52661L0.0789689 14.8954Z" fill="#E72410"/>
<path d="M57.0973 8.49951H54.666C54.5147 8.50798 54.3663 8.54477 54.2285 8.60798L42.0219 14.9032C41.9097 14.9574 41.9058 15.062 42.0219 15.1356L51.4915 21.3727C51.6207 21.4459 51.7651 21.4883 51.9134 21.4967H54.3486C54.4763 21.4967 54.4918 21.4424 54.3873 21.3727L44.7087 15.0078L57.1243 8.60798C57.2327 8.55375 57.2211 8.49951 57.0973 8.49951Z" fill="#F08300"/>
<path d="M51.8785 8.49951H34.9217L32.1575 21.516H49.1182C49.2459 21.516 49.2614 21.4618 49.1569 21.3921L39.5054 15.0271L51.8939 8.62735C52.0139 8.55375 52.0024 8.49951 51.8785 8.49951Z" fill="#E72410"/>
<path d="M62.3004 8.49951H59.8691C59.719 8.508 59.5719 8.5448 59.4355 8.60798L47.2251 14.9032C47.1167 14.9574 47.1128 15.062 47.2251 15.1356L56.6946 21.3727C56.822 21.4469 56.9654 21.4894 57.1127 21.4967H59.5517C59.6794 21.4967 59.6949 21.4424 59.5865 21.3727L49.908 15.0078L62.3197 8.60798C62.4436 8.55375 62.432 8.49951 62.3004 8.49951Z" fill="#FABE00"/>
<path d="M51.1275 0H11.19C8.95618 0 7.396 1.40237 7.02822 3.13791C6.92922 3.57866 6.96072 4.03873 7.11886 4.46185C7.277 4.88498 7.55493 5.25282 7.91866 5.5204L22.2739 15L51.143 0.104593C51.2669 0.0503573 51.2553 0 51.1275 0Z" fill="#E72410"/>
<path d="M44.7939 29.8722L22.2816 15L3.90017 24.4835C3.43807 24.7294 3.03108 25.0673 2.7042 25.4763C2.37732 25.8853 2.13744 26.3569 1.99929 26.8621C1.61215 28.5937 2.58776 30 4.82157 30H44.7552C44.883 30 44.8984 29.9458 44.7939 29.8722Z" fill="#E72410"/>
</svg>
