<svg width="240" height="81" viewBox="0 0 240 81" fill="none" xmlns="http://www.w3.org/2000/svg">
<rect x="0.5" y="0.5" width="239" height="80" rx="15.5" fill="white"/>
<rect x="0.5" y="0.5" width="239" height="80" rx="15.5" stroke="#E4E9F1"/>
<path d="M77.6178 24H52V56.6486H77.6178V24Z" fill="#0091D0"/>
<path d="M52 24L58.4031 32.1673L64.8062 24H52Z" fill="#0091D0"/>
<path d="M52 24V40.3209L58.4031 32.1673L52 24Z" fill="#009CD8"/>
<path d="M64.8062 40.3209L58.4085 32.1605L52 40.3209H64.8062Z" fill="#0091D0"/>
<path d="M64.8064 40.3209V24L58.4087 32.1604L64.8064 40.3209Z" fill="#0082C9"/>
<path d="M64.8062 24V40.3209L71.2093 32.1673L64.8062 24Z" fill="#0070BB"/>
<path d="M77.618 40.3209L71.2149 32.1605L64.8118 40.3209H77.618Z" fill="#004C98"/>
<path d="M52 40.3278L58.4031 48.4883L64.8062 40.3278H52Z" fill="#0082C9"/>
<path d="M52 40.3278V56.6487L58.4031 48.4883L52 40.3278Z" fill="#0070BB"/>
<path d="M64.8062 56.6486L58.4085 48.4813L52 56.6486H64.8062Z" fill="#0060AF"/>
<path d="M64.8064 56.6487V40.3278L58.4087 48.4813L64.8064 56.6487Z" fill="#00529C"/>
<path d="M64.8062 40.3278L71.2092 48.4883L77.6178 40.3278H64.8062Z" fill="#1C378A"/>
<path d="M64.8062 40.3278V56.6487L71.2093 48.4883L64.8062 40.3278Z" fill="#004C98"/>
<path d="M77.618 56.6486L71.2149 48.4813L64.8118 56.6486H77.618Z" fill="#1C378A"/>
<path d="M77.6175 56.6487V40.3278L71.2144 48.4813L77.6175 56.6487Z" fill="#1C378A"/>
<path d="M64.8062 24L71.2092 32.1673L77.6178 24H64.8062Z" fill="#0060AF"/>
<path d="M77.6175 40.3209V24L71.2144 32.1604L77.6175 40.3209Z" fill="#00529C"/>
<path d="M77.6175 44.408L69.4159 34.4525L56.9673 50.3522L61.5069 56.1446L69.4159 46.2168L77.6175 56.6141V44.408Z" fill="white"/>
<path d="M176.822 50.0002C176.822 48.1154 178.242 46.5482 180.019 46.5482C181.795 46.5482 183.204 48.1085 183.209 50.0002C183.215 51.8919 181.79 53.4522 180.019 53.4522C178.247 53.4522 176.828 51.8988 176.822 50.0002ZM173.339 50.0002C173.339 53.7007 176.34 56.6556 180.019 56.6625C183.697 56.6694 186.692 53.7007 186.698 50.0002C186.703 46.2997 183.691 43.3379 180.019 43.331C176.346 43.3241 173.339 46.2928 173.339 50.0002ZM168.42 37.4213C168.42 35.8265 169.628 34.5009 171.129 34.5009C172.63 34.5009 173.838 35.8265 173.838 37.4213C173.838 39.0161 172.635 40.3416 171.129 40.3416C169.623 40.3416 168.42 39.023 168.42 37.4213ZM165.414 37.4213C165.414 40.5971 167.992 43.1239 171.134 43.1308C174.276 43.1377 176.85 40.5971 176.855 37.4213C176.86 34.2455 174.276 31.7186 171.134 31.7117C167.992 31.7048 165.419 34.2455 165.414 37.4213ZM142.12 45.1813V52.6582C142.154 53.3718 142.395 54.0439 142.795 54.5449C143.195 55.0459 143.726 55.3404 144.287 55.3714H159.937V52.4994H146.01C145.923 52.4994 145.89 52.4442 145.858 52.3475C145.837 52.2815 145.826 52.2114 145.825 52.1404V45.1813H142.12ZM93.5442 29.4472H98.788V26.5683H85.1259L85.9439 29.4472H90.4131C90.4012 30.4724 90.3433 31.4958 90.2397 32.5126C89.7998 35.1274 88.5724 37.4179 86.8215 38.8918C85.9289 39.7136 84.9542 40.3799 83.9233 40.8732L84.8551 43.262H84.9201C89.5355 42.0262 91.5074 38.16 91.9624 37.0485C92.4337 38.1393 94.4056 42.0055 99.0047 43.262H99.0697L99.9961 40.8732C98.9657 40.3783 97.9912 39.7121 97.0979 38.8918C95.3486 37.4171 94.1232 35.1266 93.6851 32.5126C93.5787 31.4962 93.5208 30.4725 93.5117 29.4472M106.237 45.851V25.6639H102.553V33.2582L101.215 31.5529C101.164 31.4817 101.102 31.4249 101.033 31.3859C100.964 31.347 100.89 31.3269 100.814 31.3269C100.739 31.3269 100.664 31.347 100.595 31.3859C100.526 31.4249 100.464 31.4817 100.413 31.5529L98.6039 33.8519C98.5471 33.9167 98.5017 33.996 98.4706 34.0846C98.4396 34.1732 98.4235 34.2692 98.4235 34.3663C98.4235 34.4634 98.4396 34.5593 98.4706 34.648C98.5017 34.7366 98.5471 34.8159 98.6039 34.8806L100.413 37.1796C100.464 37.2508 100.526 37.3077 100.595 37.3466C100.664 37.3856 100.739 37.4057 100.814 37.4057C100.89 37.4057 100.964 37.3856 101.033 37.3466C101.102 37.3077 101.164 37.2508 101.215 37.1796L102.553 35.4744V45.8302L106.237 45.851ZM90.6352 55.3784H106.242V52.4787H92.3795C92.3406 52.4789 92.3024 52.4647 92.2697 52.4377C92.237 52.4108 92.2112 52.3722 92.1954 52.3268C92.1722 52.271 92.1575 52.2101 92.152 52.1473V45.1606H88.4413V52.5892C88.4781 53.3156 88.724 53.9992 89.1318 54.5088C89.5397 55.0184 90.0808 55.3182 90.6515 55.3507M117.158 32.6438H128.252V35.3639H117.531C117.47 35.3741 117.407 35.3597 117.351 35.3226C117.296 35.2855 117.251 35.2276 117.223 35.1568C117.196 35.085 117.18 35.0079 117.174 34.929L117.158 32.6438ZM115.776 38.2428H131.925V25.6639H128.247V29.8062H117.174V25.6639H113.507V35.2051C113.556 35.9747 113.811 36.6991 114.231 37.2563C114.65 37.8134 115.208 38.1692 115.809 38.2635M124.872 43.3034H135.376V40.4314H110.706L111.524 43.3034H121.177V45.9269H113.268L114.086 48.7989H128.415V55.3784H132.104V45.9338H124.883L124.872 43.3034ZM153.783 31.8153C153.783 33.6103 152.429 35.0946 150.733 35.0946C149.038 35.0946 147.694 33.6103 147.689 31.8153C147.683 30.0203 149.043 28.529 150.733 28.529C152.423 28.529 153.778 30.0134 153.783 31.8153ZM157.126 31.8153C157.126 28.2667 154.249 25.443 150.733 25.4361C147.218 25.4292 144.352 28.2667 144.346 31.8153C144.341 35.3639 147.223 38.1807 150.733 38.1876C154.244 38.1945 157.12 35.357 157.126 31.8153ZM138.902 43.3034H162.738V40.4314H138.068L138.902 43.3034ZM164.97 30.6968H177.754V27.8248H173.209V24.6904H169.525V27.8248H164.108L164.926 30.6968H164.97ZM187.982 25.5603H184.298V32.6645H182.527V25.5603H178.843V42.0607H182.527V35.5572H184.298V43.5589H187.976L187.982 25.5603Z" fill="#021D49"/>
</svg>
