<svg width="138" height="26" viewBox="0 0 138 26" fill="none" xmlns="http://www.w3.org/2000/svg">
<path d="M25.989 0H0V25.989H25.989V0Z" fill="#0091D0"/>
<path d="M0 0L6.49587 6.50137L12.9917 0H0Z" fill="#0091D0"/>
<path d="M0 0V12.9917L6.49587 6.50137L0 0Z" fill="#009CD8"/>
<path d="M12.9917 12.9917L6.50137 6.49585L0 12.9917H12.9917Z" fill="#0091D0"/>
<path d="M12.9918 12.9917V0L6.50146 6.49587L12.9918 12.9917Z" fill="#0082C9"/>
<path d="M12.9915 0V12.9917L19.4873 6.50137L12.9915 0Z" fill="#0070BB"/>
<path d="M25.9893 12.9917L19.4934 6.49585L12.9976 12.9917H25.9893Z" fill="#004C98"/>
<path d="M0 12.9973L6.49587 19.4931L12.9917 12.9973H0Z" fill="#0082C9"/>
<path d="M0 12.9973V25.989L6.49587 19.4931L0 12.9973Z" fill="#0070BB"/>
<path d="M12.9917 25.989L6.50137 19.4876L0 25.989H12.9917Z" fill="#0060AF"/>
<path d="M12.9918 25.989V12.9973L6.50146 19.4876L12.9918 25.989Z" fill="#00529C"/>
<path d="M12.9915 12.9973L19.4873 19.4931L25.9887 12.9973H12.9915Z" fill="#1C378A"/>
<path d="M12.9915 12.9973V25.989L19.4873 19.4931L12.9915 12.9973Z" fill="#004C98"/>
<path d="M25.9893 25.989L19.4934 19.4876L12.9976 25.989H25.9893Z" fill="#1C378A"/>
<path d="M25.9888 25.989V12.9973L19.4929 19.4876L25.9888 25.989Z" fill="#1C378A"/>
<path d="M12.9915 0L19.4873 6.50137L25.9887 0H12.9915Z" fill="#0060AF"/>
<path d="M25.9888 12.9917V0L19.4929 6.49587L25.9888 12.9917Z" fill="#00529C"/>
<path d="M25.989 16.2452L17.6686 8.32043L5.03955 20.9769L9.64492 25.5878L17.6686 17.685L25.989 25.9615V16.2452Z" fill="white"/>
<path d="M126.631 20.6967C126.631 19.1963 128.071 17.9488 129.873 17.9488C131.676 17.9488 133.105 19.1909 133.11 20.6967C133.116 22.2025 131.67 23.4445 129.873 23.4445C128.076 23.4445 126.636 22.208 126.631 20.6967ZM123.097 20.6967C123.097 23.6423 126.142 25.9945 129.873 26C133.605 26.0055 136.644 23.6423 136.649 20.6967C136.655 17.751 133.599 15.3933 129.873 15.3879C126.147 15.3824 123.097 17.7455 123.097 20.6967ZM118.107 10.6836C118.107 9.41407 119.333 8.35891 120.855 8.35891C122.377 8.35891 123.603 9.41407 123.603 10.6836C123.603 11.9531 122.383 13.0082 120.855 13.0082C119.327 13.0082 118.107 11.9586 118.107 10.6836ZM115.057 10.6836C115.057 13.2116 117.673 15.223 120.86 15.2285C124.048 15.234 126.658 13.2116 126.664 10.6836C126.669 8.15556 124.048 6.14415 120.86 6.13866C117.673 6.13316 115.062 8.15556 115.057 10.6836ZM91.4256 16.8607V22.8125C91.4604 23.3805 91.7043 23.9155 92.1102 24.3143C92.5162 24.7132 93.0554 24.9475 93.6239 24.9723H109.501V22.6861H95.3715C95.2836 22.6861 95.2506 22.6421 95.2177 22.5652C95.1969 22.5127 95.1857 22.4568 95.1847 22.4003V16.8607H91.4256ZM42.146 4.33608H47.4658V2.04438H33.6058L34.4356 4.33608H38.9695C38.9574 5.15212 38.8987 5.96681 38.7937 6.77616C38.3473 8.85762 37.1022 10.6809 35.3259 11.8541C34.4203 12.5083 33.4316 13.0387 32.3857 13.4314L33.331 15.3329H33.3969C38.0792 14.3492 40.0797 11.2716 40.5413 10.3868C41.0194 11.2551 43.0198 14.3327 47.6857 15.3329H47.7516L48.6914 13.4314C47.6461 13.0375 46.6575 12.5071 45.7512 11.8541C43.9765 10.6803 42.7334 8.85696 42.2889 6.77616C42.181 5.9671 42.1223 5.15225 42.1131 4.33608M55.0224 17.3938V1.32445H51.2853V7.36968L49.9279 6.01225C49.8764 5.95558 49.8136 5.91031 49.7436 5.87932C49.6735 5.84834 49.5978 5.83233 49.5212 5.83233C49.4446 5.83233 49.3689 5.84834 49.2989 5.87932C49.2288 5.91031 49.166 5.95558 49.1145 6.01225L47.279 7.84232C47.2214 7.89386 47.1754 7.95697 47.1438 8.02752C47.1123 8.09807 47.096 8.17447 47.096 8.25174C47.096 8.32901 47.1123 8.40541 47.1438 8.47596C47.1754 8.54651 47.2214 8.60962 47.279 8.66116L49.1145 10.4912C49.166 10.5479 49.2288 10.5932 49.2989 10.6242C49.3689 10.6551 49.4446 10.6712 49.5212 10.6712C49.5978 10.6712 49.6735 10.6551 49.7436 10.6242C49.8136 10.5932 49.8764 10.5479 49.9279 10.4912L51.2853 9.1338V17.3773L55.0224 17.3938ZM39.1949 24.9778H55.0279V22.6696H40.9645C40.9249 22.6698 40.8862 22.6585 40.853 22.637C40.8198 22.6155 40.7936 22.5848 40.7776 22.5487C40.7541 22.5043 40.7392 22.4558 40.7336 22.4058V16.8442H36.9691V22.7575C37.0065 23.3358 37.2559 23.8799 37.6697 24.2856C38.0835 24.6913 38.6325 24.9299 39.2113 24.9558M66.1016 6.88058H77.3567V9.04587H66.4808C66.418 9.05397 66.3542 9.04249 66.2981 9.01298C66.2421 8.98347 66.1965 8.93737 66.1676 8.88099C66.1408 8.82383 66.1241 8.76248 66.1181 8.69964L66.1016 6.88058ZM64.7002 11.3376H81.0828V1.32445H77.3512V4.62185H66.1181V1.32445H62.3976V8.91946C62.4473 9.53204 62.7068 10.1087 63.1323 10.5522C63.5578 10.9957 64.1232 11.2789 64.7332 11.354M73.9275 15.3659H84.5835V13.0797H59.5563L60.3861 15.3659H70.1794V17.4542H62.1557L62.9856 19.7404H77.5216V24.9778H81.2642V17.4597H73.9384L73.9275 15.3659ZM103.258 6.22109C103.258 7.64996 101.884 8.83153 100.164 8.83153C98.4436 8.83153 97.0807 7.64996 97.0752 6.22109C97.0697 4.79222 98.4491 3.60516 100.164 3.60516C101.878 3.60516 103.252 4.78672 103.258 6.22109ZM106.649 6.22109C106.649 3.39632 103.73 1.1486 100.164 1.1431C96.5971 1.13761 93.6899 3.39632 93.6844 6.22109C93.6789 9.04586 96.6026 11.2881 100.164 11.2936C103.725 11.2991 106.643 9.04036 106.649 6.22109ZM88.1612 15.3659H112.342V13.0797H87.3149L88.1612 15.3659ZM114.606 5.33079H127.576V3.0446H122.965V0.549561H119.228V3.0446H113.733L114.562 5.33079H114.606ZM137.952 1.24202H134.215V6.89706H132.418V1.24202H128.681V14.3767H132.418V9.19975H134.215V15.5692H137.946L137.952 1.24202Z" fill="#021D49"/>
</svg>
