<svg width="136" height="32" viewBox="0 0 136 32" fill="none" xmlns="http://www.w3.org/2000/svg">
<g clip-path="url(#clip0_14_118)">
<path d="M15.9973 -0.0107413C12.8318 -0.0118044 9.73714 0.925962 7.10468 2.68395C4.47223 4.44194 2.4203 6.94117 1.20843 9.8655C-0.00343909 12.7898 -0.320808 16.0079 0.296488 19.1126C0.913784 22.2173 2.43801 25.0692 4.67635 27.3075C6.91469 29.5459 9.76659 31.0701 12.8713 31.6874C15.976 32.3047 19.1941 31.9873 22.1184 30.7755C25.0427 29.5636 27.5419 27.5117 29.2999 24.8792C31.0579 22.2468 31.9957 19.1521 31.9946 15.9866C31.9953 13.8856 31.5821 11.805 30.7784 9.86383C29.9747 7.92262 28.7963 6.15881 27.3107 4.67318C25.8251 3.18755 24.0613 2.00923 22.1201 1.20554C20.1789 0.401851 18.0983 -0.0114476 15.9973 -0.0107413ZM16.3306 29.0543C13.8477 29.2982 11.3508 28.7567 9.19201 27.5061C7.60014 26.5163 6.32733 25.0886 5.52598 23.3939C4.80029 21.8781 4.45088 20.0397 5.23032 20.131C5.59585 20.174 5.90763 20.8621 6.61181 21.7437C7.0956 22.3565 7.53638 22.8725 7.86966 22.9478C8.0148 22.98 8.13844 22.9101 8.24595 22.7059C8.49775 22.1099 8.81505 21.5438 9.19201 21.018C9.57905 20.5718 10.0467 20.3622 10.3209 21.4534C10.4484 21.9852 10.5471 22.5235 10.6165 23.066C10.7025 23.7595 10.7455 24.1734 10.9874 24.2916C11.2293 24.4099 11.6056 24.2594 12.2345 24.0228C12.6914 23.8508 13.2666 23.6412 14.003 23.4262C14.7395 23.2112 15.1104 23.3348 14.675 24.383C14.3761 25.0836 13.9915 25.7444 13.53 26.3504C13.4985 26.3896 13.475 26.4345 13.4609 26.4828C13.4469 26.531 13.4424 26.5815 13.4479 26.6315C13.4534 26.6814 13.4687 26.7298 13.493 26.7738C13.5172 26.8178 13.5499 26.8566 13.5891 26.888C14.014 27.2266 14.4892 27.4969 14.9975 27.6889C15.4717 27.8886 15.9583 28.0574 16.4542 28.1942C17.0563 28.3716 16.938 28.979 16.3306 29.065V29.0543ZM24.5443 25.614C23.6953 26.8106 22.5328 27.7499 21.1846 28.3286C20.9535 28.4307 20.7062 28.3985 20.6471 28.2157C20.5879 28.0329 20.7223 27.8663 20.8729 27.6782C22.8456 25.1194 21.3781 22.7704 18.1851 20.9481C15.8361 19.6042 14.3363 18.8302 12.6 17.8088C7.51488 14.8147 6.53118 12.2076 6.33229 10.6595C5.83238 6.76232 9.05764 3.83808 12.3743 3.13389C12.471 3.13389 12.7398 3.06939 12.8258 3.28979C12.9118 3.51018 12.7129 3.66606 12.6 3.73594C11.1164 4.55301 9.65968 6.28927 9.81557 8.21368C9.90695 9.28876 10.3531 10.8369 13.2774 12.9118C15.0351 14.1643 17.1853 15.191 21.5233 17.7927C26.13 20.5664 25.5925 23.9207 24.5443 25.6247V25.614ZM25.2592 10.982C24.211 12.2614 23.1682 11.7883 22.3618 9.9822C21.8566 8.85873 21.1954 8.58997 20.7492 8.88024C20.3031 9.17052 20.4374 9.95533 21.0072 10.8638C21.1699 11.1209 21.2408 11.4254 21.2086 11.7278C21.1764 12.0303 21.0429 12.3131 20.8299 12.5302C20.5922 12.751 20.3018 12.9071 19.9864 12.9833C19.671 13.0596 19.3414 13.0535 19.0291 12.9656C17.739 12.6807 16.4704 10.9498 17.4164 7.1816C17.7874 5.65498 17.0563 5.03142 16.594 4.41862C16.3629 4.12834 16.336 3.95096 16.4166 3.8327C16.4972 3.71444 16.723 3.69294 17.1047 3.77357C17.5992 3.88108 18.3356 4.13373 18.9377 4.22511C19.3612 4.28598 19.7895 4.30757 20.2171 4.28961C21.3292 4.20471 22.4436 4.42202 23.4423 4.91855C25.0926 5.73024 25.2592 7.13859 24.3454 7.02571C23.9683 6.92945 23.6064 6.78109 23.2703 6.58492C23.1895 6.52596 23.0939 6.49071 22.9942 6.48311C22.8945 6.47552 22.7947 6.49588 22.7059 6.54192C22.6334 6.60169 22.5841 6.68488 22.5664 6.77713C22.5488 6.86938 22.5639 6.96491 22.6091 7.04722C22.8134 7.47725 23.5068 7.69764 24.4421 7.95567C26.0816 8.42333 26.13 9.94458 25.2592 10.9928V10.982Z" fill="#0046FF"/>
<path d="M16.3305 29.065C13.8476 29.3089 11.3507 28.7674 9.19192 27.5168C7.60004 26.527 6.32723 25.0993 5.52589 23.4046C4.8002 21.8888 4.45079 20.0504 5.23023 20.1417C5.59576 20.1847 5.90754 20.8728 6.61172 21.7544C7.09551 22.3672 7.53629 22.8832 7.86957 22.9585C8.01471 22.9907 8.13835 22.9208 8.24586 22.7166C8.49766 22.1206 8.81496 21.5545 9.19192 21.0287C9.57896 20.5825 10.0466 20.3729 10.3208 21.4641C10.4483 21.9959 10.547 22.5343 10.6164 23.0767C10.7024 23.7702 10.7454 24.1841 10.9873 24.3023C11.2292 24.4206 11.6055 24.2701 12.2344 24.0336C12.6913 23.8616 13.2665 23.6519 14.003 23.4369C14.7394 23.2219 15.1103 23.3455 14.6749 24.3937C14.376 25.0943 13.9914 25.7551 13.5299 26.3611C13.4984 26.4003 13.4749 26.4453 13.4608 26.4935C13.4468 26.5417 13.4423 26.5922 13.4478 26.6422C13.4533 26.6921 13.4686 26.7405 13.4929 26.7845C13.5171 26.8285 13.5498 26.8673 13.589 26.8987C14.014 27.2373 14.4891 27.5076 14.9974 27.6996C15.4716 27.8993 15.9582 28.0681 16.4542 28.2049C17.0562 28.3715 16.9379 28.979 16.3305 29.065ZM24.5442 25.6247C23.6952 26.8213 22.5327 27.7606 21.1845 28.3393C20.9534 28.4414 20.7061 28.4092 20.647 28.2264C20.5879 28.0436 20.7223 27.877 20.8728 27.6889C22.8456 25.1302 21.3781 22.7811 18.185 20.9588C15.836 19.615 14.3362 18.8409 12.6 17.8196C7.51478 14.8254 6.53109 12.2183 6.3322 10.6702C5.83229 6.77302 9.05755 3.84878 12.3742 3.1446C12.471 3.1446 12.7397 3.0801 12.8257 3.30049C12.9117 3.52088 12.7128 3.67676 12.6 3.74664C11.1163 4.56371 9.65959 6.29999 9.81548 8.22439C9.90686 9.29948 10.353 10.8476 13.2773 12.9225C15.035 14.175 17.1852 15.2017 21.5232 17.8034C26.1299 20.5664 25.5924 23.9207 24.5442 25.6247ZM25.2591 10.9927C24.2109 12.2721 23.1681 11.7991 22.3618 9.9929C21.8565 8.86944 21.1953 8.60067 20.7491 8.89094C20.303 9.18122 20.4374 9.96603 21.0072 10.8745C21.1698 11.1316 21.2407 11.4361 21.2085 11.7386C21.1763 12.041 21.0429 12.3238 20.8298 12.5409C20.5921 12.7617 20.3017 12.9178 19.9863 12.994C19.671 13.0703 19.3413 13.0642 19.029 12.9763C17.7389 12.6914 16.4703 10.9605 17.4164 7.1923C17.7873 5.66568 17.0562 5.04213 16.5939 4.42933C16.3628 4.13906 16.3359 3.96167 16.4165 3.84341C16.4972 3.72515 16.7229 3.70364 17.1046 3.78427C17.5991 3.89178 18.3356 4.14443 18.9376 4.23581C19.3615 4.29309 19.7898 4.31108 20.217 4.28957C21.3291 4.20467 22.4435 4.42198 23.4422 4.9185C25.0925 5.73019 25.2591 7.13855 24.3453 7.02567C23.9682 6.92941 23.6063 6.78105 23.2702 6.58487C23.1894 6.52592 23.0938 6.49067 22.9941 6.48307C22.8944 6.47547 22.7946 6.49584 22.7058 6.54188C22.6333 6.60164 22.584 6.68483 22.5663 6.77709C22.5487 6.86934 22.5638 6.96487 22.609 7.04717C22.8133 7.47721 23.5067 7.6976 24.442 7.95562C26.0816 8.42329 26.1299 9.94453 25.2591 10.9927Z" fill="white"/>
<path d="M39.4127 8.2083V5.40768H50.771V8.2083H47.1748V13.8901C47.1748 17.5831 49.2067 19.8676 51.7117 21.5286L50.298 23.4638C49.9754 23.91 48.3897 22.9263 47.5726 22.0984C46.6279 21.1943 45.854 20.1272 45.2881 18.9484C44.8006 20.2251 44.0704 21.3952 43.1379 22.3941C42.0628 23.6089 40.4502 24.6787 40.1115 24.254L38.4021 22.2489C41.4285 20.1902 43.24 17.1423 43.24 13.8901V8.2083H39.4127ZM49.0132 12.2291H52.5073V7.17083C52.5673 6.5119 52.3921 5.85301 52.0127 5.31093C51.7117 4.91315 51.8891 4.61749 52.2869 4.61749H56.1034V27.1352H52.5073V15.0835H49.0132V12.2291ZM61.7799 4.46698V27.8018H58.1622V4.46698H61.7799Z" fill="#0046FF"/>
<path d="M87.41 18.2657V21.0663H77.6052V27.7856H73.5844V21.0663H63.7581V18.2657H87.41ZM66.5533 7.87501V5.06903H84.6309V7.87501H77.6428V7.99327C77.6428 10.8476 82.3033 13.2289 86.394 14.2449L85.4318 16.5778C85.2329 17.1154 81.9808 16.0403 80.5187 15.3361C78.5351 14.3417 76.6752 13.0569 75.7077 11.6916C74.7885 13.0838 73.0522 14.2234 71.1923 15.1856C69.5098 16.1048 65.9351 17.2444 65.6663 16.5993L64.7471 14.3202C68.6927 13.3042 73.5252 11.0465 73.5252 7.99327V7.87501H66.5533Z" fill="#0046FF"/>
<path d="M112.196 15.7017V18.3894H88.5442V15.7017H112.196ZM91.5383 21.8996C91.5287 21.417 91.3366 20.956 91.0008 20.6094C90.7051 20.2385 90.904 19.8891 91.2534 19.8891H95.4731V23.9852C95.4731 24.4529 95.7473 24.7002 96.2418 24.7002H109.804V27.5061H94.5163C92.608 27.5061 91.5383 26.3665 91.5383 24.6787V21.8996ZM109.449 9.37477C109.449 12.299 106.697 14.5352 100.37 14.5352C94.0433 14.5352 91.2964 12.299 91.2964 9.37477C91.2964 6.45053 94.0486 4.21973 100.37 4.21973C106.692 4.21973 109.449 6.43978 109.449 9.37477ZM105.627 9.37477C105.627 7.86427 104.144 6.86982 100.37 6.86982C96.5966 6.86982 95.113 7.86427 95.113 9.37477C95.113 10.8853 96.602 11.8797 100.37 11.8797C104.138 11.8797 105.649 10.8906 105.649 9.37477H105.627Z" fill="#0046FF"/>
<path d="M117.797 6.27852C117.797 5.38083 117.749 4.96153 117.303 4.44012C116.98 4.04233 117.201 3.6983 117.572 3.6983H121.668V6.34839H126.081V9.07913H124.42C125.017 9.87185 125.338 10.8387 125.334 11.8313C125.334 15.0566 123.253 17.1638 119.555 17.1638C115.857 17.1638 113.776 15.0136 113.776 11.8313C113.777 10.842 114.091 9.87833 114.674 9.07913H112.712V6.34839H117.797V6.27852ZM119.555 14.5029C121.168 14.5029 121.84 13.186 121.84 11.8743C121.84 10.5627 121.168 9.18662 119.555 9.18662C117.942 9.18662 117.276 10.4982 117.276 11.8743C117.276 13.2505 117.948 14.5029 119.555 14.5029ZM135.789 23.0391C135.789 26.2913 132.768 28.1996 126.839 28.1996C120.91 28.1996 117.889 26.2913 117.889 23.0391C117.889 19.787 120.915 17.8841 126.839 17.8841C132.763 17.8841 135.789 19.7924 135.789 23.0391ZM131.8 23.0391C131.8 21.577 130.607 20.5879 126.839 20.5879C123.071 20.5879 121.877 21.577 121.877 23.0391C121.877 24.5013 123.071 25.4957 126.839 25.4957C130.607 25.4957 131.784 24.5013 131.784 23.0391H131.8ZM135.789 4.46699V17.368H132.246V12.084H130.586V16.6961H127.038V6.92357C127.087 6.34238 126.91 5.76467 126.543 5.31094C126.242 4.88628 126.441 4.6175 126.764 4.6175H130.586V9.17588H132.246V4.46699H135.789Z" fill="#0046FF"/>
</g>
<defs>
<clipPath id="clip0_14_118">
<rect width="135.778" height="32" fill="white"/>
</clipPath>
</defs>
</svg>
