<svg width="173" height="38" viewBox="0 0 173 38" fill="none" xmlns="http://www.w3.org/2000/svg">
<g clip-path="url(#clip0_14_923)">
<path d="M34.4339 37.9999H3.56891C1.59764 37.9999 0.0012207 36.4021 0.0012207 34.4322V3.5672C0.0012207 1.59593 1.59764 -0.000488281 3.56891 -0.000488281H34.4339C36.4038 -0.000488281 38.0016 1.59593 38.0016 3.5672V34.4322C38.0016 36.4021 36.4038 37.9999 34.4339 37.9999Z" fill="#FFE300"/>
<path d="M20.2196 24.2255H18.2511V13.7744H20.2196V24.2255ZM25.3652 19.0001C27.0627 17.8811 28.1831 15.9597 28.1831 13.7747C28.1831 10.321 25.3823 7.52148 21.9286 7.52148H11.4465C11.2455 7.52148 11.0845 7.68255 11.0845 7.88353V30.1169C11.0845 30.3179 11.2455 30.4804 11.4465 30.4804H21.9286C25.3823 30.4804 28.1831 27.6809 28.1831 24.2259C28.1831 22.0408 27.0628 20.1176 25.3652 19.0001Z" fill="#1C1C1C"/>
<path d="M57.806 14.6381L59.5407 15.9253L54.9952 21.601L60.2505 27.8799L58.5158 29.2468L52.3938 21.7066L57.806 14.6381ZM51.4218 28.8791H49.2139V9.22638L51.4218 8.72607V28.8791Z" fill="#1C1C1C"/>
<path d="M69.6555 25.7264V22.4152H67.1854C64.6896 22.4152 63.5593 23.2562 63.5593 25.0422C63.5593 26.4875 64.3475 27.3028 65.7672 27.3028C67.0543 27.3028 68.7348 26.6201 69.6555 25.7264ZM66.8961 20.8659H69.6556V19.7355C69.6556 17.5547 68.6835 16.6867 66.8433 16.6867C65.5562 16.6867 64.1109 17.0815 62.982 17.6075L62.3249 16.0567C63.7174 15.2684 65.3994 14.7952 66.8961 14.7952C70.1816 14.7952 71.7837 16.3731 71.7837 19.841V28.8793H70.1545L69.8923 27.3556C68.5254 28.4588 66.765 29.0889 65.3723 29.0889C62.9292 29.0889 61.4583 27.6179 61.4583 25.1477C61.4583 22.3368 63.3498 20.8659 66.8961 20.8659Z" fill="#1C1C1C"/>
<path d="M84.3153 14.6381L86.0486 15.9253L81.503 21.601L86.7583 27.8799L85.0251 29.2468L78.9031 21.7066L84.3153 14.6381ZM77.9296 28.8791H75.7231V9.22638L77.9296 8.72607V28.8791Z" fill="#1C1C1C"/>
<path d="M96.1628 25.7264V22.4152H93.694C91.1982 22.4152 90.0678 23.2562 90.0678 25.0422C90.0678 26.4875 90.8561 27.3028 92.2743 27.3028C93.5615 27.3028 95.2434 26.6201 96.1628 25.7264ZM93.4047 20.8659H96.1628V19.7355C96.1628 17.5547 95.1921 16.6867 93.3519 16.6867C92.0648 16.6867 90.6195 17.0815 89.4906 17.6075L88.8321 16.0567C90.2261 15.2684 91.9066 14.7952 93.4046 14.7952C96.6887 14.7952 98.2922 16.3731 98.2922 19.841V28.8793H96.663L96.3993 27.3556C95.0338 28.4588 93.2735 29.0889 91.8809 29.0889C89.4364 29.0889 87.9653 27.6179 87.9653 25.1477C87.9653 22.3368 89.8583 20.8659 93.4047 20.8659Z" fill="#1C1C1C"/>
<path d="M103.726 21.9955C103.726 25.4905 105.144 27.3293 107.587 27.3293C110.03 27.3293 111.45 25.4905 111.45 21.9955C111.45 18.5019 110.03 16.609 107.587 16.609C105.144 16.609 103.726 18.5019 103.726 21.9955ZM113.736 21.9955C113.736 26.5938 111.45 29.1424 107.587 29.1424C103.752 29.1424 101.44 26.5938 101.44 21.9955C101.44 17.3716 103.779 14.7974 107.587 14.7974C111.424 14.7974 113.736 17.3716 113.736 21.9955Z" fill="#1C1C1C"/>
<path d="M120.544 17.766V26.5406C121.096 26.6204 121.464 26.6204 121.804 26.6204C124.012 26.6204 125.589 25.2279 125.589 21.68C125.589 19.0003 124.932 17.4495 122.436 17.4495C121.648 17.4495 120.964 17.6334 120.544 17.766ZM117.024 28.4591V9.27808L120.544 8.64807V15.5055C121.385 14.9795 122.489 14.6118 123.697 14.6118C127.428 14.6118 129.162 17.1618 129.162 21.6018C129.162 26.4096 126.535 29.2732 122.174 29.2732C120.15 29.2732 117.996 28.8796 117.024 28.4591Z" fill="#1C1C1C"/>
<path d="M138.801 25.412V22.7052H136.909C135.018 22.7052 134.019 23.4678 134.019 24.8589C134.019 25.8581 134.597 26.5152 135.752 26.5152C136.961 26.5152 138.169 25.9636 138.801 25.412ZM136.593 20.4459H138.801V19.9727C138.801 18.449 138.327 17.5823 136.252 17.5823C134.964 17.5823 133.782 17.8446 132.521 18.5017L131.548 16.0842C132.888 15.1649 134.86 14.6118 136.673 14.6118C140.219 14.6118 142.085 16.3465 142.085 19.9456V28.8798H139.615L139.221 27.6981C137.803 28.7999 136.278 29.2475 135.043 29.2475C132.337 29.2475 130.84 27.6439 130.84 24.8858C130.84 21.9695 132.835 20.4459 136.593 20.4459Z" fill="#1C1C1C"/>
<path d="M145.234 15.0333H147.73L148.256 16.4245C149.491 15.3212 151.199 14.6128 152.671 14.6128C155.771 14.6128 157.32 16.53 157.32 19.9978V28.8794H153.801V19.8924C153.801 18.3431 153.222 17.686 151.356 17.686C150.621 17.686 149.57 17.8969 148.755 18.2119V28.8792H145.234V15.0333Z" fill="#1C1C1C"/>
<path d="M167.68 21.5217L172.462 27.2503L169.808 29.3527L164.002 22.2315V28.8795H160.482V9.27747L164.002 8.64746V21.3907L169.309 14.1911L171.936 16.0312L167.68 21.5217Z" fill="#1C1C1C"/>
</g>
<defs>
<clipPath id="clip0_14_923">
<rect width="172.46" height="38" fill="white"/>
</clipPath>
</defs>
</svg>
