<svg width="127" height="34" viewBox="0 0 127 34" fill="none" xmlns="http://www.w3.org/2000/svg">
<path d="M41.801 7.60289V5.10303H45.4814V7.60289H50.3969V9.96949H47.8221C49.0874 11.5794 49.7646 13.5735 49.7415 15.6212C49.7127 20.0662 47.2207 23.3766 43.6411 23.3766C39.9608 23.4054 37.5192 20.0662 37.5192 15.6212C37.4744 13.5743 38.1442 11.5758 39.4134 9.96949H36.9971V7.60289H41.801ZM43.6411 10.0199C42.2007 10.0199 41.0376 12.228 41.0664 15.6212C41.0376 18.8631 42.1683 21.0244 43.6159 21.0244C45.0636 21.0244 46.1908 18.9243 46.1908 15.6212C46.1908 12.0731 45.1392 10.0199 43.6411 10.0199ZM56.3099 14.7027V28.8986H52.7628V5.10303H56.3099V12.3361H59.731V14.7027H56.3099Z" fill="#008485"/>
<path d="M66.3502 19.6989H72.3353C73.9378 19.6989 75.1478 19.7782 76.6567 18.9785V5.09595H80.2074V12.329H83.6212V14.6956H80.2074V28.8915H76.6567V21.3523C75.4215 21.9034 73.7758 22.0727 72.2669 22.0727H64.4092C62.8571 22.0727 61.6724 20.5742 61.6724 18.8308V6.18378H65.2231V18.7227C65.1943 19.3279 65.5868 19.6989 66.3502 19.6989Z" fill="#008485"/>
<path d="M94.691 4.71045C98.6054 4.71045 101.234 7.91633 101.234 11.8102C101.254 12.8832 101.039 13.9476 100.603 14.9284C100.168 15.9092 99.5228 16.7826 98.7135 17.4871H105.314V19.8537H90.1896V25.4802C90.1812 25.6206 90.2027 25.7611 90.2525 25.8925C90.3024 26.0239 90.3795 26.1432 90.4789 26.2426C90.5783 26.342 90.6976 26.4192 90.829 26.4691C90.9604 26.519 91.1008 26.5404 91.2411 26.532H102.671V28.8986H89.1633C87.7228 28.8986 86.6425 27.4254 86.6425 25.772V19.8537H84.0137V17.4871H90.6397C89.8242 16.7861 89.173 15.914 88.7324 14.9329C88.2917 13.9518 88.0725 12.8857 88.0901 11.8102C88.0937 8.02439 90.7477 4.71045 94.691 4.71045ZM94.691 7.07704C92.9805 7.07704 91.6408 9.18067 91.6408 11.8102C91.6408 14.5946 93.0057 16.5398 94.6658 16.5398C96.3259 16.5398 97.6872 14.5442 97.6872 11.8102C97.6872 9.07621 96.3979 7.07704 94.691 7.07704Z" fill="#008485"/>
<path d="M109.6 6.81406V4.57715H113.28V6.81406H117.144V9.18065H115.462C116.293 10.1668 116.749 11.4141 116.751 12.7035C116.751 15.7509 114.386 18.2508 111.44 18.2255C108.339 18.2508 106.103 15.7257 106.103 12.7035C106.108 11.419 106.554 10.1752 107.367 9.18065H105.826V6.81406H109.6ZM111.44 9.33554C110.359 9.33554 109.52 10.7764 109.52 12.7035C109.52 14.4109 110.309 15.859 111.415 15.859C112.52 15.859 113.334 14.3857 113.334 12.7035C113.334 10.798 112.625 9.33554 111.44 9.33554ZM118.329 17.8545V5.10305H121.743V10.0992H123.453V5.10305H126.871V23.6683C126.871 27.2164 123.558 29.6875 120.245 29.6875C116.643 29.6875 113.572 27.2669 113.597 23.6683C113.572 20.9055 115.646 18.6182 118.329 17.8545ZM120.245 19.9582C118.804 19.9582 117.144 21.2729 117.144 23.6683C117.144 25.9557 118.696 27.3209 120.219 27.3209C121.743 27.3209 123.295 26.0061 123.324 23.6683C123.295 21.2225 121.743 19.9582 120.23 19.9582H120.245ZM121.743 12.4658V17.7501C122.342 17.8818 122.923 18.0875 123.471 18.3624V12.473L121.743 12.4658Z" fill="#008485"/>
<path d="M13.0498 3.26604C13.0498 4.10865 13.3845 4.91675 13.9801 5.51257C14.5758 6.10838 15.3836 6.44311 16.226 6.44311C16.6434 6.44358 17.0568 6.36175 17.4426 6.2023C17.8284 6.04285 18.1789 5.80891 18.4742 5.51384C18.7695 5.21878 19.0038 4.86838 19.1637 4.48269C19.3235 4.09699 19.4058 3.68356 19.4058 3.26604C19.4038 3.00125 19.3462 2.73983 19.2366 2.49879C18.9593 1.92245 18.6568 1.64149 18.6856 0.949885C18.7288 0.0169377 17.5296 0.0025275 16.885 0.0025275C16.1682 -0.0211568 15.4557 0.121878 14.8036 0.420374C14.2936 0.677208 13.8611 1.06508 13.5504 1.54423C13.2332 2.03549 13.0598 2.60571 13.0498 3.1904V3.26604Z" fill="#D80C18"/>
<path d="M32.3624 7.22469C32.132 6.86448 31.6746 6.86448 30.8211 7.03378C27.2186 7.72668 23.566 8.12662 19.8989 8.22969C16.9921 8.35249 14.0805 8.29595 11.1806 8.06039C8.72464 7.84066 4.07915 7.09142 3.04202 6.97975C2.48385 6.92212 1.21625 6.83567 0.568048 7.37959C-0.292622 8.10002 -0.0477153 9.15543 0.463645 10.0019C1.36032 11.2335 2.69606 12.0731 4.19441 12.3469C7.9756 12.9773 13.831 12.808 15.7612 12.5954C19.2106 12.3162 22.629 11.7364 25.9776 10.8628C25.9776 10.8628 29.4743 9.86145 31.1813 8.89969C31.8259 8.55028 32.7442 7.85506 32.3624 7.22469Z" fill="#008485"/>
<path d="M19.5605 14.973C18.5215 14.3981 17.3522 14.0999 16.1649 14.1068C14.9775 14.1137 13.8118 14.4256 12.7796 15.0126C11.9682 15.4741 11.2571 16.0931 10.688 16.8331C10.1189 17.5732 9.70331 18.4194 9.46551 19.3223C9.2277 20.2251 9.17251 21.1664 9.30317 22.0908C9.43382 23.0153 9.7477 23.9043 10.2264 24.7059C11.8793 27.2922 14.0832 26.6726 14.7134 26.017C15.0142 25.707 15.1883 25.2957 15.2016 24.8639C15.2149 24.4321 15.0665 24.0109 14.7854 23.6829C13.9283 22.6238 13.8419 21.9034 13.8419 21.4568C13.8419 20.7982 14.1032 20.1666 14.5684 19.7006C15.0336 19.2345 15.6647 18.9723 16.3231 18.9713C16.6821 18.9724 17.0367 19.0512 17.3624 19.2023C17.6881 19.3534 17.9773 19.5732 18.2101 19.8466C18.8655 20.6139 18.9303 21.7197 18.8979 22.6058C18.6098 27.919 16.4455 32.4972 16.3339 32.8322C16.2403 33.0772 16.0746 33.6823 16.532 33.9309C16.8921 34.1074 17.2954 33.9309 17.6987 33.5707C18.6963 32.7206 20.6229 30.3288 21.66 27.9442C22.2146 26.669 23.583 23.2866 23.1364 19.9115C22.9558 18.8702 22.5397 17.884 21.92 17.0282C21.3002 16.1723 20.4932 15.4693 19.5605 14.973Z" fill="#008485"/>
</svg>
